<?xml version="1.0" encoding="utf-8"?>
<!-- Generator: Adobe Illustrator 16.0.0, SVG Export Plug-In . SVG Version: 6.00 Build 0)  -->
<!DOCTYPE svg PUBLIC "-//W3C//DTD SVG 1.1//EN" "http://www.w3.org/Graphics/SVG/1.1/DTD/svg11.dtd">
<svg version="1.1"
	 id="Layer_1" xmlns:rdf="http://www.w3.org/1999/02/22-rdf-syntax-ns#" xmlns:cc="http://creativecommons.org/ns#" xmlns:svg="http://www.w3.org/2000/svg" xmlns:dc="http://purl.org/dc/elements/1.1/" xmlns:inkscape="http://www.inkscape.org/namespaces/inkscape" xmlns:sodipodi="http://sodipodi.sourceforge.net/DTD/sodipodi-0.dtd"
	 xmlns="http://www.w3.org/2000/svg" xmlns:xlink="http://www.w3.org/1999/xlink" x="0px" y="0px" width="19px" height="19px"
	 viewBox="0 0 19 19" enable-background="new 0 0 19 19" xml:space="preserve">
<g transform="translate(5.854999,-249.06)">
	<path fill="#49585F" d="M-0.938,253.171l-0.024,0.32l-0.035,0.473l-0.054,0.71l-0.07,0.847c-0.431,1.551-1.565,2.778-3.002,3.263
		h-1.732v0.75h4.431l-0.172,2.258h1.31l-0.172-2.258h4.102h4.104l-0.172,2.258h1.312l-0.173-2.258h4.431v-0.75h-1.729
		c-1.438-0.486-2.572-1.712-3.004-3.263l-0.07-0.847l-0.055-0.71l-0.031-0.473l-0.027-0.32L8.12,254.57
		c-0.037,0.119-0.086,0.233-0.145,0.344c-0.727,1.547-2.391,2.625-4.329,2.625c-1.938,0-3.601-1.079-4.329-2.625
		c-0.058-0.111-0.108-0.226-0.148-0.344L-0.938,253.171z M-0.754,255.302c0.25,0.446,0.583,0.843,0.971,1.191v2.292H-0.51
		l-0.261-3.419C-0.767,255.347-0.76,255.327-0.754,255.302z M8.047,255.302c0.006,0.024,0.008,0.045,0.014,0.064l-0.258,3.419H7.077
		v-2.292C7.463,256.145,7.797,255.748,8.047,255.302z M-1.193,256.542l-0.172,2.244h-0.608v-1.1
		C-1.669,257.347-1.404,256.963-1.193,256.542z M8.483,256.542c0.211,0.421,0.479,0.805,0.78,1.144v1.1H8.655L8.483,256.542z
		 M0.461,256.704c0.423,0.329,0.904,0.584,1.423,0.772v1.31H0.461V256.704z M6.833,256.704v2.082H5.409v-1.31
		C5.928,257.288,6.411,257.034,6.833,256.704z M2.129,257.559c0.442,0.132,0.913,0.204,1.398,0.215v1.011H2.129V257.559z
		 M5.161,257.559v1.227H3.762v-1.009C4.249,257.766,4.72,257.69,5.161,257.559z M-2.218,257.944v0.842h-1.16
		C-2.951,258.565-2.563,258.281-2.218,257.944z M9.51,257.944c0.345,0.337,0.73,0.622,1.156,0.842H9.51V257.944z"/>
</g>
</svg>
