<?xml version="1.0" encoding="utf-8"?>
<!-- Generator: Adobe Illustrator 16.0.0, SVG Export Plug-In . SVG Version: 6.00 Build 0)  -->
<!DOCTYPE svg PUBLIC "-//W3C//DTD SVG 1.1//EN" "http://www.w3.org/Graphics/SVG/1.1/DTD/svg11.dtd">
<svg version="1.1"
	 id="Layer_1" xmlns:rdf="http://www.w3.org/1999/02/22-rdf-syntax-ns#" xmlns:cc="http://creativecommons.org/ns#" xmlns:svg="http://www.w3.org/2000/svg" xmlns:dc="http://purl.org/dc/elements/1.1/" xmlns:inkscape="http://www.inkscape.org/namespaces/inkscape" xmlns:sodipodi="http://sodipodi.sourceforge.net/DTD/sodipodi-0.dtd"
	 xmlns="http://www.w3.org/2000/svg" xmlns:xlink="http://www.w3.org/1999/xlink" x="0px" y="0px" width="19px" height="19px"
	 viewBox="0 0 19 19" enable-background="new 0 0 19 19" xml:space="preserve">
<g transform="translate(-138.40654,-189.16003)">
	<path fill="#49585F" d="M147.907,189.247c-5.198,0-9.413,4.214-9.413,9.413l0,0c0,5.197,4.214,9.412,9.413,9.412
		c5.199,0,9.412-4.215,9.412-9.412C157.319,193.462,153.105,189.247,147.907,189.247z M147.882,189.823
		c0.266,0.001,0.53,0.015,0.795,0.039l-0.047,0.025l-0.054,0.107l0.135,0.134l0.376-0.08l0.159,0.188l0.242,0.107h0.188v-0.241
		l0.133-0.027l-0.234-0.086c0.234,0.048,0.469,0.106,0.699,0.173l-0.143,0.047l0.162,0.215h-0.188h-0.215l-0.351,0.081l-0.267-0.134
		l-0.295-0.188l-0.135,0.107l0.08,0.188l-0.295-0.053l-0.16,0.215l-0.188,0.107l-0.429,0.107l-0.322,0.081l0.081,0.027l0.241,0.188
		l0.054,0.161l-0.134,0.161l-0.644,0.027l-0.214-0.027l-0.081,0.161v0.214l-0.134,0.215l0.107,0.161l0.187,0.027l0.134,0.134
		l0.43-0.081l0.563-0.215l-0.134-0.214l0.483-0.241l0.08-0.161l0.161,0.027h0.295l0.269-0.134l0.188,0.188l0.24,0.161l0.402,0.161
		l0.16,0.188l0.188,0.053l-0.133-0.214l0.295,0.026l-0.59-0.295l-0.375-0.242v-0.214l0.188,0.027l0.402,0.321l0.349,0.161
		l0.214,0.348l0.482,0.349l0.135,0.081l-0.215-0.376l0.027-0.161l0.268,0.053l0.146,0.08l-0.064,0.028l0.106,0.161l0.321,0.295
		l0.107-0.054l0.16,0.081v-0.134l0.375,0.161l0.162-0.08l0.133,0.134l0.107,0.43L153,193.296l-0.107,0.08l0.145,0.37l-0.25-0.477
		l-0.242,0.027l-0.161,0.027l-0.616-0.108l-0.377-0.241l-0.295,0.081l0.081,0.161l-0.214,0.108l-0.081-0.081l-0.349-0.107
		l-0.24-0.161l-0.295-0.053l-0.512-0.161l0.242-0.081l-0.107-0.188v-0.107l-0.188-0.108l-0.054,0.081l-0.511-0.053h-0.589
		l-0.456,0.215l-0.348,0.053l-0.375-0.188l-0.081,0.295l-0.563,0.268l-0.027,0.215l-0.053,0.268l-0.483,0.161l-0.053,0.161
		l-0.241,0.081l-0.108,0.214l-0.482,0.59l0.107,0.214l-0.053,0.161l0.053,0.214l-0.107,0.269l-0.161,0.348l0.08,0.134l-0.107,0.134
		l0.134,0.214l0.134,0.081l0.269,0.269l0.026,0.215l0.241,0.268l0.268,0.188l0.403,0.349l0.294,0.08l0.269-0.134l0.214-0.053
		l0.295,0.107h0.241l0.403-0.161l0.401-0.107l0.402,0.027l0.188,0.268l0.106,0.054h0.401l0.081,0.161l0.268,0.081l-0.054,0.295
		l-0.133,0.268l-0.136,0.188l0.188,0.429l0.349,0.4l0.054,0.217l0.188,0.32l-0.082,0.295l0.135,0.242v0.133l-0.241,0.377
		l-0.188,0.455l-0.08,0.43l0.295,0.295l0.106,0.457l-0.053,0.105l0.053,0.295l0.028,0.35l0.24,0.295l0.054,0.457v0.187l0.241,0.108
		l1.021-0.108l0.724-0.563l0.349-0.534l0.215-0.216l0.214-0.133l0.161-0.672l0.216-0.295l0.48-0.268l0.242-0.296l0.054-0.698
		l0.054-0.186l-0.08-0.403v-0.188l-0.054-0.24l0.241-0.43l0.401-0.725l0.482-0.536l0.239-0.697l0.028-0.617l-0.106-0.134
		l-0.161,0.107l-0.402,0.054l-0.188-0.161l-0.053-0.215l-0.24-0.081l-0.295-0.51l-0.108-0.161l-0.295-0.402l-0.056-0.321
		l-0.267-0.268l-0.108-0.269l-0.428-0.596l0.215-0.048l0.349,0.402l0.188,0.215l0.241,0.268l0.079,0.429l0.27,0.188l0.295,0.51
		l0.026,0.214l0.216,0.429l0.105,0.053l0.375-0.214l0.081-0.188l0.214-0.081v-0.134l0.188-0.054l0.135-0.322l-0.045-0.205
		c0.434,1.056,0.658,2.186,0.658,3.327c0,4.87-3.947,8.82-8.817,8.82l0,0c-2.673-0.002-5.201-1.214-6.874-3.299l0.115,0.019v-0.158
		l-0.134-0.295l0.054-0.137v-0.349l-0.108-0.321l0.162-0.349l0.322-0.054l0.107-0.188l-0.081-0.564l0.027-0.99l0.107-0.242
		l0.295-0.428l-0.081-0.645l-0.215-0.054l-0.214-0.188l-0.322-0.214l-0.322-0.108l-0.188-0.161l-0.134-0.134l-0.429-0.161
		l0.054-0.616l-0.161-0.269l-0.242-0.081l-0.268-0.268l-0.088-0.418C140.137,192.727,143.726,189.825,147.882,189.823
		L147.882,189.823z M147.769,190.044l-0.097,0.027l-0.07,0.054l-0.084,0.033l0.037,0.121l0.014,0.071l0.127,0.006l0.03,0.004
		l0.053,0.117l-0.154,0.004l-0.027,0.083l-0.087,0.014v0.05l0.101,0.026l-0.098,0.081l0.088,0.03l0.087-0.033l0.083-0.037
		l0.078,0.023l0.254-0.021l0.063-0.02l0.017-0.054l0.067-0.08l-0.167-0.024l-0.017-0.06l-0.04-0.02l-0.041-0.061l-0.067-0.03
		l-0.09-0.114l0.043-0.074l-0.09-0.057L147.769,190.044z M147.337,190.32l-0.114,0.023l-0.08,0.067l-0.114,0.003l0.05,0.063
		l-0.061,0.057l-0.098,0.051l0.058,0.046l0.107,0.01l0.054-0.041l0.067-0.01l0.161-0.03l0.047-0.091l0.057-0.094L147.337,190.32z
		 M152.385,191.282l0.025,0.161l0.055,0.161l0.59,0.241l0.189,0.142l-0.082-0.035v0.054l-0.295,0.026l-0.67-0.161v0.107
		l-0.242-0.027l-0.188,0.054l-0.038,0.016l-0.097-0.177l-0.08-0.402l0.08-0.108l0.216-0.026l0.24,0.214h0.161l-0.135-0.161
		L152.385,191.282z M149.246,191.577l-0.026,0.214l0.056-0.053L149.246,191.577z M153.362,191.743
		c0.387,0.307,0.745,0.646,1.073,1.014h-0.063l-0.322-0.161l-0.157-0.292l0.05,0.024l-0.562-0.563L153.362,191.743z
		 M149.276,191.791l-0.082,0.134l0.188,0.134L149.276,191.791z M150.158,192.194l-0.375,0.053l0.16,0.081l0.27,0.134l0.081-0.268
		H150.158L150.158,192.194z M154.772,193.641l0.079,0.081l0.296,0.375l0.241,0.161l0.078-0.097c0.174,0.294,0.328,0.598,0.467,0.91
		l-0.062-0.062l-0.188-0.242l-0.161-0.268l-0.055,0.188l-0.187-0.054l-0.082-0.269l-0.35-0.322l-0.268-0.348L154.772,193.641z
		 M155.468,200.935l-0.08,0.213l-0.106,0.056l0.055,0.134l-0.107,0.106l-0.24,0.136l-0.216,0.27l-0.079,0.238v0.27l-0.216,0.162
		l-0.106,0.158v0.242l0.054,0.215l0.106,0.027l0.401-0.617l0.188-0.375l0.107-0.349l0.268-0.377L155.468,200.935z"/>
</g>
</svg>
