<?xml version="1.0" encoding="utf-8"?>
<!-- Generator: Adobe Illustrator 16.0.0, SVG Export Plug-In . SVG Version: 6.00 Build 0)  -->
<!DOCTYPE svg PUBLIC "-//W3C//DTD SVG 1.1//EN" "http://www.w3.org/Graphics/SVG/1.1/DTD/svg11.dtd">
<svg version="1.1" id="Layer_1" xmlns="http://www.w3.org/2000/svg" xmlns:xlink="http://www.w3.org/1999/xlink" x="0px" y="0px"
	 width="19px" height="19px" viewBox="0 0 19 19" enable-background="new 0 0 19 19" xml:space="preserve">
<g>
	<path fill="#49585F" d="M13.925,18.619c0-0.088-0.065-0.152-0.151-0.152h-1.719V17.6h-0.826v-2.396l-0.281,0.065v-3.196
		l-0.326,0.108V8.68l-0.219,0.13V6.135l-0.326,0.196V4.09l-0.24,0.196V2.308L9.641,2.503V0.48c0-0.087-0.066-0.152-0.152-0.152
		c-0.087,0-0.152,0.065-0.152,0.152v2.327L9.141,3.003v1.87l-0.24,0.196V7.07L8.575,7.266v2.566l-0.218,0.13v3.045l-0.326,0.109
		v2.849l-0.282,0.087v1.566H6.944v0.87H5.226c-0.087,0-0.152,0.063-0.152,0.15c0,0.088,0.065,0.153,0.152,0.153h8.547
		C13.838,18.794,13.925,18.706,13.925,18.619z M9.445,3.482c0.021,0,0.021,0,0.043,0c0.021,0,0.021,0,0.043,0v1.065L9.445,4.612
		V3.482z M9.206,5.222l0.566-0.457v1.762L9.206,6.875V5.222z M8.901,7.439L10.098,6.7v2.283L8.901,9.658V7.439z M8.662,10.158
		l1.652-0.913v3.065L8.662,12.92V10.158z M8.357,13.355l2.284-0.826v2.826l-2.284,0.566V13.355z M8.053,16.293l2.851-0.695V17.6
		H8.053V16.293z M11.708,18.445h-0.806H8.053H7.249v-0.521h4.459V18.445z"/>
</g>
</svg>
