<?xml version="1.0" encoding="utf-8"?>
<!-- Generator: Adobe Illustrator 16.0.0, SVG Export Plug-In . SVG Version: 6.00 Build 0)  -->
<!DOCTYPE svg PUBLIC "-//W3C//DTD SVG 1.1//EN" "http://www.w3.org/Graphics/SVG/1.1/DTD/svg11.dtd">
<svg version="1.1" id="Layer_1" xmlns="http://www.w3.org/2000/svg" xmlns:xlink="http://www.w3.org/1999/xlink" x="0px" y="0px"
	 width="19px" height="19px" viewBox="0 0 19 19" enable-background="new 0 0 19 19" xml:space="preserve">
<g transform="scale(1 -1)">
	<g transform="translate(0 -75)">
		<g>
			<path marker-end="none" marker-start="none" fill="#49585F" d="M11.807,56.572c-0.006,0-0.011-0.002-0.015-0.002
				c-0.024-0.006-0.054,0.012-0.058,0.037c-0.006,0.026,0.012,0.055,0.037,0.06h0.002c-0.002,0.062-0.006,0.122-0.008,0.185
				c-0.009,0.008-0.017,0.019-0.021,0.03c-0.021,0.046-0.022,0.095-0.019,0.146c0.002,0.041,0.006,0.082,0.014,0.121
				c-0.012,0.016-0.022,0.029-0.037,0.045c-0.01,0.014-0.01,0.033,0.005,0.043c0.011,0.013,0.032,0.01,0.044-0.004
				c0-0.002,0.002-0.002,0.005-0.006c0,0.02-0.003,0.037-0.003,0.059c0,0.008,0.005,0.018,0.01,0.021
				c0.002,0.041,0.008,0.079,0.012,0.119c-0.01,0-0.019,0-0.027,0c-0.032,0-0.059,0.025-0.059,0.057
				c-0.002,0.031,0.023,0.058,0.057,0.058h0.062c-0.021,0.032-0.043,0.067-0.065,0.099c-0.063,0.092-0.132,0.182-0.198,0.271
				c-0.195,0.253-0.419,0.494-0.648,0.716c-0.029,0.028-0.06,0.058-0.092,0.086c-0.007-0.008-0.021-0.006-0.027,0.002
				c-0.047,0.044-0.096,0.091-0.143,0.14c-0.062,0.049-0.127,0.096-0.193,0.133c0.013-0.012,0.015-0.029,0.004-0.045
				c-0.008-0.017-0.031-0.022-0.049-0.012c-0.049,0.016-0.099,0.037-0.146,0.053c-0.064,0.021-0.13,0.043-0.191,0.064
				c-0.062,0.023-0.119,0.042-0.178,0.061c-0.008-0.012-0.023-0.015-0.035-0.01c-0.009,0.006-0.016,0.014-0.016,0.025
				c-0.021,0.005-0.043,0.011-0.065,0.018c-0.129,0.031-0.274,0.045-0.407,0.051c-0.344,0.012-0.684-0.067-1.002-0.193
				c-0.062-0.025-0.131-0.057-0.19-0.087c-0.079-0.041-0.155-0.082-0.232-0.129c-0.035-0.021-0.068-0.044-0.103-0.065
				c-0.458-0.279-0.882-0.736-1.107-1.24c0.025-0.01,0.053-0.017,0.08-0.022c0.011-0.002,0.022-0.004,0.033-0.011
				c0.005-0.002,0.01-0.01,0.013-0.014c0-0.003,0-0.003,0.001-0.005c0.017-0.01,0.031-0.021,0.04-0.028
				c0.012-0.015,0.015-0.024,0.024-0.039c0.008-0.012,0.014-0.033,0.019-0.06c0.002-0.003,0.002-0.008,0.002-0.012
				c0-0.003,0-0.005,0-0.009c0.008-0.039,0.012-0.086,0.011-0.107c-0.002-0.029-0.004-0.061-0.006-0.088c0-0.003,0-0.008,0-0.01
				c0,0,0,0,0.001-0.002c0,0,0,0-0.001,0c0-0.008,0.001-0.02,0.002-0.028c0.001-0.024,0-0.069-0.006-0.095
				c-0.004-0.014-0.005-0.031-0.011-0.043c0-0.002,0-0.002,0-0.002c0-0.002,0-0.004,0-0.008c-0.003-0.039-0.008-0.08-0.01-0.121
				c0.009,0,0.018,0,0.027,0.002c0.045,0,0.082-0.037,0.082-0.082s-0.037-0.082-0.082-0.082c-0.027,0-0.054,0.002-0.081,0.002
				c-0.007-0.002-0.014-0.002-0.021-0.004c-0.013,0-0.025,0.002-0.037,0.007c-0.114,0.002-0.228,0.003-0.342,0.004
				c-0.339,0.006-0.68,0.016-1.019,0.022c-0.019,0-0.039,0-0.058,0c-0.099-0.004-0.197-0.01-0.295-0.009
				c-0.147,0.001-0.295-0.004-0.442-0.001c-0.099,0.002-0.199,0.006-0.298,0.008c-0.091,0.002-0.182,0.006-0.274,0.012
				c-0.017,0-0.035,0-0.053,0c-0.045,0-0.092,0.004-0.138,0.004c-0.02,0-0.039,0-0.059,0c0-0.006,0-0.012,0-0.018
				c0-0.021-0.016-0.035-0.036-0.035c-0.019,0-0.034,0.018-0.034,0.035c0,0.006,0,0.012,0,0.016c-0.009,0-0.019,0-0.029,0
				c-0.005-0.021-0.014-0.045-0.024-0.067c-0.01-0.022-0.035-0.03-0.056-0.021c-0.021,0.009-0.031,0.033-0.021,0.055
				c0.046,0.089,0.029,0.181,0.023,0.277c-0.002,0.053,0.007,0.099,0.008,0.147c0,0.062,0,0.13,0.005,0.192
				c0.003,0.041,0.019,0.174,0.048,0.203c0.01,0.011,0.017,0.019,0.029,0.027l0.01,0.01L3.75,57.49
				c0.003,0.008,0.007,0.013,0.013,0.018c-0.001,0.01-0.002,0.02-0.003,0.027c0,0.007,0.004,0.013,0.01,0.014
				c0.005,0,0.011-0.005,0.012-0.011s0.001-0.011,0.002-0.017c0.004,0,0.008,0.004,0.012,0.006c0.059,0.022,0.138,0.035,0.201,0.041
				c0.118,0.013,0.234,0.021,0.351,0.025c0.03,0.034,0.06,0.069,0.091,0.104c0.009,0.01,0.018,0.021,0.028,0.03
				c-0.011,0.014-0.012,0.029-0.002,0.043C4.643,58,4.818,58.23,4.991,58.463c0.063,0.083,0.125,0.171,0.185,0.256
				C5.34,58.95,5.5,59.186,5.654,59.423c0.184,0.287,0.361,0.584,0.521,0.886c0.041,0.078,0.087,0.155,0.129,0.233
				c0.003,0.033,0.003,0.065,0.003,0.097c-0.022,0.002-0.045,0.021-0.045,0.053c-0.001,0.019-0.001,0.037-0.001,0.058
				c-0.008,0-0.017,0-0.025,0.002c-0.014,0.001-0.025,0.013-0.024,0.026c0.001,0.015,0.013,0.025,0.028,0.023
				c0.007,0,0.015-0.001,0.022-0.001c0,0.086,0.007,0.171,0.016,0.259c0,0.006,0,0.008,0,0.012c-0.002,0.01-0.006,0.017-0.009,0.025
				l-0.021,0.047L6.243,61.15c-0.007,0.014-0.015,0.026-0.018,0.033c-0.009,0.021-0.022,0.041-0.032,0.065l-0.004,0.019
				l-0.005,0.019c-0.001,0.012,0,0.022,0.003,0.032v0.002c-0.001,0-0.002,0-0.003,0c-0.008,0-0.014,0.008-0.014,0.014
				c0,0.009,0.006,0.014,0.014,0.014l0.013,0.002l-0.004,0.012c-0.004,0.018-0.001,0.041,0.009,0.059
				c0.022,0.043,0.085,0.066,0.13,0.051l0.021-0.011l0.017,0.003c0.017,0.002,0.036,0.001,0.056,0.002
				c0.018,0.002,0.036,0.006,0.054,0.008c0.011,0.019,0.032,0.029,0.055,0.026c0.02-0.004,0.04-0.006,0.06-0.01
				c0.054,0.006,0.107,0.01,0.16,0.014c0.056,0.004,0.108,0.009,0.161,0.015c0.281,0.52,0.477,1.067,0.664,1.631
				c0.075,0.226,0.143,0.453,0.219,0.677c-0.008,0-0.016,0.003-0.02,0.008c-0.005,0.005-0.007,0.015-0.005,0.021
				c0.001,0.011,0.01,0.015,0.022,0.02l0.009,0.002c0.003,0,0.007,0.001,0.012,0.001c0.009,0.028,0.019,0.06,0.028,0.087
				c0.013,0.055,0.028,0.107,0.042,0.161c0.002,0.009,0.004,0.015,0.006,0.022c0.002,0.056,0.002,0.11-0.001,0.166
				c0,0.008-0.001,0.018-0.001,0.025c-0.034,0.028-0.064,0.059-0.083,0.102c-0.013,0.031-0.023,0.08,0.007,0.104
				c0.005,0.003,0.017,0.009,0.022,0.009c0.009,0,0.021,0,0.031-0.002c-0.002,0.021-0.004,0.043-0.006,0.065
				c-0.004,0.024-0.009,0.052-0.012,0.077c-0.001,0.008-0.002,0.014-0.003,0.019c-0.029-0.005-0.059-0.011-0.088-0.015
				c-0.024-0.004-0.045,0.013-0.049,0.035s0.012,0.047,0.035,0.052c0.03,0.003,0.06,0.009,0.09,0.015
				C7.828,64.837,7.819,64.87,7.854,64.9c0.027,0.023,0.061,0.013,0.093,0.013c0.04,0.001,0.081,0.004,0.121,0.006
				c0.029,0,0.059-0.004,0.087-0.004c0.001,0,0.003,0,0.004,0c0.007,0.026,0.015,0.05,0.022,0.075
				c0.04,0.138,0.066,0.291,0.095,0.432c0.007,0.036,0.014,0.072,0.021,0.107c-0.002,0.001-0.003,0.004-0.005,0.007
				c-0.008,0.01-0.006,0.025,0.003,0.033c0.003,0.003,0.007,0.005,0.011,0.006c0.01,0.054,0.021,0.108,0.031,0.164
				c0.034,0.228,0.067,0.456,0.091,0.685c0.025,0.236,0.05,0.472,0.073,0.708c0.02,0.209,0.04,0.419,0.064,0.628
				c0.012,0.106,0.024,0.213,0.038,0.32c-0.015,0.015-0.029,0.03-0.042,0.045c-0.01,0.01-0.009,0.027,0.001,0.037
				c0.01,0.01,0.027,0.009,0.037-0.001c0.004-0.004,0.007-0.009,0.012-0.013c0.033,0.276,0.069,0.551,0.104,0.827
				c0.01,0.149,0.022,0.299,0.031,0.448c0.002,0.048,0.007,0.101,0.009,0.146c0.007,0.174,0.016,0.348,0.023,0.521
				c0.015,0.294,0.022,0.588,0.04,0.882c0.019,0.309,0.036,0.619,0.072,0.926c0.015,0.125,0.028,0.252,0.05,0.375
				c0.005,0.03,0.01,0.059,0.015,0.089c-0.004,0.009-0.012,0.018-0.017,0.027c-0.011,0.021-0.036,0.041-0.049,0.06
				c-0.02,0.026-0.042,0.05-0.062,0.075c-0.015,0.018-0.024,0.038-0.038,0.057c-0.014,0.023-0.007,0.054,0.016,0.068
				s0.054,0.007,0.068-0.016c0.004-0.013,0.023-0.037,0.033-0.047c0.017-0.018,0.038-0.049,0.055-0.071
				c0.006-0.007,0.012-0.016,0.019-0.025c0.009,0.047,0.02,0.093,0.032,0.14C9,72.639,8.989,72.646,8.977,72.655
				c-0.002-0.008-0.006-0.015-0.008-0.018c-0.004-0.007-0.016-0.014-0.023-0.015c-0.032-0.006-0.044,0.02-0.048,0.046
				c0,0.008-0.002,0.016-0.003,0.024c-0.02,0.009-0.038,0.019-0.056,0.03c-0.033,0.02-0.104,0.076-0.116,0.113
				c-0.011,0.037-0.001,0.097,0,0.136c0.002,0.037,0.015,0.081,0.028,0.116c0.016,0.047,0.047,0.099,0.083,0.134
				c0.106,0.107,0.228,0.155,0.362,0.193l0.032,0.009c-0.005,0.052-0.012,0.104-0.016,0.154c-0.001,0.034,0,0.069-0.001,0.103
				c-0.001,0.035-0.004,0.069-0.004,0.104c0,0.041-0.007,0.084-0.005,0.124c0.003,0.053-0.014,0.084,0.019,0.126
				c0.015,0.019,0.046,0.02,0.069,0.009l0.004,0.022c0.006,0.034,0.013,0.067,0.02,0.102c0.002,0.009,0.008,0.02,0.009,0.028
				c0.019,0.109,0.151,0.099,0.159-0.016c0.002-0.046,0.003-0.109-0.001-0.165c0.008-0.019,0.006-0.042,0.006-0.064
				c0-0.042-0.003-0.084-0.003-0.125c-0.001-0.048-0.005-0.097-0.006-0.146c-0.001-0.034,0-0.069-0.002-0.103
				c-0.001-0.04-0.009-0.084-0.013-0.125c-0.002-0.023-0.004-0.045-0.006-0.067c0.018-0.004,0.036-0.01,0.049-0.015
				c0.069-0.026,0.132-0.065,0.193-0.107c0.013,0,0.025,0.002,0.04,0.002c0.004,0,0.01-0.005,0.014-0.007
				c0.016-0.01,0.041-0.06,0.048-0.083c0.006-0.005,0.012-0.01,0.017-0.016c0.018-0.017,0.019-0.045,0.001-0.063
				c0.012-0.056,0.014-0.111,0.009-0.168c0.021-0.009,0.035-0.03,0.035-0.053c0-0.01-0.002-0.027,0-0.036
				c0.001-0.01,0.007-0.014,0.008-0.02c0.004-0.011-0.003-0.052-0.009-0.064c-0.008-0.017-0.038-0.034-0.066-0.049
				c-0.002-0.019-0.005-0.054-0.012-0.067c-0.011-0.017-0.029-0.022-0.045-0.016C9.71,72.59,9.677,72.56,9.641,72.539
				c0.002-0.034,0.002-0.069,0.004-0.103c0.008-0.004,0.016-0.01,0.023-0.017c0.02,0.037,0.042,0.073,0.066,0.104
				c0.02,0.026,0.068,0.08,0.082,0.109c0.015,0.022,0.046,0.029,0.068,0.015c0.022-0.015,0.029-0.046,0.015-0.068
				c-0.009-0.011-0.012-0.021-0.019-0.03c-0.013-0.017-0.024-0.032-0.037-0.048c-0.044-0.058-0.104-0.11-0.127-0.181
				C9.713,72.311,9.708,72.305,9.7,72.3c0.024-0.36,0.054-0.722,0.077-1.082c0.028-0.44,0.052-0.878,0.083-1.317
				c0.001-0.014,0.001-0.028,0.003-0.043c0.002-0.026,0.005-0.054,0.009-0.081c0.037-0.33,0.085-0.66,0.125-0.99
				c0.044-0.353,0.089-0.704,0.13-1.057c0.053-0.444,0.085-0.893,0.139-1.338c0-0.011,0.002-0.022,0.002-0.032
				c0.004-0.002,0.004-0.004,0.004-0.006c0.055-0.266,0.107-0.532,0.188-0.792c0.018-0.055,0.027-0.116,0.043-0.173
				c0.035-0.132,0.074-0.266,0.125-0.395c0.071-0.014,0.146-0.025,0.216-0.038c0.052-0.011,0.117-0.017,0.134-0.079
				c0.01-0.045,0.015-0.072,0.017-0.117c0-0.045-0.019-0.107-0.032-0.148c-0.012-0.037-0.025-0.072-0.036-0.106
				c0.046-0.013,0.076-0.06,0.066-0.106c-0.013-0.049-0.058-0.08-0.106-0.069c-0.007,0.001-0.014,0.003-0.019,0.004
				c-0.005-0.013-0.007-0.024-0.009-0.037c-0.006-0.032-0.028-0.057-0.059-0.065c-0.003,0.029-0.003,0.015,0-0.002
				c0.034-0.125,0.066-0.25,0.102-0.375h0.027c0.043,0,0.074-0.031,0.074-0.074c0-0.036-0.025-0.067-0.061-0.073
				c0.031-0.113,0.063-0.228,0.1-0.34c0.07-0.233,0.145-0.47,0.23-0.696c0.023-0.061,0.043-0.12,0.064-0.179
				c0.018-0.044,0.035-0.089,0.053-0.132c0.019-0.047,0.038-0.096,0.06-0.144c0.09-0.219,0.192-0.431,0.308-0.639l0.014,0.001
				c0.018,0.001,0.035,0.002,0.055,0.004c0.055,0.004,0.121,0.014,0.176,0.027c0.012,0.004,0.029,0.012,0.037,0.014
				c0.049,0.02,0.102-0.005,0.12-0.051c0.01-0.02,0.01-0.037,0.005-0.061c0.002-0.003,0.005-0.006,0.005-0.008
				c0.024,0,0.049,0,0.073,0c0,0.008,0.003,0.016,0.003,0.025v0.005l0.002,0.012c0.003,0.019,0.009,0.035,0.022,0.05
				c0.027,0.026,0.074,0.026,0.104,0.004c0.019-0.013,0.024-0.033,0.028-0.057l0.004-0.011v-0.009V61.52c0-0.004,0-0.01,0-0.015
				c0.05-0.004,0.088-0.045,0.09-0.095c0-0.021-0.008-0.041-0.02-0.059l0.03-0.002c0.007,0,0.015-0.006,0.015-0.015
				c0-0.006-0.008-0.015-0.015-0.015c-0.022,0-0.047-0.002-0.069-0.002c-0.01-0.004-0.019-0.008-0.031-0.008
				c0-0.013,0-0.022,0-0.033V61.27l0.004-0.061c0-0.021,0.002-0.047,0.005-0.068c0.005-0.043,0.012-0.086,0.017-0.129
				c0.006-0.031,0.002-0.062,0.006-0.095c0-0.021,0.008-0.036,0-0.056c0-0.006-0.004-0.008-0.006-0.012c0-0.018,0-0.033,0-0.05
				c0.006,0.001,0.014,0.001,0.021,0.001c0.014,0.002,0.027-0.009,0.027-0.023c0-0.014-0.011-0.025-0.023-0.026
				c-0.01-0.002-0.016-0.002-0.023-0.002c0-0.017,0-0.031,0-0.045c-0.004-0.013-0.004-0.022-0.006-0.033
				c-0.007-0.024-0.039-0.037-0.062-0.026c-0.013,0.004-0.021,0.014-0.025,0.023c-0.008,0.014-0.005,0.039-0.008,0.055
				c0,0.006,0,0.014-0.002,0.021c-0.004-0.001-0.013-0.003-0.019-0.003v-0.001c-0.002-0.009-0.008-0.015-0.013-0.019l-0.004-0.006
				v-0.021c0-0.008,0.002-0.018,0-0.026c0-0.015,0-0.026-0.002-0.043c0.002,0.008,0.004,0.019,0.006,0.024
				c-0.002,0.006,0.003,0.013,0.013,0.014c0.004,0,0.01-0.004,0.01-0.01l0.014-0.021c0.035-0.046,0.04-0.096,0.051-0.149
				c0.012-0.043,0.02-0.088,0.027-0.133c0.006-0.021,0.01-0.041,0.015-0.062c0.011-0.021,0.023-0.041,0.034-0.062
				c0.057-0.098,0.105-0.203,0.164-0.302c0.021-0.038,0.045-0.075,0.066-0.114c0.013,0.002,0.023,0.002,0.033,0.002
				c0.041,0.002,0.073-0.027,0.075-0.067c0.003-0.026-0.011-0.052-0.034-0.063c0.028-0.048,0.057-0.095,0.084-0.142
				c0.084-0.146,0.18-0.295,0.274-0.435c0.084-0.123,0.165-0.244,0.25-0.361c0.149-0.209,0.306-0.414,0.47-0.613
				c0.084-0.102,0.17-0.201,0.256-0.303c0.033-0.044,0.072-0.089,0.11-0.133c0.019,0,0.036,0.003,0.056,0.003
				c0.102,0.001,0.209,0.001,0.31-0.005c0.093-0.004,0.188-0.008,0.278-0.02c0.039-0.005,0.104-0.012,0.144-0.025
				c0.011-0.004,0.021-0.012,0.032-0.021c0.019-0.017,0.021-0.04,0.027-0.063c0.017-0.119,0.034-0.244,0.039-0.364
				c0.004-0.066,0.004-0.13,0.006-0.195c0-0.038-0.004-0.084-0.009-0.123c0-0.007-0.002-0.015-0.005-0.022
				c0.025-0.014,0.042-0.039,0.047-0.066c0.006-0.051-0.029-0.098-0.08-0.102c-0.039-0.006-0.082-0.01-0.121-0.015
				c0-0.014,0.002-0.026,0.002-0.04c0-0.019-0.014-0.035-0.031-0.035c-0.021,0-0.037,0.016-0.037,0.034c0,0.011,0,0.022,0,0.033
				c-0.065-0.006-0.129-0.015-0.196-0.017c-0.049-0.004-0.098-0.006-0.142-0.006c-0.062-0.006-0.12-0.008-0.176-0.01
				c-0.106-0.003-0.213-0.005-0.316-0.007c-0.151-0.003-0.301,0-0.451,0.001c-0.089,0.001-0.176,0.006-0.264,0.008
				c-0.151,0.008-0.301,0.012-0.449,0.016c-0.118,0.005-0.238,0.009-0.355,0.009c-0.177-0.011-0.35-0.026-0.525-0.054
				c-0.021-0.004-0.041-0.008-0.064-0.012c-0.012-0.023-0.035-0.039-0.064-0.043C11.839,56.555,11.82,56.561,11.807,56.572z
				 M12.068,56.727c0.039,0.004,0.072,0.008,0.109,0.014c-0.093,0.062-0.172,0.126-0.258,0.207l0,0c0.001-0.006,0-0.01,0-0.016
				c-0.003-0.014-0.008-0.022-0.013-0.035c0-0.006,0.003-0.015,0.003-0.021c0.007-0.052,0.011-0.104,0.02-0.153
				c0-0.009,0-0.015,0.002-0.021C11.979,56.709,12.023,56.718,12.068,56.727z M3.757,56.73c0,0.03,0,0.062,0,0.092
				c-0.008,0.007-0.013,0.019-0.013,0.029c0.002,0.049,0.006,0.097,0.01,0.146c0,0.003-0.001,0.008-0.001,0.012
				c-0.004-0.032-0.01-0.063-0.012-0.098c-0.001-0.033,0-0.067,0.001-0.101c0.001-0.027,0-0.055-0.001-0.08
				C3.746,56.73,3.751,56.73,3.757,56.73z M3.987,56.75c0.089,0.007,0.182,0.01,0.272,0.014c0.056,0.002,0.11,0.006,0.166,0.008
				c0.074,0.002,0.148,0,0.222,0.002c0.183,0.002,0.366,0.002,0.549,0.002c0.234,0.004,0.467,0,0.701-0.002
				c0.006,0.045,0.01,0.092,0.013,0.138c0.003,0.053,0.002,0.108,0.002,0.161c-0.05,0.052-0.1,0.103-0.146,0.154
				c-0.053-0.102-0.087-0.211-0.114-0.32L5.636,56.91c0.037,0.152,0.083,0.299,0.141,0.441c-0.049,0-0.098,0-0.147,0
				c-0.223,0.004-0.447,0.01-0.67,0.01c-0.105,0-0.212,0.01-0.317,0.011c-0.101,0.002-0.199,0-0.298-0.002
				c-0.052-0.06-0.104-0.119-0.155-0.179L4.182,57.2c0.05,0.056,0.099,0.112,0.148,0.169c-0.037,0-0.074-0.003-0.11-0.003
				C4.148,57.361,4.074,57.355,4,57.348c-0.09-0.051-0.167-0.123-0.114-0.24l-0.015-0.006c0,0,0,0.002-0.001,0.004
				c0.004-0.024,0.008-0.049,0.01-0.073c0.006-0.063,0.011-0.128,0.016-0.193c0.002-0.026,0.001-0.063,0.006-0.093
				c0-0.002,0-0.002,0-0.003C3.931,56.745,3.959,56.748,3.987,56.75z M12.363,56.764c0.041,0.006,0.084,0.008,0.125,0.012
				c0.064,0.004,0.13,0.011,0.193,0.015c-0.004,0.013-0.012,0.026-0.016,0.04c-0.016,0.053-0.014,0.104-0.016,0.159
				c-0.002,0.047,0.002,0.098,0.008,0.147c-0.104,0.061-0.21,0.131-0.299,0.206c-0.027,0.022-0.068,0.062-0.102,0.099
				c-0.044,0-0.089-0.002-0.133-0.004c-0.004,0-0.009-0.002-0.016-0.002c-0.057-0.012-0.115-0.024-0.172-0.041l-0.029-0.011
				l0.002-0.063c0.005-0.094,0.017-0.184,0.017-0.275c0.099-0.105,0.212-0.203,0.328-0.266c0.015-0.008,0.028-0.016,0.044-0.022
				C12.322,56.757,12.342,56.76,12.363,56.764z M6.746,56.771c0.001,0.03,0.005,0.062,0.006,0.082
				c0.001,0.012,0.002,0.022,0.003,0.032c-0.008,0.003-0.015,0.005-0.021,0.011c-0.13,0.127-0.244,0.266-0.361,0.404
				c-0.024,0.027-0.05,0.053-0.074,0.079c-0.007,0.001-0.015,0.001-0.022,0.003c-0.008-0.014-0.022-0.021-0.038-0.021
				c-0.04,0-0.08-0.002-0.119-0.004c0.042-0.045,0.087-0.09,0.13-0.133c0.135-0.135,0.275-0.265,0.411-0.397
				c0.016-0.017,0.016-0.04,0-0.056H6.605c-0.073,0.07-0.145,0.146-0.216,0.222c-0.108,0.112-0.217,0.225-0.322,0.34
				c0-0.004-0.001-0.007-0.001-0.01c-0.002-0.023-0.003-0.048-0.005-0.068c-0.005-0.073-0.001-0.149-0.001-0.224
				c0.119-0.094,0.248-0.18,0.374-0.262C6.538,56.77,6.642,56.77,6.746,56.771z M6.057,56.939c-0.001-0.039-0.003-0.078-0.005-0.115
				c-0.001-0.02-0.004-0.036-0.007-0.053c0.077-0.002,0.153-0.002,0.229-0.002C6.199,56.822,6.126,56.879,6.057,56.939z
				 M13.166,56.812c0.152,0.006,0.311,0.011,0.463,0.008c0.321-0.002,0.637-0.004,0.958,0.013c0.067,0.002,0.136,0.006,0.206,0.011
				c0.005,0.088,0.012,0.174,0.023,0.26l0,0l-0.016,0.004c0.01,0.035,0.023,0.063,0.014,0.103c-0.004,0.017-0.008,0.029-0.018,0.045
				c-0.023,0.036-0.062,0.068-0.105,0.095c-0.067,0.008-0.139,0.015-0.202,0.017c-0.044,0.002-0.089,0.003-0.132,0.005
				c0.049-0.059,0.098-0.114,0.149-0.169l-0.009-0.009c-0.055,0.058-0.105,0.117-0.16,0.178c-0.093,0.003-0.188,0.005-0.281,0.003
				c-0.127-0.002-0.255-0.008-0.385-0.011c-0.277-0.006-0.555-0.012-0.831-0.01c0-0.035-0.002-0.07-0.002-0.098
				c0-0.011,0-0.021-0.002-0.031v-0.004l0.002-0.047c0-0.023,0.002-0.048,0.005-0.072c0.006-0.068,0.016-0.142,0.02-0.209
				c0-0.031-0.006-0.062-0.008-0.092C12.958,56.805,13.062,56.809,13.166,56.812z M12.305,56.943
				c-0.148,0.096-0.273,0.182-0.388,0.314c-0.015,0.018-0.015,0.04,0.003,0.055c0.016,0.014,0.039,0.013,0.053-0.002
				c0.116-0.14,0.25-0.221,0.399-0.316c0.058-0.035,0.114-0.072,0.172-0.107c0.019-0.012,0.022-0.035,0.013-0.057
				c-0.013-0.02-0.037-0.023-0.06-0.012C12.434,56.859,12.368,56.902,12.305,56.943z M6.76,57.07c0,0.027,0.001,0.057,0.003,0.084
				c-0.016,0.015-0.031,0.027-0.047,0.045c-0.025,0.023-0.049,0.049-0.072,0.074c-0.005-0.016-0.009-0.028-0.014-0.043
				c-0.01-0.026-0.041-0.041-0.068-0.032c-0.028,0.01-0.043,0.041-0.033,0.067c0.008,0.025,0.017,0.051,0.026,0.076
				c-0.057,0.01-0.114,0.02-0.171,0.026c0.017-0.021,0.034-0.038,0.052-0.058c0.107-0.115,0.207-0.236,0.326-0.34
				C6.759,57.006,6.759,57.044,6.76,57.07z M5.92,57.354c-0.037-0.002-0.074-0.002-0.11-0.002c-0.013-0.024-0.024-0.05-0.035-0.074
				c0.012,0.007,0.026,0.002,0.035-0.008c0.033-0.037,0.067-0.072,0.101-0.106C5.912,57.225,5.912,57.292,5.92,57.354z
				 M14.859,57.271c0.002,0.013,0.012,0.019,0.022,0.019c0,0.012,0,0.021,0.002,0.028c-0.024,0.006-0.051,0.011-0.075,0.014
				c-0.023,0.003-0.05,0.006-0.072,0.011c0.054-0.041,0.094-0.093,0.095-0.161C14.839,57.213,14.848,57.243,14.859,57.271z
				 M3.854,57.188c0,0.062,0.043,0.114,0.1,0.155c-0.029-0.004-0.058-0.008-0.087-0.012c-0.02-0.003-0.041-0.007-0.061-0.011
				c0-0.01,0.001-0.02,0.002-0.03c0.01-0.001,0.019-0.006,0.021-0.019c0.009-0.027,0.017-0.059,0.024-0.086
				C3.854,57.186,3.854,57.188,3.854,57.188z M12.668,57.234v0.058c0,0.022,0,0.042,0,0.063c-0.062,0-0.131,0.004-0.195,0.006
				C12.534,57.314,12.602,57.271,12.668,57.234L12.668,57.234z M6.772,57.284l-0.001,0.003c-0.016,0.01-0.045,0.02-0.074,0.025
				c0.023-0.024,0.047-0.049,0.071-0.073C6.77,57.255,6.771,57.27,6.772,57.284z M14.889,57.375l-0.013,0.111l-0.051,0.007
				c-0.052,0.002-0.103,0.011-0.155,0.014c-0.104,0.005-0.203,0.007-0.306,0.009c-0.022,0-0.046,0.002-0.069,0.002
				c0-0.004-0.002-0.009-0.005-0.011c0.015-0.003,0.026-0.006,0.038-0.008c0.051-0.013,0.099-0.024,0.146-0.041
				c0.041-0.013,0.076-0.024,0.113-0.039c0.025-0.009,0.051-0.021,0.076-0.033c0.074-0.009,0.148-0.022,0.223-0.036
				C14.889,57.357,14.889,57.365,14.889,57.375z M4.021,57.386c0,0,0.001,0,0.002,0c0.045,0.024,0.091,0.04,0.125,0.052
				c0.018,0.006,0.037,0.013,0.056,0.02c-0.044-0.002-0.089-0.005-0.134-0.008c-0.06-0.006-0.123-0.01-0.181-0.023l-0.035-0.011
				c-0.008-0.015-0.016-0.021-0.026-0.03L3.811,57.37L3.806,57.35C3.877,57.361,3.949,57.375,4.021,57.386z M14.889,57.371v0.004
				l0,0V57.371z M14.423,57.443c-0.049,0.013-0.098,0.021-0.146,0.031c-0.002,0-0.008,0-0.01,0c0.015-0.018,0.027-0.033,0.045-0.052
				c0.014,0,0.024-0.002,0.039-0.002c0.08-0.008,0.162-0.019,0.242-0.028C14.534,57.417,14.473,57.434,14.423,57.443z M4.378,57.425
				c0.01,0.013,0.021,0.024,0.031,0.035c-0.019,0-0.038,0-0.094-0.004c-0.004-0.001-0.007-0.002-0.01-0.002
				c-0.008-0.011-0.017-0.019-0.025-0.028c-0.011-0.012-0.031-0.014-0.043-0.002c-0.004,0.003-0.007,0.008-0.009,0.014
				c-0.014-0.004-0.028-0.01-0.042-0.014c-0.029-0.01-0.06-0.018-0.089-0.027C4.19,57.406,4.284,57.417,4.378,57.425z
				 M12.419,57.445c-0.017,0-0.03,0-0.047-0.002c0.013-0.008,0.021-0.018,0.03-0.024C12.404,57.43,12.409,57.439,12.419,57.445z
				 M14.27,57.451c-0.004,0.007-0.012,0.014-0.016,0.021c-0.037-0.019-0.081-0.011-0.107,0.021
				c-0.055,0.007-0.105,0.011-0.157,0.016c-0.062-0.002-0.125-0.005-0.188-0.006c0.061-0.004,0.119-0.008,0.182-0.01
				c0.007-0.002,0.008-0.007,0.008-0.011c0-0.006-0.004-0.01-0.01-0.01c-0.127,0.008-0.254,0.016-0.381,0.021
				c-0.145-0.007-0.287-0.015-0.432-0.021c-0.078-0.004-0.158-0.014-0.236-0.014c-0.031-0.001-0.062-0.002-0.092-0.002
				c0.002-0.002,0.002-0.004,0.002-0.007c0.16,0,0.32,0.003,0.479,0.005c0.099,0,0.193,0.002,0.289,0.002
				c0.058,0,0.115,0.001,0.173-0.001c0.172-0.008,0.341-0.019,0.512-0.031C14.284,57.434,14.275,57.443,14.27,57.451z M4.888,57.456
				c0.096,0.003,0.192,0.003,0.289-0.001c-0.023,0.001-0.045,0.002-0.068,0.003C5.04,57.46,4.97,57.459,4.902,57.46
				c-0.113,0.005-0.229,0.005-0.343,0.003c-0.044,0-0.089-0.001-0.134-0.003c-0.01-0.011-0.021-0.022-0.031-0.034
				C4.559,57.441,4.725,57.45,4.888,57.456z M6.881,57.986c-0.088,0.076-0.172,0.166-0.249,0.254
				c-0.007,0.007-0.014,0.015-0.021,0.023c-0.032-0.035-0.063-0.07-0.094-0.106c0.007-0.007,0.014-0.017,0.021-0.023
				c0.055-0.075,0.117-0.163,0.202-0.206c0.018-0.009,0.023-0.031,0.014-0.049c-0.009-0.018-0.031-0.021-0.048-0.014
				c-0.083,0.042-0.165,0.166-0.214,0.24c-0.002,0.004-0.005,0.009-0.007,0.012c-0.037-0.043-0.072-0.09-0.106-0.137
				c0.039-0.041,0.078-0.092,0.119-0.129c0.056-0.047,0.116-0.096,0.188-0.119c0.02-0.006,0.028-0.028,0.021-0.049
				c-0.009-0.021-0.031-0.029-0.05-0.021c-0.095,0.032-0.172,0.098-0.236,0.174c-0.021,0.024-0.042,0.052-0.063,0.076
				c-0.004,0.005-0.008,0.011-0.013,0.017c-0.031-0.046-0.061-0.092-0.089-0.14c0.052-0.041,0.106-0.083,0.156-0.127
				c0.03-0.024,0.059-0.062,0.088-0.083c0.014-0.016,0.013-0.039-0.001-0.055c-0.014-0.014-0.038-0.014-0.052,0.004
				c-0.034,0.031-0.063,0.066-0.099,0.102c-0.04,0.036-0.081,0.072-0.122,0.108c-0.033-0.058-0.064-0.117-0.092-0.179
				c0.039-0.004,0.078-0.006,0.117-0.01c0,0.01,0.004,0.02,0.013,0.023c0.011,0.007,0.026,0.003,0.033-0.01
				c0.003-0.006,0.007-0.015,0.01-0.021c0.024-0.003,0.048-0.005,0.072-0.008c0.048-0.007,0.095-0.013,0.142-0.021
				c0.029-0.007,0.06-0.016,0.088-0.021c0.003,0,0.005-0.002,0.008-0.003C6.688,57.669,6.777,57.83,6.881,57.986z M12.059,57.553
				c0.034,0.004,0.066,0.006,0.1,0.01c-0.053,0.033-0.102,0.096-0.141,0.141c-0.098,0.105-0.197,0.221-0.287,0.332
				c-0.045,0.059-0.092,0.113-0.14,0.171c-0.184,0.231-0.36,0.47-0.543,0.703c-0.098,0.125-0.2,0.25-0.302,0.373
				c-0.034,0.005-0.071,0.011-0.102,0.019c-0.033,0.01-0.066,0.022-0.101,0.035h-0.002c0.103-0.104,0.206-0.204,0.306-0.309
				c0.062-0.062,0.12-0.123,0.178-0.188c0.052-0.061,0.103-0.115,0.15-0.176c0.032-0.04,0.067-0.077,0.096-0.12
				c0.019-0.032,0.031-0.067,0.049-0.103c-0.01,0.002-0.018,0.004-0.022,0.007c0.058-0.06,0.114-0.122,0.173-0.185
				c0.064-0.074,0.123-0.152,0.187-0.226c0.022-0.024,0.044-0.058,0.063-0.084c0.019-0.021,0.032-0.044,0.049-0.063
				c0.041-0.053,0.08-0.108,0.119-0.162c0.023-0.035,0.047-0.074,0.072-0.108c0.018-0.022,0.02-0.05,0.012-0.072
				C12,57.549,12.029,57.551,12.059,57.553z M12.564,57.598c0.002,0.025,0.022,0.045,0.049,0.045h0.084c0.033,0,0.07,0,0.104,0
				c0.062,0,0.12,0,0.179-0.002c0.01,0,0.019,0.002,0.028,0.002c0.149,0.006,0.3,0.021,0.45,0.027
				c0.172,0.008,0.343,0.016,0.514,0.021c-0.007,0.008-0.015,0.015-0.019,0.021c-0.013-0.014-0.032-0.019-0.05-0.009
				c-0.112,0.039-0.215,0.104-0.322,0.154c-0.116,0.056-0.236,0.102-0.354,0.152c-0.059,0.024-0.113,0.053-0.17,0.076
				c-0.05,0.021-0.102,0.041-0.149,0.062c-0.034-0.062-0.071-0.121-0.111-0.18c-0.038-0.058-0.083-0.109-0.13-0.16
				c-0.016-0.021-0.031-0.035-0.05-0.052c-0.002-0.021-0.015-0.042-0.035-0.056c-0.037-0.026-0.087-0.016-0.11,0.021
				c-0.02,0.021-0.033,0.047-0.047,0.067c-0.049,0.063-0.093,0.136-0.144,0.196c-0.044,0.054-0.089,0.107-0.132,0.162
				c-0.023,0.028-0.051,0.058-0.074,0.07c-0.014,0.01-0.03,0.018-0.044,0.026c-0.015,0.009-0.041,0.014-0.058,0.019
				c-0.015,0.004-0.021,0.018-0.02,0.03c0.003,0.015,0.018,0.022,0.029,0.019c0.014-0.002,0.027-0.008,0.043-0.013
				c-0.018,0.019-0.03,0.034-0.045,0.052c-0.063,0.071-0.129,0.146-0.196,0.217c-0.108,0.113-0.226,0.226-0.349,0.33
				c0.043-0.055,0.088-0.107,0.129-0.16c0.098-0.129,0.191-0.258,0.289-0.387c0.096-0.129,0.191-0.256,0.295-0.385
				c0.063-0.082,0.134-0.165,0.205-0.24c0.019-0.02,0.016-0.05-0.002-0.066c-0.02-0.018-0.049-0.018-0.067,0.002
				c-0.054,0.061-0.106,0.117-0.157,0.18c-0.146,0.182-0.285,0.372-0.421,0.562c-0.062,0.088-0.125,0.172-0.188,0.258
				c-0.062,0.088-0.134,0.174-0.203,0.257c-0.027,0.034-0.061,0.065-0.088,0.101c-0.01,0.01-0.012,0.026,0.002,0.039
				c-0.002,0-0.002,0.002-0.002,0.002c-0.119,0.086-0.24,0.16-0.367,0.219c-0.006-0.004-0.01-0.006-0.016-0.008h-0.031
				c0.035-0.041,0.066-0.08,0.103-0.121c0.112-0.135,0.226-0.271,0.337-0.406c0.089-0.107,0.178-0.211,0.264-0.317
				c0.076-0.095,0.16-0.185,0.236-0.278c0.062-0.075,0.125-0.148,0.188-0.224c0.041-0.048,0.084-0.095,0.125-0.143
				c0.05-0.054,0.125-0.124,0.15-0.192c0.008-0.008,0.01-0.017,0.008-0.025C12.338,57.578,12.451,57.588,12.564,57.598z
				 M4.526,57.602c0.011,0.014,0.022,0.026,0.033,0.041c-0.024,0.002-0.048,0.004-0.072,0.008c-0.001,0-0.003,0-0.004,0
				c-0.016-0.018-0.031-0.034-0.046-0.053C4.467,57.6,4.496,57.6,4.526,57.602z M5.243,57.623c0.039,0.002,0.077,0.006,0.115,0.009
				c0.05,0.001,0.101,0.002,0.152,0.005c0.081,0.006,0.162,0.006,0.244,0.006c-0.043,0.11-0.094,0.217-0.144,0.326
				c-0.004,0.008-0.008,0.018-0.012,0.025c-0.328-0.182-0.635-0.376-1.019-0.354c-0.011-0.014-0.021-0.027-0.032-0.039
				c0.025,0,0.049,0,0.074,0c0.073,0,0.151,0.002,0.223,0c0.048-0.004,0.1-0.004,0.148-0.004h0.01
				C5.081,57.609,5.162,57.616,5.243,57.623z M6.062,57.641c0.025,0.057,0.053,0.113,0.083,0.17
				c-0.013,0.012-0.025,0.022-0.038,0.035c-0.019-0.029-0.038-0.057-0.056-0.084C6.025,57.721,6,57.682,5.974,57.639
				C6.004,57.639,6.034,57.639,6.062,57.641z M5.938,57.689c0.077,0.14,0.173,0.265,0.271,0.39c0,0.005,0.003,0.011,0.007,0.019
				c0.004,0.004,0.009,0.006,0.015,0.008c0.012,0.016,0.024,0.031,0.037,0.047c0.064,0.08,0.138,0.158,0.209,0.229
				c0.04,0.042,0.078,0.082,0.119,0.119c0.01,0.01,0.02,0.02,0.03,0.027c-0.007,0-0.014,0-0.021,0c-0.055,0-0.108,0.002-0.163,0.005
				c-0.127,0.005-0.254,0.016-0.38,0.019c-0.131,0.006-0.263,0.012-0.393,0.012c-0.062-0.002-0.125-0.004-0.187-0.008
				c0.032-0.13,0.088-0.257,0.146-0.371c0.004-0.011,0.009-0.021,0.015-0.031c0.091,0.058,0.184,0.113,0.284,0.156
				c0.112,0.047,0.243,0.104,0.365,0.117c0.041,0.006,0.081-0.002,0.122-0.007c0.02,0.002,0.039-0.012,0.041-0.03
				c0.002-0.02-0.011-0.039-0.031-0.041C6.39,58.33,6.342,58.311,6.307,58.3c-0.051-0.014-0.104-0.024-0.154-0.044
				c-0.038-0.014-0.077-0.023-0.114-0.041c-0.087-0.04-0.172-0.081-0.258-0.124c-0.029-0.015-0.057-0.028-0.085-0.043
				c0.052-0.103,0.107-0.202,0.153-0.305c0.015-0.034,0.028-0.067,0.042-0.103c0.006,0,0.013,0,0.021,0
				C5.919,57.657,5.929,57.674,5.938,57.689z M4.55,57.704c0.042,0.051,0.088,0.103,0.133,0.149c0.104,0.117,0.207,0.24,0.304,0.361
				c0.034,0.042,0.067,0.082,0.101,0.127c-0.008-0.01-0.016-0.02-0.023-0.027c-0.174-0.205-0.351-0.407-0.531-0.608
				C4.539,57.706,4.544,57.705,4.55,57.704z M4.606,57.7c0.115,0.144,0.226,0.29,0.335,0.437c0.011,0.014,0.022,0.028,0.033,0.043
				c-0.104-0.121-0.212-0.244-0.319-0.363c-0.034-0.039-0.069-0.075-0.105-0.111C4.569,57.701,4.588,57.701,4.606,57.7z
				 M5.551,58.096c-0.067,0.146-0.134,0.297-0.168,0.454c-0.026-0.002-0.053-0.004-0.08-0.004c-0.156-0.202-0.313-0.399-0.474-0.601
				c-0.066-0.084-0.136-0.163-0.203-0.246C4.961,57.695,5.276,57.916,5.551,58.096z M12.836,58.184
				c-0.105,0.045-0.211,0.09-0.316,0.133c-0.155,0.063-0.312,0.129-0.461,0.201c0.039-0.043,0.08-0.088,0.121-0.127
				c0.066-0.066,0.131-0.136,0.2-0.199c0.027-0.025,0.056-0.049,0.083-0.074c0.018-0.014,0.02-0.037,0.008-0.053
				c-0.01-0.01-0.02-0.016-0.027-0.017c0.009-0.014,0.021-0.026,0.031-0.041c0.041-0.058,0.08-0.118,0.121-0.177
				C12.697,57.934,12.771,58.055,12.836,58.184z M13.784,57.915c-0.204,0.246-0.405,0.502-0.593,0.765
				c0-0.007-0.002-0.014-0.008-0.02c-0.017-0.034-0.039-0.067-0.058-0.102c-0.03-0.051-0.056-0.104-0.084-0.156
				c-0.032-0.06-0.062-0.12-0.095-0.18c0.107-0.035,0.22-0.068,0.324-0.108c0.056-0.021,0.112-0.046,0.166-0.07
				c0.09-0.039,0.177-0.078,0.265-0.12c0.044-0.021,0.09-0.046,0.131-0.07C13.818,57.874,13.801,57.895,13.784,57.915z
				 M6.263,58.014c-0.005,0.004-0.01,0.01-0.017,0.018c-0.037-0.047-0.072-0.094-0.106-0.141c0.011-0.012,0.021-0.021,0.033-0.029
				C6.201,57.911,6.231,57.963,6.263,58.014z M7.055,58.219c-0.009-0.001-0.021,0-0.03,0.008c-0.083,0.059-0.169,0.129-0.246,0.203
				c-0.046-0.041-0.09-0.086-0.134-0.131c0.006-0.005,0.012-0.013,0.019-0.018c0.082-0.081,0.167-0.164,0.263-0.231
				C6.968,58.107,7.01,58.164,7.055,58.219z M6.343,58.134c-0.001,0.001-0.004,0.003-0.005,0.005
				c-0.019-0.021-0.038-0.043-0.055-0.063c0.004-0.005,0.008-0.009,0.013-0.011C6.311,58.088,6.327,58.109,6.343,58.134z
				 M7.078,58.234c0.004,0.006,0.007,0.016,0.007,0.021c-0.01-0.011-0.021-0.022-0.03-0.037C7.064,58.223,7.072,58.227,7.078,58.234
				z M12.947,58.43c0.029,0.065,0.055,0.133,0.087,0.195c0,0.001,0,0.001,0,0.003c-0.052-0.012-0.104-0.021-0.157-0.024
				c-0.025-0.004-0.049-0.01-0.074-0.01c-0.046-0.001-0.092-0.007-0.139-0.009c-0.135-0.005-0.273-0.003-0.407,0.002
				c-0.087,0.003-0.181,0.006-0.271,0.013c0.007-0.009,0.014-0.018,0.021-0.022c0.271-0.136,0.574-0.229,0.861-0.326
				C12.895,58.311,12.921,58.37,12.947,58.43z M7.187,58.374C7.1,58.428,7.03,58.523,6.97,58.598
				c-0.028-0.023-0.055-0.048-0.083-0.07c-0.021-0.02-0.042-0.038-0.063-0.057c0.081-0.066,0.169-0.127,0.247-0.184
				c0.01-0.008,0.015-0.02,0.015-0.031C7.118,58.296,7.152,58.335,7.187,58.374z M7.339,58.529c-0.069,0.05-0.137,0.127-0.187,0.182
				c-0.006,0.007-0.013,0.014-0.02,0.021c-0.041-0.033-0.082-0.066-0.122-0.102c0.011-0.014,0.022-0.027,0.034-0.04
				c0.058-0.071,0.109-0.135,0.183-0.172C7.263,58.455,7.3,58.494,7.339,58.529z M7.479,58.656c0.005,0.004,0.01,0.008,0.014,0.013
				c-0.058,0.045-0.113,0.097-0.162,0.153c-0.01,0.01-0.019,0.023-0.028,0.035c-0.02-0.015-0.038-0.026-0.058-0.039
				c-0.026-0.02-0.051-0.039-0.077-0.061c0.008-0.008,0.015-0.014,0.023-0.021c0.061-0.06,0.124-0.118,0.198-0.159
				C7.419,58.605,7.449,58.631,7.479,58.656z M6.808,58.729c0.208,0.277,0.391,0.561,0.566,0.858c-0.021,0-0.04,0-0.06,0.001
				c0.001-0.005,0.001-0.01,0.001-0.015c0.001-0.037-0.028-0.071-0.067-0.072c-0.038-0.007-0.08-0.009-0.119-0.012
				c-0.026-0.003-0.055-0.009-0.082-0.013c-0.122-0.02-0.283-0.08-0.39-0.137c-0.026-0.014-0.053-0.025-0.08-0.039
				c-0.033-0.016-0.067-0.035-0.101-0.056c0.006-0.015,0.013-0.027,0.02-0.041c0.031-0.062,0.065-0.132,0.091-0.196
				c0.019-0.044,0.044-0.098,0.058-0.142c0.012-0.038,0.027-0.085,0.041-0.121c0.011-0.04-0.012-0.08-0.051-0.093
				c-0.039-0.012-0.08,0.013-0.092,0.052c-0.012,0.042-0.022,0.085-0.035,0.127C6.491,58.895,6.464,58.96,6.44,59.02
				c-0.021,0.057-0.044,0.11-0.066,0.164c-0.004-0.002-0.008-0.004-0.012-0.008c-0.069-0.041-0.139-0.094-0.208-0.131
				c-0.164-0.085-0.325-0.166-0.5-0.227c-0.059-0.021-0.122-0.041-0.183-0.055c0,0-0.001,0-0.002,0
				c-0.007-0.011-0.014-0.02-0.021-0.029c0.004-0.006,0.008-0.014,0.009-0.022c0-0.017,0.002-0.03,0.004-0.046
				c0.07,0.004,0.141,0.007,0.212,0.008c0.196,0.002,0.392-0.003,0.588-0.008c0.115-0.005,0.237-0.007,0.351-0.02
				c0.002,0.002,0.004,0.006,0.006,0.008c0.01,0.008,0.025,0.006,0.034-0.006c0.001-0.002,0.003-0.004,0.005-0.006
				c0.024-0.004,0.05-0.009,0.075-0.014C6.758,58.662,6.783,58.695,6.808,58.729z M11.072,58.664
				c-0.038,0.045-0.078,0.09-0.117,0.134c-0.046,0.056-0.091,0.113-0.139,0.167c-0.065,0.072-0.131,0.149-0.197,0.225
				c-0.059,0.064-0.12,0.125-0.184,0.187c-0.014,0.006-0.026,0.011-0.041,0.015c0.006-0.009,0.017-0.019,0.022-0.025l0.005-0.014
				L10.41,59.35c-0.067,0.008-0.145,0.026-0.203,0.051c-0.008,0.002-0.016,0.006-0.021,0.01h-0.002
				c-0.002-0.001-0.004-0.001-0.004,0.003c-0.011,0.005-0.021,0.01-0.031,0.015c-0.002,0-0.002,0-0.002,0.002
				c0.096-0.064,0.179-0.143,0.265-0.223c0.056-0.055,0.112-0.114,0.167-0.175c0.029-0.019,0.061-0.038,0.087-0.056
				c0.093-0.059,0.188-0.127,0.272-0.195c0.054-0.045,0.104-0.092,0.152-0.137C11.084,58.648,11.077,58.656,11.072,58.664z
				 M13.104,58.771c0.008,0.002,0.017,0,0.025,0c-0.002,0-0.002,0.002-0.005,0.004c-0.212,0.086-0.426,0.18-0.633,0.276
				c-0.084,0.038-0.165,0.078-0.245,0.118c-0.111-0.156-0.232-0.309-0.354-0.456c0.006-0.008,0.012-0.014,0.016-0.021
				C12.301,58.664,12.717,58.695,13.104,58.771z M7.728,58.854c-0.006,0-0.011,0-0.016,0.004c-0.031,0.019-0.071,0.052-0.099,0.076
				c-0.028,0.021-0.06,0.045-0.089,0.068c-0.058-0.036-0.115-0.072-0.172-0.111c0.057-0.066,0.132-0.119,0.207-0.168
				C7.614,58.768,7.669,58.812,7.728,58.854z M12.165,59.215c-0.108,0.055-0.216,0.111-0.322,0.169
				c-0.104,0.056-0.204,0.11-0.308,0.168c-0.032,0.019-0.062,0.04-0.094,0.062c-0.043-0.003-0.084-0.003-0.129-0.005
				c0.064-0.113,0.129-0.227,0.199-0.34c0.076-0.127,0.159-0.25,0.245-0.373c0.029-0.043,0.063-0.086,0.097-0.129
				C11.968,58.908,12.066,59.059,12.165,59.215z M7.002,58.85c0.006,0.004,0.018,0.014,0.03,0.022
				c0.075,0.058,0.15,0.114,0.228,0.17c0.045,0.032,0.094,0.063,0.141,0.094C7.4,59.145,7.403,59.152,7.41,59.158
				c0.009,0.008,0.021,0.008,0.03,0c0.062,0.04,0.125,0.076,0.189,0.111c-0.001,0-0.001,0.002-0.001,0.002
				c-0.006,0.019,0.003,0.037,0.021,0.043c0.014,0.006,0.03-0.002,0.039-0.014c0.012,0.008,0.025,0.016,0.037,0.021
				c-0.023,0.035-0.046,0.076-0.067,0.113c-0.011,0.02-0.022,0.043-0.036,0.061c-0.026,0.031-0.045,0.059-0.073,0.086
				c-0.025,0-0.05,0-0.075,0.001c-0.083-0.133-0.169-0.265-0.258-0.396c-0.091-0.133-0.185-0.266-0.284-0.395
				C6.954,58.811,6.975,58.826,7.002,58.85z M5.601,58.874c0.143,0.06,0.262,0.128,0.389,0.217c0.045,0.031,0.088,0.065,0.134,0.097
				c0.065,0.041,0.131,0.084,0.199,0.127c-0.042,0.104-0.079,0.211-0.103,0.321c-0.006,0.001-0.012,0.001-0.018,0.001
				c-0.029,0.006-0.057,0.008-0.085,0.014C6.082,59.6,6.046,59.55,6.01,59.502c-0.072-0.1-0.146-0.195-0.219-0.294
				c-0.006-0.009-0.013-0.019-0.019-0.024c-0.051-0.074-0.102-0.148-0.156-0.221c-0.027-0.037-0.054-0.074-0.082-0.111
				C5.558,58.857,5.58,58.867,5.601,58.874z M7.776,58.885c0.05,0.031,0.1,0.062,0.151,0.092c-0.008,0.006-0.016,0.013-0.025,0.02
				c-0.013,0.009-0.027,0.018-0.04,0.023c-0.049,0.035-0.096,0.065-0.136,0.103c-0.052-0.026-0.104-0.058-0.152-0.088
				c0.019-0.015,0.037-0.024,0.053-0.036c0.039-0.027,0.082-0.059,0.124-0.08c0.013-0.009,0.019-0.023,0.015-0.04
				C7.769,58.88,7.772,58.882,7.776,58.885z M11.575,58.954c-0.136,0.196-0.25,0.407-0.366,0.618
				c-0.004-0.004-0.009-0.01-0.018-0.012c-0.111-0.047-0.174-0.135-0.252-0.221c0.055-0.023,0.107-0.053,0.16-0.081
				c0.076-0.044,0.157-0.092,0.229-0.143c0.077-0.056,0.155-0.108,0.229-0.169c0.017-0.012,0.031-0.025,0.045-0.037
				C11.596,58.925,11.586,58.938,11.575,58.954z M12.784,59.3c-0.056,0.095-0.113,0.189-0.168,0.286
				c-0.003,0.003-0.005,0.008-0.011,0.012c-0.015,0.021-0.029,0.043-0.043,0.064c-0.08-0.004-0.16-0.01-0.238-0.012
				c-0.246-0.015-0.493-0.023-0.738-0.031c0.003-0.002,0.005-0.003,0.008-0.005c0.201-0.116,0.411-0.216,0.624-0.31
				c0.054,0.094,0.104,0.188,0.162,0.279c0.017,0.027,0.054,0.037,0.083,0.02c0.028-0.017,0.037-0.055,0.02-0.082
				c-0.053-0.088-0.11-0.174-0.17-0.26c0.098-0.041,0.197-0.084,0.297-0.125c0.127-0.056,0.257-0.109,0.385-0.164
				C12.923,59.082,12.852,59.188,12.784,59.3z M8.046,59.041c0.075,0.039,0.151,0.073,0.228,0.105
				c-0.023,0.021-0.045,0.045-0.071,0.063c-0.039,0.028-0.075,0.06-0.106,0.091c-0.04-0.019-0.08-0.035-0.12-0.055
				c0.042-0.04,0.089-0.086,0.138-0.112c0.017-0.014,0.021-0.036,0.009-0.054c-0.012-0.018-0.038-0.02-0.054-0.007
				c-0.053,0.032-0.109,0.095-0.153,0.146c-0.042-0.021-0.083-0.041-0.126-0.062c0.061-0.049,0.145-0.096,0.197-0.129
				c0.004-0.004,0.008-0.008,0.011-0.014C8.014,59.023,8.03,59.031,8.046,59.041z M10.4,59.121c-0.062,0.07-0.135,0.148-0.207,0.209
				c-0.066,0.059-0.131,0.102-0.207,0.148c-0.004,0-0.006,0.004-0.009,0.008c-0.043,0.015-0.085,0.025-0.13,0.037
				c-0.014,0.004-0.027,0.008-0.041,0.01c0.105-0.127,0.235-0.236,0.371-0.328C10.258,59.184,10.33,59.152,10.4,59.121L10.4,59.121z
				 M8.386,59.193c0.019,0.007,0.039,0.013,0.058,0.021c0.004,0,0.009,0.001,0.013,0.004c-0.017,0.013-0.034,0.024-0.05,0.036
				c-0.05,0.036-0.098,0.072-0.137,0.116c-0.037-0.013-0.073-0.026-0.109-0.041c0.029-0.024,0.061-0.044,0.097-0.065
				c0.028-0.019,0.051-0.037,0.078-0.058C8.345,59.2,8.35,59.189,8.351,59.18C8.362,59.184,8.374,59.188,8.386,59.193z
				 M7.366,59.332c-0.013,0.014-0.013,0.034,0,0.046h0.047c0.029-0.028,0.06-0.062,0.091-0.09c0.012-0.011,0.012-0.033,0-0.046
				H7.456C7.426,59.27,7.395,59.302,7.366,59.332z M8.568,59.254c0.02,0.006,0.04,0.012,0.06,0.02
				c-0.048,0.037-0.091,0.084-0.13,0.135C8.49,59.42,8.481,59.43,8.473,59.441C8.431,59.427,8.39,59.416,8.348,59.4
				c0.054-0.055,0.123-0.096,0.178-0.14c0.006-0.005,0.012-0.01,0.017-0.015C8.55,59.249,8.56,59.251,8.568,59.254z M10.002,59.251
				C9.896,59.348,9.8,59.436,9.72,59.555c-0.043,0.006-0.085,0.014-0.127,0.019c-0.022,0-0.045,0-0.067,0
				c0.035-0.031,0.076-0.062,0.112-0.093c0.055-0.045,0.113-0.09,0.17-0.135c0.011-0.009,0.015-0.023,0.01-0.039
				c0.064-0.015,0.126-0.031,0.188-0.06C10.005,59.249,10.004,59.25,10.002,59.251z M8.902,59.337c0.003,0,0.006,0,0.009,0
				c-0.07,0.056-0.141,0.113-0.208,0.174c-0.023-0.005-0.045-0.013-0.067-0.019c-0.028-0.01-0.056-0.018-0.084-0.026
				c0.042-0.053,0.086-0.108,0.137-0.151C8.76,59.322,8.83,59.33,8.902,59.337z M9.663,59.384c-0.071,0.066-0.136,0.123-0.197,0.188
				C9.397,59.57,9.328,59.57,9.258,59.57c0.065-0.078,0.126-0.146,0.2-0.209c0.01-0.002,0.021-0.002,0.032-0.004
				c0.077-0.006,0.155-0.018,0.231-0.03C9.701,59.346,9.683,59.364,9.663,59.384z M9.123,59.359c0.004,0,0.009,0.002,0.014,0.002
				c-0.06,0.056-0.116,0.117-0.173,0.182c-0.005,0.007-0.01,0.014-0.016,0.018l-0.05-0.006c-0.039-0.008-0.078-0.019-0.117-0.025
				c-0.003-0.002-0.006-0.002-0.009-0.002c0.049-0.039,0.099-0.078,0.148-0.113c0.03-0.021,0.06-0.044,0.092-0.064
				C9.048,59.352,9.086,59.355,9.123,59.359z M9.348,59.367c-0.032,0.035-0.062,0.074-0.089,0.111
				c-0.022,0.03-0.045,0.062-0.067,0.092c-0.002,0-0.004,0-0.006,0c-0.056,0-0.111,0-0.167,0c0.02-0.021,0.04-0.045,0.061-0.064
				c0.059-0.058,0.115-0.105,0.185-0.139C9.29,59.368,9.318,59.368,9.348,59.367z M6.912,59.6c0.001,0,0.002,0,0.003,0.002
				c-0.057,0-0.115,0.002-0.171,0.006c-0.101,0.006-0.202,0.013-0.303,0.019c-0.036,0.002-0.072,0.005-0.108,0.006
				c0.021-0.089,0.049-0.174,0.087-0.258C6.577,59.469,6.739,59.555,6.912,59.6z M10.918,59.436
				c0.021,0.026,0.043,0.057,0.064,0.082c0.024,0.034,0.053,0.062,0.084,0.086c-0.129-0.004-0.258-0.008-0.389-0.013
				c-0.02-0.026-0.021-0.067-0.031-0.102v-0.001c0.022-0.006,0.045-0.016,0.064-0.026c0.032-0.019,0.061-0.04,0.088-0.062
				c0.021-0.008,0.042-0.016,0.062-0.024C10.88,59.396,10.898,59.416,10.918,59.436z M7.847,59.384
				c0.054,0.025,0.109,0.052,0.165,0.076c0.004,0.005,0.009,0.011,0.016,0.015c0.006,0.002,0.012,0.002,0.018,0
				c0.006,0.002,0.011,0.004,0.017,0.008c0.079,0.033,0.156,0.062,0.234,0.091c-0.206,0-0.411,0.002-0.617,0.006
				c0.005-0.006,0.009-0.011,0.013-0.015c0.045-0.062,0.089-0.123,0.135-0.184C7.833,59.384,7.84,59.386,7.847,59.384z
				 M10.578,59.568c0,0.008,0.002,0.015,0.005,0.021c-0.067-0.001-0.135-0.002-0.202-0.004c0.005-0.002,0.012-0.003,0.016-0.005
				c0.06-0.021,0.117-0.039,0.172-0.061C10.57,59.536,10.573,59.552,10.578,59.568z M6.077,59.652c-0.002,0-0.005,0.002-0.008,0.002
				c-0.008-0.014-0.016-0.027-0.024-0.041c0-0.002-0.001-0.002,0-0.002C6.056,59.626,6.066,59.641,6.077,59.652z M8.8,59.716
				c0.075,0.019,0.15,0.028,0.225,0.041c0.023,0.003,0.048,0.009,0.071,0.011c-0.001,0.004-0.003,0.008-0.004,0.012
				c-0.023,0.048-0.047,0.095-0.07,0.144C8.948,60.08,8.883,60.242,8.811,60.4l-0.044,0.09l-0.024-0.024
				c-0.159-0.177-0.218-0.356-0.289-0.602C8.439,59.812,8.425,59.76,8.41,59.71c0.12,0,0.24,0,0.359,0
				C8.78,59.712,8.79,59.714,8.8,59.716z M8.228,59.729c-0.09,0.125-0.125,0.28-0.164,0.428c-0.017,0.064-0.034,0.133-0.055,0.195
				c-0.012,0.034-0.023,0.072-0.037,0.107c-0.001,0-0.001,0.002-0.001,0.004c-0.13-0.254-0.269-0.502-0.416-0.746
				c-0.007,0.014-0.004,0.008,0-0.001c0.025,0,0.05,0,0.076,0c0.203-0.002,0.405-0.004,0.608-0.005
				C8.235,59.717,8.23,59.725,8.228,59.729z M7.452,59.721c-0.055,0.139-0.093,0.289-0.132,0.434
				c-0.026,0.103-0.053,0.203-0.081,0.306l-0.013,0.043l-0.008-0.009c-0.019-0.021-0.037-0.046-0.052-0.064
				c-0.036-0.047-0.073-0.097-0.103-0.146c-0.069-0.108-0.136-0.218-0.203-0.329c-0.043-0.072-0.084-0.148-0.127-0.225
				c0.127-0.002,0.255-0.006,0.383-0.01c0.11-0.002,0.222-0.002,0.333-0.004C7.45,59.719,7.451,59.721,7.452,59.721z M10.609,59.732
				c-0.01,0.02-0.017,0.045-0.021,0.062c-0.022,0.067-0.046,0.136-0.073,0.199c-0.054,0.137-0.108,0.263-0.177,0.393
				c-0.022,0.046-0.049,0.089-0.071,0.136l-0.004,0.004c-0.101-0.148-0.162-0.367-0.201-0.523c-0.017-0.057-0.026-0.115-0.039-0.173
				c-0.004-0.024-0.004-0.063-0.022-0.083c-0.056-0.057-0.117,0.054-0.14,0.091c-0.009,0.015-0.017,0.024-0.025,0.039
				S9.82,59.904,9.812,59.92c-0.063,0.107-0.113,0.225-0.167,0.336c-0.043,0.09-0.08,0.184-0.119,0.273L9.5,60.586l-0.021-0.021
				l-0.013-0.013l-0.094-0.206c-0.056-0.135-0.099-0.269-0.139-0.406c-0.009-0.035-0.018-0.07-0.026-0.106
				c-0.005-0.019-0.006-0.037-0.012-0.056c0.062,0.006,0.131,0.002,0.193,0.002c0.156-0.004,0.317-0.025,0.47-0.055
				c0.005-0.004,0.01-0.004,0.014-0.004C10.136,59.725,10.379,59.729,10.609,59.732z M6.627,59.756
				c-0.005,0.035-0.008,0.071-0.015,0.108c-0.005,0.024-0.006,0.053-0.01,0.079c-0.005,0.041-0.012,0.08-0.019,0.121
				c-0.02,0.121-0.042,0.242-0.06,0.363c-0.007,0.053-0.012,0.104-0.017,0.155c-0.013-0.022-0.025-0.047-0.037-0.069
				c0.002-0.014,0.004-0.027,0.006-0.041c0-0.022-0.018-0.041-0.04-0.043c-0.003,0-0.007,0-0.011,0.002
				c-0.007-0.015-0.016-0.029-0.023-0.043c-0.018-0.033-0.036-0.065-0.056-0.099l0,0c0.02-0.011,0.027-0.035,0.016-0.056
				c-0.019-0.043-0.038-0.086-0.057-0.129c-0.004-0.023-0.009-0.051-0.014-0.08c-0.006-0.029-0.012-0.061-0.018-0.09l-0.017-0.088
				l-0.007-0.039l-0.001-0.004l0,0l0,0c0.03,0.004,0.058-0.017,0.062-0.046c0-0.008,0.002-0.015,0.003-0.021
				c0.028-0.002,0.057-0.004,0.084-0.004c0.078-0.002,0.155-0.002,0.233-0.002C6.628,59.739,6.628,59.748,6.627,59.756z
				 M11.111,59.746c-0.12,0.217-0.231,0.439-0.354,0.658c-0.022-0.086-0.034-0.17-0.039-0.266c-0.005-0.09-0.002-0.181-0.005-0.271
				c-0.002-0.025,0-0.108-0.007-0.136C10.844,59.738,10.979,59.742,11.111,59.746z M6.148,59.739
				c0.005,0.007,0.011,0.014,0.016,0.021l0,0c-0.001,0.004-0.001,0.008,0,0.018v0.006c0.002,0.015,0.005,0.035,0.009,0.059
				c-0.018-0.035-0.036-0.068-0.056-0.102C6.128,59.739,6.138,59.739,6.148,59.739z M11.253,59.751c0,0.005,0,0.009,0.002,0.015
				c0.009,0.012,0.022,0.017,0.037,0.01c0.013-0.008,0.022-0.016,0.035-0.021c0.062,0.003,0.118,0.005,0.178,0.007
				c0.308,0.013,0.618,0.021,0.925,0.04c0.004,0,0.008,0,0.014,0v0.002l-0.004,0.018l-0.002,0.006l-0.002,0.021
				c-0.006,0.028-0.015,0.057-0.019,0.086c-0.002,0.008-0.002,0.017-0.005,0.024c-0.018,0.031-0.035,0.062-0.051,0.093
				c-0.045,0.078-0.084,0.168-0.123,0.249c-0.053,0.115-0.108,0.231-0.164,0.349c-0.045-0.17-0.078-0.346-0.092-0.517
				c-0.008-0.092-0.016-0.184-0.004-0.274c0.008-0.063-0.062-0.092-0.095-0.045c-0.021,0.026-0.032,0.072-0.049,0.104
				c-0.011,0.023-0.022,0.053-0.032,0.077c-0.017,0.043-0.039,0.095-0.061,0.139c-0.049,0.104-0.1,0.222-0.159,0.321
				c-0.026,0.043-0.056,0.083-0.085,0.125l-0.025,0.031l-0.01-0.016c-0.1-0.164-0.15-0.371-0.195-0.551
				c-0.02-0.081-0.037-0.163-0.06-0.246c0.01-0.016,0.019-0.031,0.026-0.046C11.241,59.751,11.246,59.751,11.253,59.751z
				 M8.318,59.8L8.347,59.9c0.058,0.203,0.119,0.408,0.254,0.574c0.036,0.043,0.072,0.082,0.116,0.117
				c-0.105,0.004-0.211,0.01-0.316,0.018c-0.116,0.006-0.231,0.016-0.35,0.029c-0.008,0-0.017,0-0.024,0.002
				C8.038,60.622,8.04,60.6,8.03,60.578c-0.009-0.02-0.019-0.035-0.027-0.055c0,0,0-0.002,0.001-0.002
				c0.028-0.063,0.057-0.133,0.079-0.198c0.021-0.062,0.045-0.128,0.068-0.188c0.038-0.098,0.073-0.182,0.126-0.271
				c0.008-0.015,0.016-0.027,0.024-0.042L8.318,59.8z M7.918,60.635c0.001,0.006,0.004,0.008,0.006,0.012
				c-0.375,0.019-0.751,0.041-1.128,0.065c-0.063,0-0.127-0.001-0.191-0.003c-0.01-0.001-0.021,0.002-0.033,0.003
				c-0.007-0.014-0.014-0.028-0.021-0.043c0.01-0.116,0.025-0.229,0.052-0.345c0.03-0.135,0.067-0.27,0.095-0.402l0.008-0.045
				l0.086,0.148c0.089,0.151,0.185,0.315,0.293,0.455c0.009,0.012,0.017,0.022,0.026,0.033c0.029,0.034,0.077,0.096,0.118,0.116
				c0.013,0.007,0.027,0.007,0.04,0.001c0.027-0.014,0.027-0.038,0.036-0.062c0.017-0.053,0.03-0.111,0.045-0.166
				c0.054-0.193,0.1-0.383,0.163-0.57C7.656,60.096,7.784,60.366,7.918,60.635z M11.168,59.893c0.021,0.105,0.038,0.213,0.062,0.318
				c0.021,0.107,0.045,0.242,0.092,0.344c0.021,0.047,0.047,0.088,0.07,0.127c-0.006,0-0.014,0-0.018,0
				c-0.199-0.014-0.396-0.021-0.596-0.035c-0.014,0-0.029,0-0.043-0.002c0.043-0.074,0.09-0.148,0.132-0.226
				c0.103-0.178,0.196-0.358,0.296-0.538C11.165,59.884,11.165,59.887,11.168,59.893z M9.936,59.904l0.029,0.129
				c0.04,0.146,0.086,0.305,0.154,0.441c0.021,0.043,0.046,0.088,0.076,0.127c-0.021,0-0.041-0.002-0.062-0.002
				c-0.174-0.009-0.349-0.013-0.526-0.013c0.025-0.06,0.05-0.118,0.076-0.178c0.041-0.095,0.085-0.188,0.132-0.281
				C9.851,60.057,9.89,59.979,9.936,59.904z M9.129,59.938l0.003,0.012c0.013,0.052,0.026,0.103,0.044,0.15
				c0.035,0.104,0.071,0.203,0.111,0.305c0.017,0.043,0.037,0.084,0.055,0.123c0.008,0.017,0.019,0.043,0.03,0.062
				c-0.023,0.001-0.046,0.001-0.068,0.002c-0.156-0.004-0.313-0.005-0.469-0.002c0.004-0.009,0.008-0.021,0.014-0.029
				c0.027-0.045,0.049-0.101,0.071-0.147c0.069-0.151,0.129-0.306,0.199-0.454L9.129,59.938z M10.614,60.023l0.007,0.188
				c0.009,0.106,0.033,0.211,0.07,0.312c0,0.002,0,0.002,0,0.004c-0.02,0.037-0.041,0.074-0.062,0.109
				c-0.006,0-0.014-0.001-0.021-0.001c-0.092-0.009-0.184-0.019-0.274-0.024c0.028-0.047,0.056-0.103,0.082-0.148
				c0.033-0.061,0.062-0.122,0.091-0.186c0.03-0.065,0.061-0.133,0.092-0.201L10.614,60.023z M11.873,60.098l0.007,0.068
				c0.021,0.186,0.054,0.371,0.103,0.553c-0.146-0.011-0.295-0.02-0.439-0.027c0.039-0.045,0.079-0.099,0.104-0.14
				c0.017-0.03,0.035-0.062,0.055-0.093c0.016-0.025,0.029-0.059,0.046-0.087c0.024-0.048,0.049-0.099,0.071-0.146L11.873,60.098z
				 M12.287,60.573c0-0.013,0-0.024,0-0.035c0.003-0.003,0.005-0.005,0.005-0.009C12.292,60.544,12.29,60.559,12.287,60.573z
				 M10.589,60.714c-0.002,0.003-0.002,0.005-0.005,0.009c-0.034-0.002-0.066-0.005-0.1-0.007c0.025,0,0.054-0.002,0.082-0.002
				C10.573,60.714,10.58,60.714,10.589,60.714z M10.755,60.718c0.187,0.005,0.371,0.013,0.558,0.021
				c0.107,0.004,0.22,0.009,0.328,0.014c-0.078,0.002-0.154,0.002-0.229,0.002c-0.24-0.002-0.483-0.015-0.728-0.028
				c0.004-0.002,0.006-0.006,0.008-0.01C10.712,60.718,10.732,60.718,10.755,60.718z M12.201,60.787
				c0.02,0.043,0.049,0.083,0.091,0.121l0.009,0.007l-0.007,0.021c-0.007,0.021-0.015,0.041-0.019,0.064l-0.002,0.007l-0.008,0.002
				c-0.051,0.021-0.062,0.079-0.059,0.125l0.003,0.044l-0.005,0.008c-0.021,0.035-0.014,0.082,0.02,0.104l0.014,0.009
				c0,0.002,0,0.004,0,0.008c-0.09-0.004-0.18-0.005-0.271-0.006c0.012-0.051,0.023-0.103,0.037-0.154
				c0.005-0.021-0.009-0.045-0.031-0.051c-0.023-0.005-0.048,0.01-0.053,0.032c-0.016,0.058-0.027,0.115-0.041,0.173
				c-0.143-0.001-0.281-0.001-0.421-0.002c-0.079,0-0.16-0.002-0.237-0.002c0-0.003,0-0.003,0-0.005
				c0-0.024-0.013-0.074-0.003-0.099l0.009-0.014c0.015-0.021,0.008-0.05-0.014-0.063c-0.021-0.015-0.051-0.007-0.064,0.013
				c-0.029,0.044-0.029,0.075-0.024,0.124c0.002,0.017,0.004,0.028,0.004,0.041c-0.076,0-0.151,0-0.228-0.002
				c-0.11-0.005-0.223-0.01-0.33-0.015c0-0.004,0-0.008,0-0.012c0-0.072-0.021-0.154,0.013-0.223
				c0.006-0.023-0.005-0.049-0.028-0.057c-0.022-0.008-0.049,0.006-0.056,0.029c-0.035,0.092-0.015,0.17-0.017,0.258
				c-0.01,0-0.02,0-0.027,0c-0.032-0.004-0.066-0.004-0.1-0.006c0.004-0.02,0.011-0.037,0.016-0.057
				c0.012-0.037-0.01-0.076-0.043-0.088c-0.038-0.012-0.076,0.009-0.088,0.047c-0.01,0.029-0.02,0.061-0.031,0.09
				c-0.087-0.005-0.178-0.009-0.267-0.012c-0.04,0-0.081-0.002-0.12-0.005c0-0.035,0.003-0.069,0.009-0.106
				c0.003-0.029,0.014-0.062,0.018-0.094c0.006-0.031,0.012-0.064,0.019-0.098c0.004-0.025-0.014-0.051-0.04-0.055
				c-0.025-0.006-0.051,0.012-0.056,0.037c-0.022,0.094-0.037,0.208-0.037,0.312c-0.065-0.004-0.132-0.006-0.198-0.006
				c-0.143-0.002-0.286-0.006-0.428-0.008c0-0.006-0.001-0.011-0.002-0.016c-0.014-0.057-0.027-0.096-0.013-0.152
				c0.005-0.026,0.011-0.05,0.02-0.074c0.005-0.016,0.016-0.036,0.017-0.051c0.002-0.015-0.007-0.031-0.012-0.043
				c0.003-0.011,0-0.02-0.006-0.024c0.096,0,0.192,0.001,0.288,0.001c0.09,0.003,0.181,0.002,0.272,0.004
				c0.272,0.006,0.542,0.021,0.813,0.036c0.006,0.009,0.011,0.017,0.02,0.022c0.021,0.012,0.046,0.004,0.061-0.016
				c0-0.001,0-0.001,0-0.001c0.479,0.026,0.959,0.051,1.438,0.011c0.032-0.002,0.061-0.02,0.076-0.047
				c0.003,0.003,0.003,0.003,0.005,0.002c0.007-0.002,0.015-0.005,0.021-0.01c0.01-0.008,0.021-0.018,0.024-0.03
				c0.009-0.021,0.021-0.04,0.03-0.06C12.176,60.785,12.188,60.785,12.201,60.787z M6.436,60.802c0.003,0,0.007,0,0.01,0.003
				c0.019,0.031,0.058,0.043,0.091,0.029c0.009,0.004,0.019,0.008,0.028,0.012l0.02,0.004c0.04,0.002,0.08,0.002,0.12,0.004
				c0.061,0.002,0.122,0.002,0.183,0.004c-0.002,0.024-0.004,0.049-0.004,0.068c-0.003,0.069,0.004,0.145-0.003,0.213
				c-0.003,0.029-0.005,0.065-0.013,0.096c-0.002,0.007-0.004,0.015-0.007,0.021c-0.009-0.016-0.019-0.032-0.029-0.048
				c-0.012-0.021-0.038-0.027-0.058-0.016c-0.02,0.014-0.027,0.039-0.015,0.06c0.012,0.019,0.023,0.039,0.036,0.058
				c-0.104,0.004-0.208,0.004-0.312,0.004c-0.027,0-0.052,0-0.079,0.002c0,0-0.001-0.002-0.002-0.002L6.38,61.297
				c0-0.003,0-0.005,0-0.008c0.006-0.008,0.01-0.02,0.009-0.03C6.39,61.25,6.39,61.24,6.39,61.23
				c0.009-0.021,0.024-0.031,0.019-0.068c-0.001-0.01-0.004-0.018-0.007-0.025L6.39,61.122l0.019-0.103
				c0.011-0.062,0.019-0.125,0.023-0.19c0-0.011,0-0.019,0.001-0.027C6.434,60.802,6.435,60.802,6.436,60.802z M7.036,60.859
				c0.283,0.008,0.568,0.015,0.851,0.016c0.133,0,0.265-0.001,0.397-0.002c-0.007,0.025-0.013,0.049-0.019,0.075
				c-0.01,0.045-0.012,0.104-0.017,0.151c-0.004,0.043-0.011,0.088-0.015,0.131c-0.018,0-0.035,0.002-0.053,0.004
				c-0.022-0.033-0.066-0.049-0.104-0.033c-0.017,0.008-0.031,0.021-0.041,0.035c-0.031,0.002-0.063,0.002-0.094,0.004
				c-0.113,0.003-0.227,0.01-0.339,0.016c-0.001-0.102,0.024-0.236,0.068-0.314c0.01-0.026-0.002-0.058-0.029-0.066
				c-0.026-0.01-0.056,0.004-0.066,0.029C7.57,60.919,7.564,60.934,7.56,60.95c-0.018,0.071-0.023,0.13-0.027,0.204
				c-0.001,0.033-0.003,0.07-0.003,0.106c-0.083,0.007-0.167,0.013-0.25,0.017c-0.083,0.008-0.169,0.021-0.25,0.029
				c-0.002,0-0.004,0.002-0.006,0.002c-0.034,0-0.069,0-0.104,0c0.005-0.021,0.013-0.039,0.018-0.059
				c0.006-0.021,0.01-0.044,0.015-0.066c0.003-0.012,0.004-0.027,0.006-0.041c0.01-0.059,0.017-0.115,0.026-0.172
				c0.004-0.027,0.006-0.053,0.008-0.078c0.001-0.013,0.001-0.021,0.003-0.033C7.01,60.859,7.023,60.859,7.036,60.859z M9.08,60.878
				c-0.048,0.019-0.052,0.056-0.065,0.099c-0.029,0.086-0.027,0.166,0,0.252c-0.234-0.002-0.469-0.002-0.703,0.002
				c0.01-0.09,0.032-0.18,0.044-0.27c0.004-0.027,0.005-0.059,0.007-0.087v-0.001c0.053,0,0.104,0,0.156,0
				c0.188-0.001,0.378-0.003,0.567-0.004C9.083,60.872,9.082,60.875,9.08,60.878z M6.402,61.312h0.002
				C6.4,61.311,6.396,61.309,6.39,61.307C6.394,61.307,6.398,61.309,6.402,61.312z M6.404,61.312L6.404,61.312L6.404,61.312
				L6.404,61.312z M9.752,61.438c0.132,0.004,0.266,0.008,0.398,0.017c-0.084,0.269-0.164,0.539-0.232,0.812
				c-0.055,0.215-0.101,0.438-0.139,0.657c-0.012,0.069-0.025,0.138-0.037,0.204c-0.006,0.037-0.012,0.074-0.019,0.107
				c-0.007,0.035-0.004,0.074-0.003,0.109c-0.027,0-0.053,0-0.08,0c-0.209,0.002-0.416,0.002-0.625-0.012
				c-0.028-0.002-0.057-0.005-0.085-0.007c-0.003-0.024-0.007-0.048-0.01-0.07c-0.016-0.116-0.036-0.231-0.055-0.349
				c0.008-0.012,0.016-0.024,0.024-0.036c-0.013,0.004-0.021,0.011-0.027,0.019c-0.002-0.012-0.003-0.021-0.005-0.031
				c-0.061-0.349-0.142-0.7-0.233-1.043c-0.018-0.063-0.045-0.133-0.07-0.194c-0.026-0.065-0.051-0.134-0.075-0.203
				c0.018,0,0.035,0,0.053,0.002C8.939,61.419,9.346,61.424,9.752,61.438z M8.394,61.423c-0.033,0.03-0.062,0.076-0.086,0.126
				c-0.016-0.045-0.033-0.087-0.05-0.13c0.047-0.001,0.094-0.001,0.141-0.001C8.397,61.419,8.396,61.422,8.394,61.423z
				 M8.203,61.768c-0.001,0-0.003,0.004-0.004,0.008c-0.006,0.011-0.002,0.023,0.008,0.029c0.003,0.004,0.007,0.004,0.011,0.004
				c0.068,0.209,0.132,0.42,0.194,0.633c-0.041,0.002-0.082,0.006-0.12,0.006c-0.105,0.001-0.209-0.006-0.313-0.01
				c-0.174-0.004-0.34-0.01-0.505,0.031c-0.031-0.076-0.064-0.15-0.096-0.227c0.075-0.075,0.153-0.148,0.229-0.223
				c0.073,0.056,0.15,0.104,0.235,0.142c0.084,0.039,0.174,0.054,0.265,0.062c0.032,0.004,0.062-0.021,0.064-0.055
				c0.003-0.033-0.021-0.062-0.054-0.064c-0.026-0.004-0.053-0.002-0.08-0.008c-0.022-0.004-0.053-0.012-0.075-0.019
				c-0.021-0.007-0.042-0.017-0.063-0.021c-0.013-0.006-0.03-0.014-0.042-0.02c-0.05-0.021-0.094-0.047-0.141-0.074
				c-0.012-0.007-0.022-0.014-0.034-0.021c0.076-0.076,0.149-0.157,0.217-0.242c0.053-0.068,0.096-0.141,0.132-0.217
				c0.009-0.021,0.021-0.043,0.026-0.062c0.006,0,0.012,0,0.018,0C8.12,61.534,8.165,61.648,8.203,61.768z M7.907,61.488
				c-0.025,0.046-0.055,0.101-0.084,0.144c-0.016,0.022-0.035,0.05-0.05,0.072c-0.014,0.021-0.033,0.044-0.049,0.063
				c-0.028,0.034-0.056,0.069-0.087,0.103c-0.008,0.009-0.017,0.019-0.025,0.026c-0.083-0.057-0.16-0.121-0.238-0.183
				c-0.023-0.019-0.046-0.038-0.069-0.056c-0.029-0.021-0.06-0.039-0.09-0.059c-0.039-0.024-0.077-0.049-0.117-0.068
				c0.024-0.012,0.042-0.033,0.044-0.061c0-0.008,0.001-0.013,0-0.019c0.026,0,0.052-0.001,0.078-0.003
				c0.061-0.002,0.122-0.01,0.183-0.012c0.178-0.004,0.356-0.013,0.534-0.017C7.928,61.445,7.918,61.467,7.907,61.488z
				 M10.453,61.471c-0.055,0.119-0.104,0.246-0.146,0.372c-0.027,0.032-0.055,0.063-0.084,0.095
				c-0.033,0.031-0.065,0.062-0.099,0.095c0.056-0.19,0.11-0.382,0.171-0.571C10.348,61.463,10.398,61.467,10.453,61.471z
				 M8.466,61.605c0.008,0.037,0.016,0.08,0.021,0.117c0.005,0.026,0.008,0.057,0.014,0.082c-0.017,0.021-0.03,0.055-0.031,0.074
				c0,0.007,0,0.012,0.001,0.018l-0.01,0.014c-0.008,0.011-0.016,0.021-0.021,0.031c-0.027-0.086-0.054-0.172-0.083-0.256
				c-0.009-0.024-0.017-0.049-0.025-0.074c0.03-0.057,0.064-0.109,0.105-0.146C8.448,61.514,8.458,61.561,8.466,61.605z
				 M10.834,61.484c0.247,0.004,0.495,0.007,0.743,0.011c-0.013,0.021-0.022,0.041-0.035,0.062
				c-0.007,0.018-0.017,0.034-0.024,0.051c-0.002-0.004-0.002-0.01-0.008-0.015c-0.016-0.028-0.054-0.038-0.08-0.022
				c-0.17,0.096-0.328,0.197-0.492,0.304c-0.021,0.013-0.043,0.026-0.062,0.04c-0.093-0.104-0.188-0.208-0.26-0.324
				c0.016-0.037,0.035-0.074,0.056-0.111C10.727,61.48,10.781,61.484,10.834,61.484z M7.299,61.768
				c0.083,0.065,0.161,0.139,0.245,0.205c-0.021,0.022-0.042,0.045-0.064,0.066c-0.044,0.044-0.09,0.089-0.135,0.134
				c-0.02-0.044-0.04-0.088-0.06-0.132c-0.077-0.162-0.157-0.318-0.24-0.479C7.136,61.623,7.209,61.691,7.299,61.768z
				 M10.594,61.688c0.061,0.096,0.129,0.184,0.19,0.277c0.001,0.001,0.001,0.003,0.004,0.004c-0.104,0.067-0.21,0.135-0.319,0.192
				c-0.025,0.014-0.049,0.032-0.072,0.048c-0.021,0.014-0.045,0.023-0.065,0.038c0.012-0.024,0.021-0.052,0.032-0.077
				c0.07-0.17,0.142-0.34,0.218-0.506C10.584,61.673,10.589,61.682,10.594,61.688z M11.361,61.925
				c-0.094,0.201-0.172,0.409-0.247,0.617c-0.009-0.015-0.025-0.024-0.044-0.026c-0.079-0.012-0.155-0.021-0.231-0.033
				c-0.106-0.021-0.209-0.045-0.317-0.057c-0.08-0.007-0.174-0.015-0.258-0.009c0.008-0.026,0.021-0.052,0.029-0.078
				c0.005,0,0.007-0.001,0.01-0.004c0.074-0.037,0.155-0.067,0.227-0.108c0.104-0.061,0.209-0.117,0.311-0.179
				c0.02,0.028,0.037,0.056,0.055,0.086c0.021,0.032,0.035,0.067,0.053,0.103c0.021,0.033,0.063,0.046,0.1,0.027
				c0.032-0.021,0.046-0.064,0.025-0.1c-0.039-0.061-0.083-0.117-0.131-0.172c0.037-0.021,0.072-0.041,0.109-0.062
				c0.143-0.082,0.284-0.168,0.43-0.248C11.438,61.762,11.398,61.844,11.361,61.925z M8.54,61.958
				c0.013,0.062,0.029,0.122,0.043,0.185c0.005,0.024,0.012,0.049,0.017,0.075c-0.001,0.005-0.004,0.011-0.005,0.017
				c-0.008,0.021-0.029,0.057-0.045,0.08c-0.024-0.082-0.046-0.164-0.072-0.248c-0.001-0.002-0.002-0.006-0.003-0.008
				c0.002-0.022,0.004-0.045,0.012-0.072c0.003-0.014,0.02-0.034,0.032-0.041l0.012-0.012c0.001,0,0.001-0.002,0.002-0.004
				C8.535,61.938,8.538,61.949,8.54,61.958z M10.159,62.3c-0.032,0.099-0.063,0.196-0.095,0.294c-0.01,0-0.017,0.002-0.025,0
				c-0.012-0.003-0.021,0.008-0.023,0.018c0,0.012,0.008,0.022,0.021,0.023c0.004,0.001,0.01,0.001,0.016,0.001
				c-0.004,0.009-0.007,0.019-0.01,0.027c-0.042,0.13-0.08,0.261-0.121,0.389c-0.031,0.097-0.064,0.193-0.091,0.289
				c0,0,0,0.001,0,0.003c-0.014,0-0.028,0-0.041,0c0.008-0.027,0.021-0.056,0.024-0.084c0.053-0.347,0.155-0.688,0.251-1.023
				c0.014-0.045,0.025-0.088,0.037-0.129c0.037-0.031,0.073-0.062,0.11-0.094c0.017-0.014,0.032-0.027,0.052-0.041
				C10.227,62.081,10.189,62.188,10.159,62.3z M8.637,62.396c0.01,0.045,0.019,0.09,0.028,0.135
				c-0.015,0.035-0.027,0.074-0.037,0.113c-0.004-0.024-0.01-0.052-0.015-0.076c-0.002-0.012-0.003-0.023-0.006-0.036
				c0.013-0.015,0.02-0.033,0.017-0.054c-0.004-0.024-0.021-0.045-0.041-0.052c-0.005-0.021-0.011-0.038-0.016-0.058
				c0.016-0.021,0.032-0.043,0.047-0.062c0,0,0.002-0.002,0.003-0.005C8.624,62.334,8.63,62.365,8.637,62.396z M10.42,62.518
				c0.025,0.002,0.061,0.008,0.086,0.016c0.039,0.012,0.086,0.021,0.124,0.029c0.101,0.021,0.2,0.045,0.3,0.062
				c0.043,0.008,0.084,0.012,0.125,0.018c0.01,0.002,0.019,0,0.026-0.002c-0.006,0.017-0.011,0.031-0.017,0.049
				c-0.021-0.016-0.047-0.019-0.068-0.006c-0.162,0.077-0.321,0.221-0.456,0.342c-0.113-0.155-0.215-0.322-0.321-0.482
				c0.006-0.014,0.008-0.025,0.012-0.037C10.293,62.501,10.352,62.506,10.42,62.518z M7.945,62.525
				c0.149,0.016,0.308,0.048,0.457,0.045c0.017,0,0.034-0.002,0.05-0.004c0.01,0.026,0.02,0.055,0.029,0.08
				c0.022,0.062,0.044,0.123,0.066,0.184c0.014,0.062,0.025,0.122,0.039,0.186c0.021,0.105,0.045,0.213,0.063,0.321
				c-0.115-0.067-0.231-0.135-0.35-0.196c-0.046-0.023-0.092-0.05-0.137-0.072c0.034-0.049,0.068-0.098,0.104-0.144
				c0.054-0.067,0.108-0.134,0.163-0.2c0.02-0.027,0.015-0.067-0.013-0.089C8.39,62.615,8.35,62.622,8.33,62.648
				c-0.054,0.074-0.104,0.156-0.153,0.234c-0.031,0.049-0.06,0.096-0.088,0.146c-0.062-0.031-0.123-0.064-0.184-0.098
				c-0.05-0.024-0.104-0.053-0.153-0.08c-0.022-0.014-0.046-0.021-0.069-0.031c-0.029-0.014-0.056-0.025-0.083-0.038
				c-0.008-0.022-0.018-0.046-0.027-0.068c-0.025-0.062-0.049-0.121-0.074-0.183c0.012-0.002,0.023-0.004,0.035-0.008
				c0.018-0.006,0.038-0.006,0.056-0.008C7.708,62.501,7.827,62.516,7.945,62.525z M10.271,62.711
				c0.074,0.119,0.144,0.241,0.215,0.362c-0.121,0.11-0.244,0.224-0.379,0.323c-0.004,0.004-0.01,0.006-0.017,0.012
				c-0.016-0.014-0.038-0.022-0.062-0.021c0.011-0.063,0.022-0.128,0.033-0.193c0.013-0.06,0.025-0.117,0.037-0.178
				c0.022-0.123,0.051-0.242,0.08-0.365c0.006-0.02,0.012-0.037,0.02-0.057C10.225,62.634,10.249,62.671,10.271,62.711z
				 M8.72,62.818c0.024,0.137,0.046,0.271,0.067,0.406c0.004,0.027,0.007,0.057,0.011,0.084c-0.011,0-0.023-0.002-0.033-0.002
				c-0.001-0.002-0.001-0.006-0.002-0.007c-0.044-0.188-0.081-0.377-0.117-0.565c0.002-0.004,0.004-0.006,0.005-0.01
				c0.006-0.039,0.016-0.078,0.03-0.115C8.694,62.68,8.707,62.749,8.72,62.818z M10.893,63.289
				c-0.015,0.047-0.025,0.093-0.037,0.138c-0.004,0.015-0.008,0.026-0.014,0.039c-0.025,0.079-0.052,0.157-0.074,0.236
				c-0.211,0.004-0.42,0.014-0.632,0.022h-0.003c0.003-0.01,0.006-0.021,0.006-0.029c0-0.047-0.037-0.086-0.084-0.086
				c-0.018,0-0.033,0-0.053,0c0.003-0.014,0.003-0.025,0.005-0.039c0.013-0.002,0.025-0.002,0.039-0.002
				c0.05-0.006,0.086-0.049,0.081-0.101c0,0,0-0.002-0.003-0.003c0.104-0.062,0.199-0.136,0.291-0.215
				c0.04-0.032,0.079-0.066,0.119-0.1c0.011,0.019,0.022,0.039,0.032,0.059c0.055,0.086,0.119,0.171,0.18,0.252
				c0.021,0.025,0.059,0.027,0.084,0.007s0.027-0.058,0.007-0.083c-0.032-0.035-0.069-0.072-0.103-0.111
				c-0.049-0.058-0.094-0.113-0.139-0.174c0.137-0.107,0.279-0.211,0.432-0.289C10.98,62.971,10.934,63.129,10.893,63.289z
				 M7.738,62.925c0.104,0.056,0.211,0.111,0.314,0.171c-0.072,0.133-0.138,0.269-0.194,0.409c-0.048-0.147-0.1-0.293-0.152-0.438
				c-0.025-0.069-0.051-0.14-0.077-0.209C7.665,62.881,7.701,62.902,7.738,62.925z M8.669,63.493
				c0.001,0.002,0.002,0.003,0.003,0.003c0.005,0.051,0.01,0.104,0.016,0.152c-0.011,0.015-0.022,0.027-0.031,0.041
				c-0.012,0.018-0.008,0.039,0.008,0.053c0.004,0.001,0.01,0.004,0.015,0.005c0.004,0.014,0.012,0.026,0.023,0.036
				c0.001,0.003,0.004,0.007,0.007,0.009c-0.052,0.003-0.103,0.005-0.153,0.004c-0.03,0-0.058,0.006-0.087,0.009
				c-0.056,0.004-0.114,0.008-0.17,0.014c-0.083,0.01-0.167,0.014-0.252,0.015L8.02,63.831l-0.01-0.004c-0.015,0-0.03,0-0.046,0
				c-0.002-0.009-0.005-0.017-0.007-0.022c-0.021-0.062-0.041-0.125-0.062-0.187c-0.003-0.009-0.006-0.019-0.008-0.027
				c0.047-0.118,0.095-0.229,0.161-0.341c0.022-0.038,0.046-0.078,0.071-0.115C8.31,63.246,8.49,63.361,8.669,63.493z M9.944,63.346
				C9.933,63.37,9.94,63.357,9.944,63.346L9.944,63.346z M8.765,63.46c0.008,0.024,0.017,0.05,0.025,0.077
				c-0.009,0.009-0.018,0.02-0.027,0.027c-0.002-0.028-0.004-0.059-0.007-0.088c0,0,0,0,0.001,0
				c0.003-0.006,0.006-0.012,0.003-0.018C8.761,63.46,8.763,63.46,8.765,63.46z M8.821,63.464c0.001,0.003,0.001,0.007,0.002,0.011
				c0.002,0.006,0.004,0.014,0.006,0.021c-0.003,0.002-0.006,0.005-0.008,0.009c0,0.001-0.001,0.001-0.002,0.002
				c-0.002-0.001-0.004-0.004-0.006-0.004l-0.005-0.017c-0.002-0.008-0.004-0.016-0.007-0.024
				C8.808,63.462,8.814,63.464,8.821,63.464z M8.968,63.503c0.039,0.005,0.077,0.011,0.115,0.015
				c-0.039,0.047-0.082,0.092-0.119,0.14c-0.009,0.011-0.017,0.022-0.024,0.032c-0.027-0.004-0.054-0.006-0.081-0.01
				c0.004-0.01-0.002-0.033-0.006-0.043l-0.011-0.027l-0.004-0.014v-0.002c0.005-0.005,0.009-0.01,0.014-0.015
				c0.004,0.017,0.008,0.03,0.012,0.047c0.002,0.022,0.021,0.038,0.043,0.036c0.022-0.003,0.038-0.021,0.035-0.045
				c0-0.043,0.003-0.084,0.003-0.125c0.001,0,0.001,0,0.001,0C8.95,63.501,8.959,63.503,8.968,63.503z M9.336,63.531
				c-0.042,0.043-0.08,0.097-0.112,0.14c-0.011,0.013-0.02,0.026-0.03,0.04c-0.06-0.004-0.121-0.009-0.182-0.016
				C9.054,63.646,9.1,63.6,9.141,63.559c0.011-0.013,0.021-0.022,0.032-0.035C9.228,63.525,9.282,63.527,9.336,63.531z
				 M9.637,63.562c-0.031,0.033-0.062,0.067-0.092,0.101c-0.004,0-0.009,0.002-0.014,0.002c-0.077,0.017-0.157,0.037-0.236,0.051
				c-0.007,0-0.013-0.001-0.019-0.001c0.047-0.054,0.09-0.104,0.146-0.15c0.008-0.008,0.017-0.015,0.026-0.021
				C9.509,63.551,9.572,63.559,9.637,63.562z M9.75,63.572c-0.002,0.012-0.007,0.023-0.009,0.035
				c-0.003,0.007-0.003,0.014-0.003,0.02C9.718,63.63,9.7,63.632,9.68,63.635c-0.01,0-0.022,0.002-0.034,0.006
				c0.016-0.015,0.031-0.026,0.044-0.039c0.01-0.011,0.02-0.02,0.029-0.031C9.729,63.572,9.741,63.572,9.75,63.572z M9.887,63.579
				c0.004,0,0.008,0,0.012-0.001c-0.022,0.009-0.034,0.021-0.045,0.037c-0.007,0.002-0.014,0.002-0.019,0.002
				c0.004-0.014,0.008-0.026,0.012-0.04C9.861,63.578,9.875,63.579,9.887,63.579z M8.823,63.635
				c0.001,0.006,0.005,0.022,0.011,0.035l0.003,0.007c-0.022-0.002-0.043-0.005-0.065-0.009c0-0.01,0.021-0.033,0.043-0.054
				C8.818,63.621,8.82,63.628,8.823,63.635z M10.703,63.92c-0.028,0.098-0.059,0.196-0.089,0.295
				c-0.019-0.014-0.039-0.025-0.058-0.043c-0.082-0.081-0.146-0.162-0.242-0.229c-0.021-0.014-0.049-0.008-0.062,0.014
				c0,0-0.003,0.001-0.003,0.002c-0.013-0.023-0.051-0.044-0.071-0.049h-0.029c-0.008,0.003-0.017,0.006-0.028,0.01
				c-0.05,0.021-0.077,0.043-0.112,0.087c-0.06,0.071-0.1,0.183-0.138,0.265c-0.006,0.017-0.015,0.035-0.024,0.054
				c-0.039,0.003-0.077,0.006-0.117,0.009c-0.061-0.055-0.117-0.127-0.163-0.191c-0.011-0.016-0.026-0.039-0.034-0.055
				c-0.011-0.02-0.037-0.025-0.056-0.014c-0.019,0.011-0.025,0.035-0.014,0.056c0.012,0.024,0.031,0.052,0.045,0.076
				c0.027,0.046,0.058,0.093,0.089,0.138c-0.079,0.006-0.158,0.01-0.237,0.014c-0.052-0.002-0.104-0.004-0.156-0.008
				c-0.022,0-0.044,0-0.067-0.002c0.039-0.07,0.084-0.137,0.144-0.197c0.022-0.022,0.093-0.084,0.126-0.094
				c0.03-0.021,0.039-0.062,0.019-0.091c-0.02-0.03-0.06-0.038-0.09-0.021C9.23,64.021,9.16,64.121,9.1,64.234
				c-0.018,0.033-0.038,0.07-0.052,0.105c-0.024-0.002-0.047-0.003-0.071-0.005c-0.001-0.003-0.003-0.005-0.006-0.008
				c-0.028-0.026-0.055-0.058-0.083-0.084c-0.08-0.075-0.166-0.14-0.22-0.237c-0.01-0.017-0.017-0.039-0.024-0.055
				c-0.002-0.006-0.004-0.008-0.008-0.012c0.001,0,0.002,0,0.002,0c0.099,0,0.202-0.002,0.3-0.008
				c0.035-0.002,0.069-0.005,0.104-0.006c0,0.001,0,0.001-0.001,0.002c-0.009,0.014-0.006,0.03,0.006,0.038
				c0.012,0.009,0.03,0.009,0.039-0.006c0.006-0.01,0.017-0.022,0.027-0.036c0.042-0.001,0.085-0.004,0.127-0.005
				c0.188-0.008,0.378-0.019,0.567-0.028c0.304-0.019,0.61-0.035,0.916-0.039C10.717,63.874,10.709,63.896,10.703,63.92z
				 M8.181,63.913c0.079,0.009,0.162,0.019,0.241,0.021c0.031,0.002,0.065,0.004,0.096,0.01c0.022,0,0.047,0,0.072,0
				c-0.008,0.009-0.011,0.021-0.006,0.033c0.035,0.103,0.116,0.198,0.188,0.277c0.021,0.023,0.044,0.047,0.066,0.07
				c-0.027-0.002-0.054-0.006-0.081-0.008c-0.049-0.004-0.099-0.01-0.147-0.017c-0.051-0.005-0.098-0.013-0.149-0.015
				c-0.03-0.003-0.058,0.018-0.061,0.048c-0.004,0.03,0.017,0.058,0.047,0.062c0.007,0.002,0.013,0.004,0.02,0.004
				c-0.101,0.008-0.201,0.015-0.301,0.022c0.001,0,0.002-0.001,0.004-0.002c0.018-0.009,0.036-0.021,0.053-0.028
				c0.014-0.009,0.03-0.021,0.042-0.031c0.048-0.036,0.088-0.07,0.133-0.111c0.043-0.04,0.087-0.076,0.128-0.117
				c0.022-0.021,0.024-0.059,0.002-0.08c-0.021-0.023-0.059-0.025-0.082-0.002c-0.065,0.053-0.111,0.131-0.171,0.19
				c-0.044,0.045-0.083,0.077-0.137,0.11c-0.007,0.006-0.016,0.01-0.025,0.014c-0.002-0.01-0.005-0.02-0.008-0.028
				c-0.006-0.046-0.013-0.092-0.024-0.137c-0.009-0.04-0.022-0.078-0.034-0.117c0-0.001,0-0.003,0-0.003
				c0.002-0.016-0.004-0.032-0.016-0.042c0-0.002,0-0.002,0-0.003C8.015,63.986,8,63.939,7.984,63.893
				C8.051,63.9,8.116,63.907,8.181,63.913z M10.264,64.02c0.064,0.039,0.094,0.086,0.141,0.142c0.015,0.019,0.027,0.039,0.041,0.056
				c0.047,0.053,0.072,0.085,0.134,0.124c0,0.001,0,0.001,0,0.001c-0.003,0.012-0.009,0.023-0.011,0.036
				c-0.062,0.008-0.125,0.015-0.186,0.019c-0.033,0.004-0.068,0.006-0.104,0.008c-0.02,0-0.037-0.002-0.059-0.002
				c0.006-0.002,0.014-0.004,0.021-0.004c0.029-0.004,0.051-0.031,0.046-0.062c-0.004-0.029-0.03-0.051-0.062-0.048
				c-0.053,0.002-0.099,0.01-0.148,0.015c-0.051,0.006-0.104,0.014-0.155,0.018c0.002-0.002,0.003-0.006,0.004-0.008
				c0.043-0.076,0.087-0.166,0.15-0.228c0.016-0.017,0.055-0.046,0.075-0.051c0.01-0.003,0.027-0.011,0.037-0.013
				c0.015-0.01,0.035-0.031,0.052-0.045C10.24,63.991,10.247,64.01,10.264,64.02z M10.645,64.336l0.008,0.01
				c0,0.004-0.002,0.006-0.002,0.01c-0.004-0.004-0.008-0.006-0.01-0.01c0.002-0.003,0.006-0.005,0.01-0.007L10.645,64.336z
				 M10.659,64.364c-0.005,0.001-0.011,0.001-0.015,0.003c0.002-0.004,0.002-0.008,0.004-0.012
				C10.65,64.359,10.656,64.361,10.659,64.364z M8.046,64.434c-0.001,0-0.002,0-0.003,0.002c0-0.004-0.001-0.008-0.002-0.011
				C8.042,64.428,8.044,64.432,8.046,64.434z M8.043,64.436c0,0.008-0.001,0.013-0.004,0C8.041,64.436,8.042,64.436,8.043,64.436z
				 M8.092,64.534c0.015,0.057,0.029,0.11,0.043,0.167c-0.018,0.009-0.03,0.027-0.032,0.048c-0.005-0.001-0.009-0.002-0.014-0.002
				c-0.038-0.006-0.075-0.011-0.112-0.017l0.015-0.114C7.996,64.587,8,64.559,8.003,64.527c0.018-0.002,0.037-0.004,0.056-0.006
				C8.068,64.529,8.08,64.535,8.092,64.534z M8.721,64.546c0.353,0.013,0.706,0.03,1.059,0.037c0.16,0.003,0.33,0.006,0.492-0.001
				c0.095-0.005,0.188-0.016,0.283-0.023c-0.019,0.043-0.033,0.09-0.051,0.135c-0.206,0.015-0.412,0.029-0.617,0.043
				c-0.003-0.004-0.005-0.006-0.009-0.008c-0.016-0.008-0.036-0.013-0.054-0.011c-0.014,0.003-0.028,0.007-0.04,0.015L9.775,64.74
				H9.773h0.001c-0.008-0.012-0.024-0.018-0.037-0.012c-0.006,0.002-0.012,0.006-0.015,0.012c-0.01,0-0.021,0.004-0.03,0.009
				c-0.093,0.006-0.186,0.012-0.261,0.017c-0.033,0.002-0.065,0-0.097-0.002c-0.039-0.005-0.079-0.009-0.117-0.014
				c-0.022-0.004-0.045-0.008-0.066-0.01c-0.011,0-0.03,0-0.04,0c-0.005-0.001-0.012-0.006-0.017-0.006
				c-0.015,0-0.031,0.002-0.047,0.002c-0.013,0-0.027,0.003-0.04,0.014c-0.002,0-0.004,0-0.005,0C9,64.747,9,64.744,9,64.742
				c-0.002-0.029-0.03-0.051-0.059-0.049c-0.026,0.004-0.046,0.023-0.048,0.049c-0.004,0-0.009-0.001-0.014-0.001
				c-0.232-0.013-0.463-0.033-0.695-0.048c-0.011-0.032-0.023-0.064-0.036-0.096c-0.009-0.021-0.018-0.043-0.026-0.063
				C8.322,64.532,8.522,64.539,8.721,64.546z M10.723,64.668c0,0.009-0.004,0.02-0.006,0.027c-0.003,0.009,0,0.017,0.006,0.023
				c0,0.004,0,0.008,0,0.012c-0.043,0.006-0.088,0.011-0.129,0.017c-0.002,0.001-0.007,0.001-0.01,0.002
				c-0.001-0.022-0.018-0.041-0.034-0.05c0.015-0.049,0.025-0.098,0.039-0.146c0.032-0.003,0.065-0.007,0.099-0.011
				c0.011-0.002,0.024-0.004,0.035-0.006C10.727,64.582,10.727,64.626,10.723,64.668z M10.832,64.802v0.003V64.802z M10.832,64.805
				v0.012C10.83,64.816,10.83,64.818,10.832,64.805L10.832,64.805z M10.732,64.833c-0.015,0.004-0.027,0.009-0.041,0.013
				c-0.018,0.004-0.035,0.008-0.055,0.014c-0.003-0.002-0.005-0.004-0.008-0.004c-0.021-0.01-0.047,0-0.061,0.021
				c-0.021,0.005-0.043,0.012-0.063,0.018c0.005-0.018,0.007-0.031,0.013-0.049c0.017-0.002,0.033-0.003,0.049-0.005
				c0.053-0.005,0.105-0.012,0.156-0.021C10.727,64.824,10.73,64.83,10.732,64.833z M10.425,64.916
				c-0.028,0.012-0.042,0.042-0.034,0.07c0.002,0.008,0.006,0.014,0.006,0.02c-0.011,0.042-0.021,0.086-0.03,0.126
				c-0.031,0.116-0.06,0.231-0.077,0.348c-0.012-0.017-0.021-0.033-0.036-0.053c-0.04-0.058-0.079-0.106-0.123-0.161
				c-0.019-0.02-0.034-0.041-0.052-0.061c0.029-0.029,0.059-0.057,0.088-0.084c0.038-0.034,0.075-0.074,0.111-0.103
				c0.025-0.025,0.027-0.065,0.002-0.09c-0.022-0.025-0.062-0.025-0.088-0.002c-0.029,0.025-0.06,0.061-0.086,0.088
				c-0.032,0.035-0.064,0.072-0.099,0.108c-0.037-0.047-0.075-0.095-0.109-0.146c0.004-0.017,0.009-0.033,0.007-0.05l-0.001-0.013
				l0.012-0.004c0.009-0.006,0.018-0.014,0.024-0.023c0.021-0.001,0.042-0.002,0.064-0.002c0.081-0.003,0.169-0.007,0.25-0.015
				c0.064-0.007,0.127-0.013,0.191-0.021C10.439,64.874,10.432,64.895,10.425,64.916z M8.412,64.87
				c0.103,0.011,0.208,0.013,0.312,0.019c0.061,0.004,0.122,0.006,0.183,0.006c0.044,0.416,0.099,0.831,0.15,1.246
				c-0.044-0.042-0.087-0.085-0.129-0.129c-0.037-0.038-0.069-0.079-0.107-0.116c-0.019-0.019-0.038-0.039-0.056-0.058
				c0.006-0.012,0.013-0.024,0.021-0.035c0.04-0.064,0.082-0.132,0.125-0.197c0.007,0.004,0.014,0.008,0.021,0.013
				c0.019,0.014,0.045,0.01,0.059-0.009C9.004,65.59,9,65.564,8.981,65.55c-0.006-0.006-0.012-0.011-0.02-0.016
				c0.003-0.004,0.006-0.008,0.009-0.011c0.006-0.008,0.004-0.02-0.004-0.026c-0.008-0.005-0.02-0.003-0.025,0.005
				c-0.003,0.001-0.005,0.006-0.008,0.01c-0.005-0.004-0.011-0.008-0.017-0.013c-0.038-0.029-0.08-0.065-0.114-0.097
				c-0.033-0.03-0.065-0.062-0.096-0.093c-0.031-0.031-0.062-0.061-0.093-0.092c0.007-0.008,0.016-0.017,0.024-0.024
				c0.04-0.041,0.118-0.119,0.17-0.141C8.83,65.035,8.836,65,8.819,64.979c-0.017-0.022-0.05-0.028-0.074-0.013
				c-0.054,0.033-0.128,0.128-0.168,0.178c-0.006,0.007-0.012,0.015-0.017,0.022c-0.094-0.094-0.183-0.189-0.279-0.279
				c0.01-0.008,0.017-0.017,0.022-0.027C8.338,64.861,8.375,64.866,8.412,64.87z M9.317,64.914c0.042,0.002,0.087,0.006,0.129,0.01
				c0.023,0.001,0.048,0.001,0.072,0.001h0.146c-0.025,0.186-0.05,0.374-0.075,0.561l0.002-0.011l-0.006,0.028
				c-0.002,0.009-0.004,0.018-0.006,0.026v0.001c-0.02,0.014-0.025,0.041-0.012,0.061c-0.008,0.037-0.015,0.074-0.022,0.11
				c-0.022,0.12-0.039,0.241-0.062,0.362c-0.021,0.121-0.04,0.247-0.056,0.37c-0.01,0.079-0.022,0.159-0.029,0.238L9.371,66.97
				l-0.006-0.081c-0.004-0.053-0.008-0.106-0.015-0.16c-0.008-0.064-0.015-0.128-0.022-0.193c-0.01-0.086-0.023-0.172-0.037-0.258
				c-0.012-0.077-0.025-0.16-0.043-0.239l-0.019-0.071l-0.024-0.256c-0.007-0.085-0.013-0.173-0.021-0.259
				c-0.009-0.092-0.017-0.183-0.027-0.275c-0.003-0.033-0.007-0.072-0.014-0.104c-0.009-0.044-0.015-0.087-0.023-0.132l-0.009-0.047
				l0.001,0.002c0.027,0,0.055,0,0.083-0.002C9.234,64.9,9.276,64.907,9.317,64.914z M8.518,65.225
				c-0.024,0.033-0.047,0.068-0.072,0.102c-0.016,0.022-0.033,0.045-0.049,0.067c-0.002-0.004-0.004-0.007-0.006-0.009
				c-0.003-0.013-0.005-0.024-0.008-0.035C8.354,65.232,8.321,65.116,8.289,65c-0.004-0.014-0.007-0.023-0.011-0.037
				C8.362,65.047,8.44,65.135,8.518,65.225z M10.453,65.151c0.009-0.042,0.016-0.082,0.023-0.123c0.01-0.003,0.021-0.006,0.03-0.007
				C10.489,65.063,10.473,65.107,10.453,65.151z M9.949,65.188c-0.023,0.026-0.047,0.051-0.071,0.075
				c-0.023,0.024-0.049,0.048-0.072,0.072c0.007-0.032,0.012-0.063,0.019-0.095l0.004-0.026l0.004-0.015
				c0.012-0.044,0.023-0.088,0.038-0.132C9.896,65.108,9.922,65.148,9.949,65.188z M8.637,65.361
				c0.023,0.026,0.052,0.051,0.077,0.077c0.053,0.051,0.105,0.099,0.163,0.144c-0.054,0.067-0.108,0.133-0.165,0.2
				c-0.068-0.073-0.134-0.147-0.196-0.226c-0.031-0.039-0.06-0.079-0.088-0.119c0.044-0.056,0.088-0.11,0.134-0.163
				C8.586,65.303,8.611,65.332,8.637,65.361z M10.04,65.321c0.041,0.058,0.079,0.117,0.121,0.174
				c0.017,0.024,0.034,0.055,0.053,0.075c0.017,0.015,0.035,0.029,0.054,0.042c-0.002,0.028-0.007,0.058-0.01,0.087
				c-0.009,0.031-0.018,0.062-0.025,0.094c-0.031,0.129-0.068,0.256-0.1,0.386c-0.023-0.033-0.05-0.066-0.072-0.101
				c-0.021-0.033-0.045-0.064-0.067-0.098c-0.008-0.012-0.015-0.024-0.022-0.036c0.073-0.06,0.148-0.119,0.224-0.172
				c0.023-0.019,0.029-0.054,0.011-0.078c-0.019-0.023-0.054-0.028-0.076-0.009c-0.057,0.049-0.11,0.094-0.165,0.145
				c-0.015,0.012-0.027,0.024-0.041,0.037c-0.02-0.033-0.042-0.073-0.054-0.103c-0.015-0.033-0.03-0.064-0.044-0.097
				c-0.021-0.05-0.038-0.1-0.053-0.151c0.001-0.009,0.003-0.019,0.005-0.027c0.055-0.049,0.109-0.098,0.165-0.149
				c0.022-0.021,0.044-0.042,0.066-0.064C10.02,65.29,10.029,65.306,10.04,65.321z M8.446,65.525
				c0.048,0.072,0.095,0.148,0.146,0.22c0.022,0.033,0.044,0.066,0.067,0.098c-0.01,0.014-0.02,0.03-0.03,0.045
				c-0.036,0.051-0.068,0.105-0.1,0.158c-0.003,0.003-0.005,0.009-0.008,0.013c-0.01-0.061-0.021-0.12-0.032-0.18
				c-0.024-0.128-0.047-0.259-0.084-0.415c0,0,0,0,0.001,0C8.42,65.484,8.433,65.504,8.446,65.525z M9.879,65.909
				c-0.069,0.064-0.136,0.129-0.206,0.192c0.004-0.027,0.008-0.052,0.011-0.078c0.023-0.144,0.046-0.284,0.072-0.425
				C9.792,65.705,9.831,65.807,9.879,65.909z M8.751,65.971c0.064,0.074,0.136,0.151,0.207,0.217
				c0.023,0.022,0.048,0.045,0.072,0.067c-0.001,0.001-0.002,0.002-0.002,0.003c-0.021,0.026-0.042,0.053-0.063,0.079
				c-0.019,0.024-0.035,0.049-0.052,0.074c-0.023,0.033-0.047,0.066-0.071,0.099c-0.06-0.052-0.123-0.102-0.195-0.141
				c-0.026-0.014-0.052-0.025-0.079-0.036c-0.006-0.038-0.012-0.076-0.019-0.114c0-0.001,0.001-0.002,0.001-0.004
				c0.009-0.031,0.031-0.077,0.048-0.105c0.037-0.067,0.072-0.128,0.114-0.19C8.725,65.937,8.738,65.955,8.751,65.971z
				 M9.938,66.025c0.037,0.071,0.076,0.14,0.117,0.21c0.008,0.013,0.016,0.026,0.023,0.039c-0.016,0.01-0.029,0.021-0.045,0.031
				c-0.058,0.044-0.115,0.089-0.171,0.135c-0.038-0.05-0.078-0.095-0.127-0.131c-0.025-0.019-0.056-0.04-0.084-0.055
				c0.002-0.015,0.004-0.028,0.007-0.043c0.038-0.031,0.077-0.063,0.113-0.095c0.049-0.042,0.098-0.084,0.147-0.127
				C9.923,66.001,9.931,66.013,9.938,66.025z M9.655,66.313c0.023,0.016,0.043,0.032,0.064,0.051
				c0.035,0.031,0.065,0.077,0.091,0.121c-0.088,0.076-0.171,0.155-0.248,0.24c0.017-0.083,0.034-0.167,0.052-0.248
				c0.013-0.057,0.02-0.113,0.029-0.171C9.647,66.308,9.65,66.311,9.655,66.313z M9.135,66.785c-0.054-0.052-0.11-0.104-0.165-0.155
				c-0.025-0.024-0.05-0.048-0.076-0.072c0.042-0.047,0.082-0.094,0.123-0.14c0.022-0.025,0.043-0.054,0.064-0.081
				C9.101,66.487,9.118,66.636,9.135,66.785z M8.645,66.446c0.053,0.032,0.104,0.077,0.151,0.127
				c-0.005,0.006-0.009,0.013-0.014,0.02c-0.039,0.053-0.082,0.102-0.124,0.153c-0.008,0.01-0.016,0.019-0.024,0.028
				c-0.012-0.088-0.025-0.177-0.039-0.265c-0.005-0.033-0.01-0.066-0.016-0.1C8.603,66.421,8.623,66.433,8.645,66.446z
				 M10.041,66.627c-0.004,0.026-0.01,0.053-0.018,0.08c-0.033-0.06-0.067-0.123-0.105-0.182c0.055-0.039,0.111-0.076,0.165-0.108
				C10.068,66.486,10.055,66.556,10.041,66.627z M9.994,66.827c0.002,0.005,0.006,0.009,0.008,0.014
				c-0.009,0.057-0.019,0.115-0.028,0.172c-0.063,0.039-0.123,0.084-0.183,0.131c-0.028-0.033-0.057-0.065-0.084-0.096
				c-0.054-0.061-0.104-0.125-0.154-0.189c0.078-0.099,0.187-0.199,0.302-0.288C9.902,66.656,9.947,66.742,9.994,66.827z
				 M8.976,66.779c0.021,0.023,0.042,0.044,0.063,0.065c-0.004,0.021-0.008,0.04-0.015,0.059c-0.009,0.026-0.02,0.057-0.031,0.082
				c-0.01,0.022-0.023,0.044-0.033,0.066c-0.017,0.038-0.048,0.086-0.071,0.122c-0.021,0.032-0.041,0.063-0.061,0.096
				c-0.053-0.074-0.105-0.147-0.156-0.222c-0.009-0.071-0.019-0.142-0.029-0.212c0.041-0.04,0.081-0.079,0.118-0.122
				c0.027-0.03,0.053-0.061,0.08-0.092C8.888,66.675,8.933,66.731,8.976,66.779z M9.182,67.24c0.017,0.173,0.025,0.349,0.036,0.522
				c0.003,0.057,0.009,0.113,0.012,0.169c0.003,0.06,0.003,0.119,0.004,0.179c-0.045-0.031-0.092-0.061-0.134-0.095
				c-0.07-0.057-0.133-0.114-0.192-0.174c0.018-0.018,0.034-0.036,0.053-0.053c0.04-0.039,0.078-0.072,0.119-0.102
				c0.008,0.007,0.016,0.016,0.024,0.023c0.02,0.018,0.051,0.016,0.069-0.004c0.018-0.021,0.016-0.052-0.005-0.07
				c0,0-0.001-0.001-0.003-0.002c0.005-0.002,0.009-0.005,0.014-0.007c0.024-0.014,0.033-0.045,0.02-0.069
				c-0.013-0.023-0.044-0.032-0.069-0.019c-0.014,0.007-0.029,0.016-0.045,0.026c-0.022-0.02-0.045-0.042-0.064-0.062
				s-0.038-0.042-0.057-0.063c-0.021-0.021-0.042-0.047-0.063-0.073C8.933,67.3,8.968,67.231,9,67.164
				c0.024-0.05,0.053-0.105,0.07-0.157c0.009-0.027,0.019-0.054,0.028-0.08c0.003-0.01,0.005-0.02,0.007-0.029
				c0.014,0.003,0.029,0.001,0.042-0.006C9.16,67.007,9.171,67.123,9.182,67.24z M9.712,67.145c0.01,0.013,0.019,0.026,0.029,0.04
				c-0.002,0.001-0.006,0.004-0.008,0.006c-0.085,0.067-0.166,0.135-0.25,0.199c0.004-0.036,0.007-0.073,0.011-0.108l0.036-0.376
				v-0.002C9.59,66.983,9.652,67.063,9.712,67.145z M9.942,67.217c-0.004,0.031-0.009,0.062-0.014,0.094
				c-0.011-0.015-0.023-0.03-0.034-0.044c-0.016-0.02-0.033-0.041-0.049-0.061c0.036-0.026,0.073-0.049,0.111-0.071
				C9.951,67.162,9.947,67.19,9.942,67.217z M8.794,67.325c-0.027,0.047-0.051,0.094-0.071,0.144
				c-0.005,0.012-0.006,0.024-0.001,0.035c0.005-0.014-0.015-0.18-0.037-0.346C8.722,67.213,8.757,67.27,8.794,67.325z
				 M9.909,67.442c-0.008,0.057-0.015,0.113-0.022,0.169c-0.06,0.023-0.132,0.067-0.173,0.096c-0.044,0.032-0.088,0.067-0.131,0.1
				c-0.035-0.042-0.07-0.086-0.106-0.129c-0.006-0.007-0.016-0.009-0.024-0.006c0.008-0.065,0.015-0.13,0.022-0.196
				c0.025-0.018,0.051-0.038,0.074-0.055c0.08-0.056,0.157-0.117,0.237-0.175C9.829,67.311,9.869,67.376,9.909,67.442z M9.015,67.62
				c-0.033,0.028-0.065,0.058-0.09,0.083c-0.025,0.025-0.049,0.05-0.074,0.077c-0.038-0.043-0.074-0.088-0.109-0.138
				c0-0.001-0.001-0.001-0.002,0c0.02,0.156,0.02,0.146-0.016-0.125c0.005,0.013,0.015,0.024,0.029,0.031
				c0.029,0.013,0.064,0,0.078-0.029c0.012-0.028,0.025-0.056,0.039-0.084C8.914,67.497,8.961,67.56,9.015,67.62z M9.549,67.832
				c-0.041,0.03-0.082,0.06-0.125,0.085c0.001-0.018,0.002-0.037,0.003-0.056c0.002-0.007,0.004-0.018,0.005-0.031c0,0,0,0,0,0.001
				c0-0.001,0-0.001,0-0.001c0.007-0.031,0.009-0.078,0.012-0.103c0.001-0.007,0.001-0.014,0.002-0.021
				C9.482,67.747,9.516,67.79,9.549,67.832z M8.816,67.816c-0.017,0.019-0.033,0.038-0.049,0.058
				c-0.001-0.021-0.004-0.042-0.006-0.062l-0.01-0.081C8.772,67.76,8.794,67.789,8.816,67.816z M9.835,68.047
				c-0.004,0.027-0.007,0.054-0.009,0.081c-0.018-0.025-0.037-0.049-0.056-0.074c-0.045-0.061-0.09-0.121-0.136-0.179
				c0.002-0.001,0.002-0.002,0.004-0.003c0.083-0.056,0.148-0.099,0.23-0.13C9.856,67.843,9.845,67.945,9.835,68.047z M9.433,67.83
				C9.434,67.835,9.434,67.835,9.433,67.83c-0.001-0.003-0.002-0.007-0.003-0.009c0-0.002,0.001-0.004,0.001-0.006
				C9.431,67.82,9.432,67.825,9.433,67.83z M9.345,67.903c-0.001,0.019-0.002,0.036-0.003,0.055c-0.008-0.006-0.019-0.01-0.031-0.01
				H9.307c0-0.022,0-0.044,0-0.067C9.317,67.892,9.331,67.9,9.345,67.903z M9.086,68.102c0.037,0.031,0.074,0.066,0.113,0.093
				c0.02,0.015,0.049,0.01,0.063-0.01c0.005-0.007,0.008-0.016-0.004-0.024c0,0.004,0.002,0.005,0.005,0.006
				c0,0.009,0,0.017,0,0.025c0,0.026,0,0.052-0.002,0.079c-0.005,0.007-0.006,0.018-0.001,0.027c0,0,0,0,0,0.001
				c-0.004,0.146-0.009,0.293-0.009,0.439H9.25c0,0.001-0.001,0.002-0.002,0.003c-0.003-0.003-0.007-0.007-0.009-0.011
				c-0.05-0.06-0.1-0.119-0.149-0.179c-0.022-0.028-0.045-0.056-0.068-0.084c0.047-0.072,0.105-0.124,0.204-0.119
				c0.015,0,0.027-0.012,0.028-0.026c0-0.015-0.012-0.027-0.026-0.027c-0.112-0.004-0.189,0.042-0.256,0.113
				c-0.053-0.063-0.109-0.126-0.167-0.182c-0.008-0.086-0.017-0.171-0.026-0.255c0.03-0.031,0.06-0.062,0.09-0.09
				C8.937,67.958,9.008,68.033,9.086,68.102z M9.63,67.944c0.064,0.096,0.124,0.192,0.185,0.29
				c-0.002,0.026-0.005,0.052-0.008,0.078c-0.003,0.001-0.008,0.002-0.011,0.005c-0.072,0.037-0.141,0.091-0.206,0.139
				c-0.035,0.025-0.069,0.051-0.104,0.079c-0.044-0.057-0.088-0.114-0.129-0.174c0.002-0.058,0.004-0.117,0.004-0.175
				c0-0.048,0-0.096,0-0.144c0.004,0.003,0.01,0.004,0.016,0.005c0.021,0,0.041-0.016,0.042-0.038l0,0
				c0.01-0.006,0.02-0.01,0.031-0.016c0.023-0.013,0.045-0.028,0.069-0.041c0.026-0.015,0.054-0.035,0.081-0.053
				C9.609,67.915,9.619,67.929,9.63,67.944z M8.873,68.358c0.022,0.028,0.045,0.056,0.067,0.084
				c-0.018,0.021-0.034,0.042-0.051,0.066c-0.016,0.021-0.036,0.047-0.054,0.073c-0.002-0.028-0.004-0.054-0.006-0.08
				c-0.006-0.073-0.012-0.145-0.019-0.217C8.833,68.31,8.854,68.335,8.873,68.358z M9.753,68.878
				c-0.012-0.017-0.022-0.034-0.034-0.051c-0.032-0.049-0.081-0.101-0.117-0.147c-0.023-0.028-0.046-0.057-0.069-0.085
				c0.049-0.033,0.096-0.065,0.145-0.096c0.038-0.024,0.077-0.047,0.117-0.071C9.78,68.577,9.766,68.727,9.753,68.878z
				 M9.438,68.574c-0.03,0.025-0.059,0.049-0.088,0.075c0.001-0.067,0.004-0.135,0.006-0.202C9.382,68.49,9.41,68.531,9.438,68.574z
				 M9.193,68.795c-0.002,0.002-0.005,0.005-0.007,0.007c-0.012,0.013-0.012,0.033,0,0.045c0.012,0.013,0.032,0.013,0.045,0l0,0
				c0.003,0.005,0.008,0.009,0.011,0.015c0,0-0.001,0.002-0.002,0.002s-0.003,0.002-0.005,0.003
				c-0.001,0.002-0.002,0.004-0.004,0.006c-0.073,0.068-0.141,0.146-0.202,0.222c-0.024-0.027-0.047-0.053-0.071-0.081
				c-0.034-0.041-0.066-0.082-0.098-0.123c-0.006-0.063-0.011-0.127-0.016-0.19c0.028,0.011,0.061,0,0.076-0.027
				c0.018-0.048,0.041-0.098,0.064-0.145c0.003-0.005,0.007-0.011,0.009-0.016C9.062,68.605,9.125,68.702,9.193,68.795z
				 M9.621,68.871c0.025,0.042,0.056,0.085,0.083,0.127c0.004,0.007,0.009,0.013,0.016,0.017c-0.054,0.038-0.105,0.081-0.16,0.118
				c-0.018,0.012-0.037,0.024-0.054,0.036c-0.008,0.006-0.016,0.012-0.024,0.018c-0.002-0.004-0.005-0.008-0.007-0.012
				c-0.031-0.047-0.061-0.098-0.093-0.144c-0.009-0.013-0.018-0.026-0.028-0.039c0-0.036-0.001-0.072-0.002-0.108
				c0.01-0.009,0.02-0.018,0.03-0.026c0.018-0.016,0.021-0.044,0.005-0.063c-0.01-0.01-0.024-0.015-0.037-0.015
				c0-0.015,0-0.03,0-0.045c0.041-0.035,0.083-0.068,0.127-0.1C9.526,68.713,9.574,68.792,9.621,68.871z M8.92,69.025
				c0.027,0.034,0.055,0.069,0.082,0.104c-0.039,0.05-0.077,0.101-0.112,0.153c-0.004-0.06-0.009-0.122-0.014-0.182
				c-0.003-0.05-0.008-0.1-0.011-0.15C8.883,68.976,8.901,69,8.92,69.025z M9.262,69.183c0.001,0.053,0.002,0.105,0.003,0.157
				c-0.006,0.004-0.012,0.007-0.017,0.011c-0.03-0.036-0.059-0.073-0.089-0.108c-0.028-0.033-0.058-0.065-0.086-0.098
				c0.033-0.035,0.066-0.068,0.102-0.101c0.027-0.026,0.054-0.051,0.083-0.076C9.258,69.04,9.26,69.111,9.262,69.183z M9.386,69.125
				c0.018,0.031,0.032,0.066,0.049,0.099c-0.024,0.019-0.048,0.038-0.073,0.055c0-0.002,0-0.005,0-0.008
				c-0.002-0.068-0.004-0.136-0.006-0.204C9.366,69.085,9.375,69.106,9.386,69.125z M9.722,69.25
				c-0.007,0.091-0.013,0.183-0.019,0.273c-0.044-0.051-0.086-0.104-0.121-0.161c-0.016-0.025-0.029-0.05-0.043-0.076
				c0.007-0.004,0.014-0.008,0.021-0.012c0.023-0.014,0.046-0.032,0.069-0.047c0.032-0.022,0.065-0.044,0.099-0.066
				C9.727,69.19,9.724,69.22,9.722,69.25z M9.109,69.276c0.031,0.041,0.057,0.087,0.086,0.129c0.003,0.003,0.006,0.007,0.01,0.009
				c0.001,0.002,0.002,0.004,0.003,0.007c0.01,0.019,0.036,0.026,0.055,0.016c0-0.001,0.001-0.001,0.003-0.002
				c0,0.026,0,0.053,0.001,0.079c-0.009-0.001-0.019,0.001-0.026,0.007c-0.012,0.007-0.021,0.019-0.035,0.023
				c-0.013,0.004-0.037,0-0.045,0.005C9.14,69.558,9.115,69.585,9.097,69.6c-0.019,0.015-0.039,0.034-0.058,0.054
				C9,69.601,8.959,69.549,8.913,69.498c-0.003-0.003-0.008-0.005-0.012-0.005c-0.002-0.039-0.004-0.078-0.007-0.117
				c0.042-0.069,0.091-0.134,0.145-0.196C9.063,69.213,9.086,69.244,9.109,69.276z M9.55,69.426c0.028,0.043,0.062,0.102,0.098,0.14
				c-0.038,0.03-0.074,0.061-0.108,0.092c-0.032,0.027-0.062,0.057-0.093,0.084c-0.026-0.025-0.051-0.049-0.076-0.074
				C9.37,69.661,9.37,69.653,9.37,69.646c-0.002-0.088-0.003-0.177-0.005-0.266c0.04-0.021,0.081-0.042,0.122-0.064
				C9.506,69.353,9.527,69.39,9.55,69.426z M9.017,69.682c-0.025,0.03-0.047,0.063-0.058,0.095c-0.011,0.029,0.002,0.06,0.031,0.072
				c0.028,0.011,0.06-0.003,0.071-0.031c0.005-0.018,0.01-0.034,0.016-0.05c0,0.001,0,0.002,0.001,0.002
				c0.043,0.063,0.087,0.14,0.137,0.197c-0.003,0.003-0.005,0.006-0.008,0.01c-0.011,0.01-0.01,0.028,0.001,0.039
				c0.01,0.009,0.028,0.009,0.038-0.001c0.002-0.001,0.003-0.003,0.004-0.005c0.006,0.007,0.012,0.014,0.018,0.02
				c0.003,0.004,0.007,0.007,0.012,0.011c0.001,0.107,0.004,0.216,0.006,0.323c-0.019,0.014-0.036,0.03-0.053,0.045
				c-0.002,0-0.003,0.002-0.004,0.002c-0.008,0.004-0.014,0.01-0.018,0.018c-0.049,0.047-0.097,0.107-0.139,0.164
				c-0.016-0.012-0.031-0.025-0.045-0.039c-0.01-0.009-0.025-0.008-0.034,0.002c-0.008,0.009-0.008,0.025,0.002,0.033
				c0.014,0.011,0.032,0.031,0.048,0.042c-0.014,0.019-0.029,0.038-0.044,0.057c-0.003-0.034-0.006-0.067-0.009-0.1
				c-0.012-0.132-0.024-0.265-0.038-0.396c0.026,0.062,0.088,0.134,0.141,0.17c0.008,0.005,0.017,0.013,0.024,0.016
				c0.011,0.004,0.026,0.015,0.036,0.016c0.008,0.001,0.03,0.004,0.036,0.007c0.006,0,0.014-0.004,0.014-0.011
				c0-0.006-0.004-0.013-0.01-0.013c-0.01-0.004-0.022-0.004-0.034-0.007c-0.073-0.021-0.137-0.106-0.176-0.167
				c-0.006-0.011-0.01-0.023-0.016-0.034c-0.002-0.006-0.009-0.008-0.014-0.006c-0.002,0-0.003,0.001-0.004,0.002
				c-0.006-0.057-0.013-0.113-0.02-0.17c0-0.031-0.002-0.061-0.004-0.091c-0.003-0.06-0.004-0.121-0.008-0.181
				c-0.004-0.063-0.008-0.126-0.012-0.19C8.946,69.583,8.982,69.631,9.017,69.682z M9.271,69.633c0.001,0.089,0.003,0.18,0.005,0.27
				c-0.009,0.009-0.017,0.018-0.025,0.026c-0.034-0.039-0.065-0.08-0.096-0.12c-0.021-0.027-0.041-0.054-0.061-0.081
				c0.021-0.036,0.055-0.078,0.086-0.108l0.006-0.006l0.024-0.003c0.025-0.004,0.04-0.018,0.058-0.031
				C9.27,69.596,9.271,69.614,9.271,69.633z M9.678,69.844c-0.002,0.044-0.006,0.088-0.008,0.132
				c-0.007-0.009-0.015-0.019-0.022-0.027c-0.028-0.032-0.054-0.065-0.085-0.096c-0.023-0.021-0.046-0.043-0.068-0.065
				c0.04-0.034,0.082-0.067,0.124-0.1c0.025-0.021,0.051-0.041,0.076-0.061C9.69,69.7,9.684,69.772,9.678,69.844z M9.422,69.763
				c-0.017,0.014-0.033,0.029-0.049,0.045c-0.001-0.033-0.002-0.064-0.002-0.096C9.388,69.728,9.405,69.745,9.422,69.763z
				 M9.61,69.984c0.02,0.029,0.038,0.062,0.054,0.095c-0.002,0.022-0.002,0.043-0.004,0.064c0,0.006,0,0.013-0.001,0.021
				c-0.089,0.025-0.186,0.096-0.264,0.15c-0.004,0-0.008,0-0.012,0c-0.002-0.142-0.005-0.282-0.008-0.424
				c0.03-0.027,0.062-0.054,0.093-0.08C9.519,69.864,9.567,69.92,9.61,69.984z M9.627,70.692c-0.076-0.093-0.153-0.176-0.242-0.253
				c-0.001-0.009-0.001-0.018-0.001-0.027c0.087-0.052,0.172-0.109,0.267-0.142C9.644,70.412,9.636,70.552,9.627,70.692z
				 M9.303,71.22c0,0.003,0,0.007,0,0.011c-0.104-0.099-0.196-0.209-0.287-0.32c-0.003-0.044-0.007-0.087-0.01-0.13
				c0.004-0.002,0.008-0.005,0.011-0.009c0.023-0.035,0.052-0.069,0.08-0.102c0.001,0,0.002,0.001,0.003,0.002
				c0.039,0.022,0.076,0.036,0.118,0.049c0.013,0.004,0.026-0.002,0.03-0.015c0.004-0.012-0.003-0.025-0.015-0.029
				c-0.02-0.008-0.046-0.014-0.064-0.023c-0.014-0.008-0.029-0.014-0.042-0.021c0.001,0,0.002-0.001,0.003-0.002
				c0.037-0.047,0.095-0.11,0.155-0.161c0,0,0.001-0.001,0.002-0.001C9.292,70.719,9.297,70.97,9.303,71.22z M9.45,70.594
				c0.052,0.058,0.093,0.121,0.14,0.182c0.008,0.01,0.02,0.016,0.031,0.017c-0.002,0.035-0.004,0.07-0.006,0.105
				c-0.001,0.013-0.002,0.027-0.003,0.041c-0.073,0.073-0.143,0.15-0.214,0.225c-0.002-0.212-0.006-0.424-0.01-0.636
				C9.409,70.55,9.431,70.573,9.45,70.594z M9.142,71.138c0.039,0.053,0.083,0.102,0.125,0.152
				c-0.002,0.001-0.003,0.004-0.006,0.006c-0.038,0.036-0.073,0.078-0.112,0.112c-0.029,0.027-0.058,0.054-0.087,0.081
				c0-0.007-0.001-0.014-0.001-0.021c-0.007-0.132-0.021-0.265-0.03-0.397c-0.002-0.03-0.005-0.06-0.008-0.09
				C9.062,71.035,9.102,71.086,9.142,71.138z M9.582,71.403c-0.007,0.079-0.012,0.157-0.018,0.236
				c-0.003,0.046-0.006,0.093-0.01,0.14c-0.006,0.002-0.011,0.006-0.015,0.011c-0.018,0.023-0.036,0.048-0.054,0.071
				c-0.017,0.021-0.036,0.041-0.054,0.062c-0.011,0.014-0.026,0.027-0.04,0.041c-0.007,0.008-0.016,0.016-0.023,0.024
				c0.005-0.132,0.013-0.264,0.02-0.395c0.002-0.056,0.005-0.112,0.008-0.168c0.017,0.016,0.035,0.032,0.053,0.049
				c0.019,0.017,0.049,0.014,0.066-0.006c0.017-0.02,0.015-0.05-0.005-0.067c-0.039-0.026-0.075-0.054-0.111-0.084
				c0-0.01,0-0.021,0-0.031c0.024-0.022,0.048-0.045,0.072-0.066c0.043-0.041,0.088-0.079,0.132-0.12
				C9.593,71.2,9.59,71.301,9.582,71.403z M9.284,71.939c0,0.018-0.001,0.035-0.002,0.053c-0.063-0.059-0.13-0.114-0.198-0.169
				c-0.005-0.09-0.012-0.18-0.017-0.27c0.077-0.062,0.159-0.121,0.236-0.184C9.301,71.56,9.293,71.75,9.284,71.939z M9.162,71.953
				c0.04,0.039,0.078,0.079,0.117,0.119c-0.015,0.014-0.03,0.027-0.045,0.041c-0.043,0.04-0.087,0.078-0.131,0.116
				c-0.003-0.083-0.007-0.166-0.011-0.247c-0.001-0.033-0.003-0.066-0.005-0.098C9.113,71.906,9.138,71.929,9.162,71.953z
				 M9.516,72.286H9.514c-0.022,0-0.031,0.015-0.032,0.033c-0.001,0.008,0,0.017-0.001,0.025c-0.001,0.005-0.004,0.012-0.005,0.019
				c-0.001,0.013-0.012,0.036-0.016,0.049c-0.011,0.038-0.022,0.066-0.026,0.105c-0.002,0.028-0.003,0.062,0.015,0.085
				c0.015,0.02,0.066,0.039,0.091,0.048c0.009,0.003,0.012,0.002,0.021,0.009c0.042,0.027,0.069,0.048,0.092,0.095
				c0.002,0.006,0.004,0.024,0.007,0.032c0.004,0.021,0.019,0.037,0.037,0.045c-0.002,0.04-0.002,0.081-0.002,0.121
				c-0.007-0.001-0.013-0.004-0.018-0.005c-0.11-0.032-0.197-0.065-0.319-0.063c0-0.002,0-0.002-0.002-0.002
				c-0.003-0.001-0.007-0.001-0.01-0.001c-0.004,0-0.008,0-0.012,0.001c-0.001,0-0.003,0-0.002,0.001
				c-0.113-0.001-0.198,0.026-0.298,0.057c-0.013,0.004-0.026,0.007-0.039,0.011c-0.001-0.044,0-0.088-0.003-0.132
				c-0.001-0.013,0-0.027-0.001-0.04c0.021-0.018,0.044-0.036,0.069-0.053c0.018,0.01,0.039,0.014,0.061,0.009
				c0.034-0.009,0.056-0.038,0.059-0.071c0.002,0,0.004-0.001,0.006-0.001c0.022-0.007,0.034-0.03,0.028-0.052
				C9.209,72.599,9.2,72.59,9.188,72.585c0.006-0.012,0.004-0.027-0.004-0.038c-0.008-0.011-0.021-0.016-0.034-0.015
				c-0.017-0.07-0.031-0.143-0.043-0.213c-0.001-0.013-0.001-0.026-0.002-0.04c0.056-0.048,0.114-0.096,0.171-0.143
				c-0.004,0.164-0.001,0.33,0.016,0.491c0.002,0.021,0.021,0.037,0.042,0.035c0.021-0.001,0.038-0.02,0.036-0.041
				c-0.015-0.124-0.009-0.249-0.009-0.373c0-0.025,0-0.05,0.001-0.076c0.011,0.014,0.022,0.028,0.034,0.042
				c0.013,0.016,0.036,0.018,0.051,0.005c0.015-0.012,0.018-0.036,0.004-0.05c-0.028-0.035-0.057-0.066-0.087-0.097
				c0-0.003,0-0.006,0-0.009c0.032-0.026,0.062-0.054,0.094-0.081c0.025-0.022,0.055-0.051,0.078-0.076
				c0.003-0.003,0.006-0.006,0.008-0.009C9.535,72.026,9.525,72.156,9.516,72.286z M9.575,72.442c0,0.02-0.001,0.04-0.001,0.06
				C9.571,72.5,9.567,72.5,9.565,72.499l-0.012-0.003l-0.001-0.005c-0.005-0.02-0.004-0.038-0.004-0.064
				C9.556,72.433,9.565,72.438,9.575,72.442z M9.572,72.542c-0.001-0.006-0.004-0.013-0.009-0.02
				C9.565,72.528,9.568,72.535,9.572,72.542z M9.639,73.003c0.019,0.005,0.038,0.009,0.054,0.013c0,0.002,0,0.005,0,0.008
				c-0.002,0.041-0.009,0.075-0.017,0.114c-0.002,0.008,0,0.016,0.002,0.023c-0.031,0.024-0.064,0.044-0.104,0.061
				c-0.016,0.007-0.034,0.016-0.051,0.021c-0.017,0.004-0.034,0.012-0.051,0.016c-0.007,0.001-0.015,0.003-0.022,0.005
				c-0.001-0.034-0.002-0.066-0.002-0.099c0-0.011-0.009-0.021-0.02-0.021c-0.011,0-0.021,0.009-0.021,0.021l-0.002,0.079
				l-0.009-0.005c-0.007-0.002-0.015-0.004-0.022-0.004c-0.011,0-0.021,0.002-0.029,0.007c-0.009-0.005-0.018-0.007-0.028-0.007
				c-0.008,0-0.015,0.002-0.022,0.004l-0.01,0.005l-0.001-0.079c0-0.011-0.009-0.021-0.02-0.021c-0.011,0-0.021,0.009-0.021,0.021
				c0,0.033,0,0.065-0.002,0.099c-0.028-0.009-0.059-0.014-0.086-0.024c-0.053-0.02-0.1-0.045-0.143-0.077
				c0.003-0.008,0.004-0.016,0.002-0.024c-0.011-0.04-0.016-0.081-0.018-0.122c0.108-0.026,0.207-0.056,0.32-0.043
				c0.008,0.004,0.016,0.006,0.025,0.006c0.002-0.001,0.003-0.001,0.004-0.001c0.001,0,0.003,0,0.004,0.001
				c0.009,0,0.017-0.002,0.025-0.006C9.465,72.963,9.548,72.979,9.639,73.003z M9.29,74.038v0.006V74.038z"/>
		</g>
	</g>
</g>
</svg>
