<?xml version="1.0" encoding="utf-8"?>
<!-- Generator: Adobe Illustrator 16.0.0, SVG Export Plug-In . SVG Version: 6.00 Build 0)  -->
<!DOCTYPE svg PUBLIC "-//W3C//DTD SVG 1.1//EN" "http://www.w3.org/Graphics/SVG/1.1/DTD/svg11.dtd">
<svg version="1.1" id="Layer_1" xmlns="http://www.w3.org/2000/svg" xmlns:xlink="http://www.w3.org/1999/xlink" x="0px" y="0px"
	 width="19px" height="19px" viewBox="0 0 19 19" enable-background="new 0 0 19 19" xml:space="preserve">
<path marker-end="none" marker-start="none" fill="#FFFFFF" d="M8.468,8.78c-0.227-0.148-0.455-0.296-0.68-0.442
	C7.97,8.306,8.152,8.273,8.334,8.24c0.154,0.082,0.309,0.166,0.465,0.249C8.817,8.494,8.834,8.5,8.853,8.506
	C9.132,8.55,9.411,8.595,9.691,8.639c0.018,0.006,0.037,0.013,0.055,0.018c0.02,0.094,0.04,0.189,0.059,0.285
	C9.58,8.956,9.354,8.97,9.13,8.984C8.909,8.916,8.688,8.848,8.468,8.78z"/>
<path marker-end="none" marker-start="none" fill="#FFFFFF" d="M11.807,4.397c-0.015-0.144-0.025-0.285-0.039-0.427
	c0.021-0.012,0.037-0.024,0.056-0.037c0.157-0.14,0.317-0.279,0.475-0.419c-0.002,0.012-0.003,0.024-0.003,0.036
	c0.051,0.253,0.104,0.507,0.155,0.764c-0.039,0.083-0.076,0.167-0.115,0.251C12.158,4.509,11.982,4.452,11.807,4.397z"/>
<path marker-end="none" marker-start="none" d="M10.861,1.112l0.055,0.014L10.879,1.13L10.861,1.112z"/>
<path marker-end="none" marker-start="none" fill="#49585F" d="M5.943,18.254c0.368-0.195,0.747-0.417,1.138-0.661
	c0.757,0.224,1.56,0.343,2.389,0.343c0.367,0,0.729-0.023,1.084-0.069l-0.004-0.009l-0.208-0.519
	c-0.127-0.604-0.241-1.228-0.343-1.858c0.948-0.774,1.914-1.646,2.868-2.601c0.257-0.256,0.507-0.513,0.749-0.771
	c0.242,0.117,0.479,0.231,0.719,0.348c0.012,0.13,0.025,0.26,0.035,0.391c-0.194,0.307-0.387,0.608-0.574,0.909
	c-0.085,0.243-0.17,0.483-0.252,0.726c-0.271,0.248-0.537,0.49-0.794,0.729c0.002,0.013,0.002,0.022,0.002,0.035
	c-0.062,0.245-0.12,0.489-0.177,0.729c-0.307,0.297-0.6,0.584-0.877,0.857l-0.26,0.852l-0.004,0.01l-0.002,0.012
	c3.318-0.791,5.883-3.536,6.402-6.952l-0.021-0.002l-0.277-0.03c-0.27-0.322-0.544-0.647-0.821-0.976
	c-0.048-0.354-0.1-0.71-0.151-1.066c0.305-0.351,0.608-0.702,0.91-1.05l0.18-0.321c-0.02-0.078-0.041-0.156-0.063-0.232
	c0.239-0.384,0.457-0.759,0.651-1.122c0.005-0.008,0.01-0.017,0.013-0.025c0.442,1.093,0.687,2.289,0.687,3.54
	c0,5.229-4.243,9.47-9.47,9.47C8.222,18.939,7.031,18.699,5.943,18.254z M11.166,17.766l-0.614,0.092l0.003,0.009
	C10.761,17.841,10.965,17.807,11.166,17.766z M4.262,17.38c0.177-0.086,0.355-0.176,0.534-0.272
	c0.162-0.086,0.328-0.178,0.495-0.274c0.264,0.149,0.537,0.287,0.817,0.409c-0.184,0.107-0.366,0.207-0.544,0.304
	c-0.19,0.101-0.375,0.195-0.553,0.28C4.753,17.688,4.504,17.538,4.262,17.38z M11.436,17.706l0.002-0.011l-0.252,0.064
	C11.268,17.743,11.352,17.727,11.436,17.706z M0,9.47C0,4.243,4.242,0,9.47,0c2.971,0,5.625,1.372,7.362,3.516
	c-0.125,0.286-0.275,0.59-0.447,0.913c-0.015,0.031-0.031,0.062-0.048,0.092c-1.538-2.129-4.043-3.516-6.867-3.516
	c-0.147,0-0.293,0.004-0.439,0.013L8.396,1.583c-0.003,0.022-0.007,0.044-0.01,0.066C8.333,1.883,8.282,2.117,8.232,2.352
	C8.249,2.35,8.266,2.35,8.282,2.347C8.519,2.42,8.76,2.493,9.002,2.572C9.002,2.578,9,2.583,9,2.589
	c0.037,0.272,0.077,0.548,0.12,0.824c0.271-0.278,0.541-0.556,0.81-0.834C9.932,2.55,9.935,2.521,9.938,2.493
	C9.941,2.15,9.949,1.812,9.96,1.475c0.24-0.035,0.481-0.069,0.724-0.101c0.101,0.157,0.202,0.315,0.309,0.476
	c0.185-0.056,0.369-0.111,0.554-0.166c0.16,0.51,0.332,1.027,0.515,1.553c-0.004,0.011-0.013,0.023-0.018,0.036
	c-0.166,0.204-0.333,0.409-0.501,0.615c-0.325,0.067-0.649,0.137-0.976,0.207c0.168,0.146,0.338,0.293,0.508,0.443
	c-0.065,0.173-0.131,0.346-0.196,0.519c-0.333,0.056-0.668,0.111-1,0.167C9.637,5.435,9.399,5.646,9.162,5.855
	c0,0.005,0,0.012,0,0.018C8.955,6.192,8.752,6.51,8.551,6.827C8.459,7.073,8.367,7.317,8.278,7.56
	C8.201,7.608,8.125,7.654,8.047,7.7C7.871,7.491,7.696,7.285,7.524,7.081C7.206,7.182,6.89,7.28,6.577,7.378
	c-0.2,0.26-0.396,0.517-0.586,0.77c0,0.005,0,0.011,0,0.018c0.13,0.195,0.262,0.393,0.396,0.591c0.254-0.162,0.511-0.327,0.77-0.495
	C7.192,8.332,7.229,8.4,7.265,8.468c-0.014,0.143-0.028,0.285-0.04,0.426C7.361,8.96,7.497,9.026,7.634,9.092
	C7.777,9.307,7.92,9.523,8.065,9.74C8.021,9.762,7.977,9.782,7.933,9.802c0.252,0.11,0.503,0.22,0.756,0.33
	c0.167-0.156,0.335-0.314,0.505-0.473C9.397,9.723,9.6,9.786,9.804,9.85c0.633,0.205,1.271,0.407,1.907,0.609
	c0.016,0.027,0.033,0.057,0.049,0.084c-0.197,0.207-0.4,0.415-0.607,0.622c-0.711,0.712-1.429,1.376-2.137,1.985
	c-0.237-0.33-0.474-0.661-0.71-0.99c0.029-0.546,0.072-1.1,0.127-1.659C8.187,10.309,7.943,10.115,7.7,9.924
	c0.005-0.007,0.01-0.012,0.013-0.018C7.707,9.909,7.699,9.913,7.692,9.917c-0.466-0.24-0.93-0.477-1.389-0.709
	c-0.346-0.134-0.689-0.266-1.03-0.395C4.926,8.405,4.588,8.005,4.264,7.617C4.181,7.478,4.098,7.34,4.018,7.204
	c0.029,0.153,0.061,0.306,0.094,0.46C4.203,7.85,4.295,8.038,4.389,8.226C4.333,8.215,4.277,8.204,4.22,8.192
	C4.047,7.981,3.878,7.773,3.711,7.57c-0.24-0.649-0.449-1.285-0.617-1.9c0.14-0.484,0.298-0.97,0.475-1.457
	c0.099-0.056,0.199-0.112,0.298-0.168c-0.063-0.223-0.12-0.442-0.168-0.656l0.022-0.13c-1.67,1.547-2.715,3.757-2.715,6.21
	c0,2.827,1.387,5.332,3.519,6.87c-0.036,0.021-0.072,0.039-0.108,0.058c-0.316,0.17-0.615,0.315-0.896,0.439
	C1.374,15.102,0,12.443,0,9.47z M9.827,14.285c-0.114-0.16-0.228-0.32-0.342-0.479c0.744-0.637,1.494-1.33,2.236-2.072
	c0.158-0.157,0.312-0.314,0.465-0.474c0.041,0.07,0.084,0.142,0.125,0.21c0.184,0.09,0.366,0.18,0.551,0.271
	c-0.185,0.19-0.371,0.381-0.562,0.571c-0.812,0.812-1.63,1.562-2.436,2.237C9.851,14.462,9.839,14.373,9.827,14.285z M17.828,10.752
	l0.064-0.42c-0.016,0.143-0.033,0.282-0.056,0.422L17.828,10.752z M17.936,9.47c0,0.291-0.016,0.577-0.043,0.859
	C17.923,10.016,17.936,9.745,17.936,9.47z M17.857,8.379c0.053,0.355,0.078,0.72,0.078,1.091C17.936,9.099,17.91,8.734,17.857,8.379
	z M17.811,8.083c0.019,0.038,0.037,0.165,0.047,0.296C17.854,8.277,17.838,8.178,17.811,8.083z M17.764,7.765l-0.115-0.444
	l-0.002,0.005l0.01-0.018c0.066,0.252,0.123,0.509,0.154,0.774C17.793,7.917,17.777,7.841,17.764,7.765z M16.829,5.287
	c0.093-0.162,0.183-0.321,0.269-0.479c0.096-0.185,0.188-0.368,0.278-0.551c0.16,0.241,0.31,0.491,0.447,0.748
	c-0.091,0.184-0.187,0.374-0.29,0.571c-0.094,0.173-0.192,0.349-0.295,0.528C17.116,5.823,16.979,5.551,16.829,5.287z M4.24,2.827
	C4.185,2.859,4.136,2.899,4.087,2.939l-0.28,0.254C3.961,3.054,4.105,2.931,4.24,2.827z M4.796,2.42
	C4.601,2.544,4.415,2.679,4.24,2.827C4.435,2.667,4.614,2.538,4.796,2.42z M4.971,2.31C4.913,2.346,4.854,2.382,4.796,2.42
	C4.854,2.382,4.912,2.346,4.971,2.31z M6.704,1.473C6.199,1.641,5.684,1.88,5.202,2.17C5.721,1.865,6.225,1.633,6.704,1.473z
	 M6.798,1.442C6.739,1.461,6.74,1.46,6.704,1.473C6.74,1.46,6.739,1.461,6.798,1.442z M6.957,1.392
	c-0.072,0.021-0.146,0.045-0.159,0.05C6.811,1.437,6.884,1.414,6.957,1.392z M7.224,1.316C7.135,1.34,7.046,1.365,6.957,1.392
	C7.045,1.365,7.134,1.341,7.224,1.316z M8.636,1.048L8.605,1.049c-0.381,0.04-0.754,0.103-1.115,0.2
	C7.887,1.152,8.264,1.086,8.636,1.048z M8.636,1.048l0.017-0.001l0.366-0.018l0.013-0.011C8.899,1.024,8.769,1.034,8.636,1.048z"/>
<path fill="none" stroke="#49585F" stroke-linecap="round" stroke-linejoin="round" stroke-miterlimit="79.8403" d="M13.688,1.571
	c2.027-1.083,3.641-1.393,4.359-0.672c1.439,1.438-1.236,6.451-5.974,11.187c-4.736,4.738-9.75,7.414-11.188,5.975
	c-0.741-0.742-0.496-2.269,0.629-4.324"/>
</svg>
