<?xml version="1.0" encoding="utf-8"?>
<!-- Generator: Adobe Illustrator 16.0.0, SVG Export Plug-In . SVG Version: 6.00 Build 0)  -->
<!DOCTYPE svg PUBLIC "-//W3C//DTD SVG 1.1//EN" "http://www.w3.org/Graphics/SVG/1.1/DTD/svg11.dtd">
<svg version="1.1" id="Layer_1" xmlns="http://www.w3.org/2000/svg" xmlns:xlink="http://www.w3.org/1999/xlink" x="0px" y="0px"
	 width="19px" height="19px" viewBox="0 0 19 19" enable-background="new 0 0 19 19" xml:space="preserve">
<g>
	<path fill="#49585F" d="M9.5,2.268c-3.988,0-7.232,3.244-7.232,7.232c0,3.989,3.244,7.231,7.232,7.231
		c3.987,0,7.231-3.242,7.231-7.231C16.731,5.512,13.487,2.268,9.5,2.268z M10.24,15.57l-1.03-1.296
		c-0.059-0.072-0.144-0.143-0.237-0.208c0.95-0.809,1.719-2.146,2.021-2.716c0.078,0.02,0.157,0.032,0.234,0.015l1.935-0.402
		c0.023-0.004,0.043-0.017,0.062-0.025c0.267,0.372,0.738,1.085,0.998,1.752l-0.658,1.373C12.658,14.873,11.509,15.417,10.24,15.57z
		 M7.619,3.802l2.375,0.322c0.083,0.011,0.175,0.001,0.273-0.016l1.089,2.56c-0.044,0.024-0.086,0.049-0.119,0.085L9.881,8.166
		c-0.045,0.045-0.08,0.103-0.108,0.163L5.75,7.714C5.743,7.675,5.736,7.632,5.723,7.599L5.289,6.458
		C5.281,6.435,5.263,6.42,5.252,6.401C6.061,4.959,7.267,4.048,7.619,3.802z M4.794,10.306l0.896-1.891
		c0.034-0.071,0.056-0.159,0.07-0.25l3.953,0.604C9.72,8.813,9.725,8.858,9.741,8.898l0.884,2.148
		c0.004,0.009,0.011,0.015,0.016,0.023c-0.27,0.516-1.119,2.031-2.114,2.787c-0.009-0.001-0.019-0.008-0.028-0.009l-1.964-0.358
		c-1.144-0.926-1.662-2.562-1.807-3.096C4.751,10.367,4.777,10.343,4.794,10.306z M14.541,12.299
		c-0.299-0.672-0.741-1.327-0.983-1.665c0.03-0.064,0.053-0.134,0.057-0.205l0.08-2.25c0.004-0.059-0.008-0.121-0.022-0.184
		c0.357-0.199,0.947-0.563,1.403-1.015c0.348,0.769,0.547,1.62,0.547,2.519c0,0.855-0.179,1.671-0.497,2.411L14.541,12.299z
		 M14.863,6.557c-0.415,0.461-1.051,0.851-1.413,1.053c-0.038-0.039-0.078-0.077-0.121-0.102L11.924,6.66
		c-0.032-0.019-0.069-0.027-0.105-0.038l-1.138-2.674c0.028-0.018,0.062-0.035,0.085-0.057l0.191-0.166
		c0.055-0.049,0.083-0.095,0.099-0.139C12.692,4.02,14.064,5.107,14.863,6.557z M6.394,4.235C5.881,4.721,5.286,5.406,4.817,6.272
		C4.799,6.28,4.782,6.282,4.764,6.293L4.012,6.807C4.539,5.735,5.371,4.841,6.394,4.235z M3.391,9.736l0.865,0.693
		c0.007,0.007,0.014,0.007,0.022,0.012c0.121,0.484,0.62,2.198,1.823,3.269c-0.01,0.042-0.02,0.084-0.016,0.133l0.07,0.777
		C4.549,13.566,3.471,11.778,3.391,9.736z"/>
</g>
</svg>
