<?xml version="1.0" encoding="utf-8"?>
<!-- Generator: Adobe Illustrator 16.0.0, SVG Export Plug-In . SVG Version: 6.00 Build 0)  -->
<!DOCTYPE svg PUBLIC "-//W3C//DTD SVG 1.1//EN" "http://www.w3.org/Graphics/SVG/1.1/DTD/svg11.dtd">
<svg version="1.1" id="Layer_1" xmlns="http://www.w3.org/2000/svg" xmlns:xlink="http://www.w3.org/1999/xlink" x="0px" y="0px"
	 width="19px" height="19px" viewBox="0 0 19 19" enable-background="new 0 0 19 19" xml:space="preserve">
<path fill="#49585F" d="M9.528,17.104c-0.114-0.022-0.374-0.123-0.487-0.045c-0.096,0.064-0.021,0.113,0.006,0.183
	c0.045,0.114,0.003,0.098-0.055,0.196c-0.029-0.062-0.011-0.137-0.037-0.199c-0.031-0.077-0.119-0.148-0.191-0.191
	c-0.145-0.083-0.286-0.107-0.41-0.223c-0.106-0.102-0.257-0.117-0.394-0.071c-0.133,0.042-0.266,0.082-0.399,0.111
	c-0.063,0.017-0.138-0.019-0.2,0.011c-0.068,0.025-0.113,0.111-0.168,0.16l-0.021,0.04c-0.016,0-0.05-0.009-0.064-0.002
	c-0.029,0.014-0.016,0.04-0.034,0.057C7.04,17.164,6.993,17.145,6.97,17.1c-0.042-0.086,0-0.209-0.106-0.256
	c0.02,0.083,0.035,0.157,0.031,0.246c-0.002,0.049-0.011,0.102-0.036,0.141c-0.033,0.055-0.075,0.052-0.127,0.068
	c0.001,0.028,0.03,0.053,0.06,0.055c-0.015,0.043-0.047,0.065-0.039,0.114c0.008,0.046,0.055,0.074,0.017,0.103
	c-0.04,0.031-0.072-0.006-0.1,0.053c-0.012,0.021-0.019,0.068-0.016,0.098l0.006,0.031c0.021,0.04,0.094,0.018,0.131,0.031
	c-0.015,0.031-0.047,0.049-0.063,0.086c-0.014,0.033-0.012,0.07-0.052,0.085c-0.033,0.012-0.056-0.021-0.079,0.003
	c-0.017,0.016-0.011,0.068-0.027,0.089c-0.032,0.043-0.083,0.05-0.114,0.101c-0.032,0.055-0.024,0.104-0.019,0.164
	c0.008,0.088-0.024,0.037-0.086,0.07c-0.048,0.025-0.054,0.077-0.111,0.012c-0.049-0.061,0.002-0.072-0.006-0.131
	c-0.012-0.09-0.063-0.019-0.071,0.03c-0.009,0.052,0.006,0.104-0.066,0.083c-0.016-0.006-0.026-0.025-0.048-0.031
	c-0.019-0.006-0.046,0-0.066,0l-0.016-0.046c-0.021-0.089-0.045-0.172-0.145-0.202c-0.077-0.025-0.163,0.002-0.241-0.01
	c-0.036-0.006-0.066-0.02-0.092-0.046C5.453,18,5.466,17.986,5.464,17.939c-0.002-0.037,0.016-0.015-0.012-0.045
	c-0.013-0.016-0.04-0.022-0.057-0.031c-0.043-0.026-0.045-0.034-0.066-0.074c-0.029-0.053-0.03-0.043-0.006-0.098
	c0.017-0.037,0.03-0.061,0.017-0.101c-0.054,0.046-0.037,0-0.05-0.032c-0.017-0.039-0.033-0.045-0.044,0.006
	c-0.006,0.035,0.01,0.072,0.011,0.106c0.002,0.06,0.001,0.048-0.042,0.06c-0.032,0.01-0.077,0-0.067,0.059
	c0.009,0.054,0.041,0.011,0.081,0.014c0.071,0.004,0.025,0.016,0.037,0.063c0.011,0.051,0.039,0.008,0.069,0.04
	c-0.041,0.033-0.018,0.088-0.077,0.103c-0.062,0.015-0.047-0.024-0.075-0.055c-0.046-0.048-0.188-0.062-0.253-0.074
	c-0.059-0.01-0.138-0.03-0.198-0.01c-0.04,0.014-0.057,0.051-0.092,0.071c-0.037,0.017-0.08,0.014-0.12,0.017
	c-0.073,0.003-0.146,0-0.219,0l-0.028-0.006c-0.151-0.111-0.204,0.116-0.224,0.235c-0.006,0.033,0.015,0.082-0.026,0.103
	c-0.034,0.015-0.064-0.021-0.096-0.024c-0.062-0.01-0.17,0.033-0.173,0.1l-0.015,0.012c-0.051-0.016-0.084-0.003-0.107,0.046
	c-0.015,0.028-0.021,0.114-0.068,0.08c-0.018-0.012-0.032-0.073-0.036-0.092c-0.007-0.025,0.015-0.074-0.031-0.093
	c-0.021-0.006-0.093,0.019-0.099,0.035c-0.01,0.028,0.038,0.062,0.029,0.098c-0.005,0.018-0.035-0.003-0.031,0.025
	c0.002,0.018,0.031,0.021,0.038,0.033c0.027,0.049-0.014,0.035-0.037,0.066c-0.03,0.037-0.016,0.08-0.074,0.1
	c-0.04,0.012-0.099,0-0.14,0c0.076,0,0.311,0.04,0.241,0.17c-0.017,0.03-0.046,0.021-0.064,0.045
	c-0.016,0.022,0.004,0.053-0.028,0.071c-0.045,0.024-0.108-0.021-0.148,0.028c-0.03,0.037-0.017,0.144-0.095,0.129
	c-0.026-0.006-0.071-0.061-0.083-0.09c-0.019-0.043,0-0.076-0.005-0.119c-0.003-0.028-0.019-0.043-0.027-0.064
	c-0.006-0.019-0.006-0.037-0.013-0.056c-0.013-0.045-0.044-0.085-0.088-0.103c-0.041-0.019-0.088-0.004-0.124-0.022
	c-0.02-0.009-0.015-0.026-0.044-0.029c-0.018-0.003-0.042,0.009-0.062,0.009c-0.062,0.004-0.05-0.021-0.088-0.062
	c-0.103-0.108-0.142,0.048-0.167,0.12c-0.034,0.104-0.125,0.125-0.223,0.131c-0.076,0.006-0.187,0-0.164-0.111
	c0.008-0.037,0.04-0.062,0.042-0.107c0.003-0.047-0.016-0.083-0.016-0.126h0.006c0.043-0.007,0.102-0.08,0.148-0.101
	c0.062-0.029,0.132-0.039,0.193-0.074c0.04-0.022,0.097-0.086,0.145-0.08c0.053,0.009,0.084,0.098,0.148,0.076
	c0.06-0.02,0.05-0.11,0.092-0.134c0.02-0.009,0.062,0.007,0.085,0.003c0.037-0.006,0.054-0.018,0.083-0.039
	c0.041-0.031,0.083-0.066,0.121-0.104c0.044-0.043,0.045-0.101,0.1-0.123c0.051-0.021,0.076-0.037,0.103-0.095
	c0.021-0.045,0.035-0.098,0.048-0.144l0.031-0.022c0.15-0.049,0.191-0.131,0.193-0.279c0.001-0.04,0.014-0.055,0.021-0.092
	c0.005-0.021-0.006-0.08,0.014-0.088c0.021-0.012,0.062,0.031,0.092,0.021c0.037-0.012,0.048-0.052,0.071-0.074
	c0.015,0.021,0.009,0.077,0.028,0.09c0.044,0.027,0.058-0.041,0.054-0.069C3.797,17.124,3.757,17.1,3.78,17.059
	c0.025-0.041,0.057-0.016,0.089-0.01h0.005c0.139,0,0.233-0.068,0.273-0.199c0.021-0.068,0.069-0.08,0.129-0.108
	c0.027-0.015,0.055-0.034,0.075-0.058c0.014-0.021,0.017-0.047,0.031-0.062c0.021-0.025,0.052-0.021,0.071-0.049
	c0.013-0.021,0.012-0.049,0.027-0.068c0.02-0.025,0.051-0.031,0.068-0.066c0.011-0.02,0.016-0.047,0.02-0.07
	c0.013-0.094-0.008-0.194,0.002-0.288c0.014-0.123,0.104-0.228,0.092-0.354l0.02-0.031c0.047-0.004,0.094-0.028,0.142-0.014
	c0.052,0.014,0.078,0.076,0.133,0.09c0.111,0.029,0.24-0.074,0.312-0.143c0.015-0.016,0.03-0.043,0.049-0.046
	c0.016-0.006,0.027,0.019,0.046,0.015c0.033-0.003,0.026-0.018,0.047-0.037c0.022-0.021,0.021-0.021,0.054-0.029
	c0.02-0.006,0.104-0.014,0.079-0.053c-0.023-0.041-0.102,0.017-0.124,0.021c-0.121,0.031-0.101-0.089-0.143-0.157
	c-0.035-0.058-0.042-0.055,0.015-0.079c0.056-0.025,0.034-0.031,0.021-0.087c-0.014-0.057-0.004-0.052,0.055-0.057
	c0.049-0.007,0.095-0.013,0.144-0.021c0.097-0.021,0.194-0.018,0.29-0.035c0.089-0.015,0.153-0.073,0.239-0.058
	c0.043,0.009,0.069,0.013,0.112-0.003c0.04-0.011,0.066-0.034,0.112-0.027L6.286,15c0.134,0.12,0.395-0.018,0.555,0.055
	c0.086,0.039,0.142,0.131,0.243,0.146c0.082,0.014,0.17-0.015,0.25-0.032c0.086-0.02,0.162-0.02,0.25-0.018
	c0.074,0.007,0.183,0.012,0.244-0.039c0.057-0.047,0.014-0.066-0.005-0.12c-0.017-0.05,0.006-0.068,0.016-0.114
	c0.009-0.043-0.012-0.066-0.016-0.102c-0.006-0.064,0.021-0.024,0.062-0.049c0.027-0.014,0.035-0.074,0.042-0.104
	c0.005-0.021-0.015-0.08-0.006-0.096c0.014-0.028,0.143-0.022,0.178-0.022l0.025-0.021c0.054-0.12,0.107-0.229,0.229-0.289
	c0.108-0.053,0.203-0.118,0.239-0.242c0.007-0.026,0.005-0.066,0.019-0.089c0.014-0.023,0.039-0.026,0.059-0.04
	c0.063-0.049,0.06-0.131,0.109-0.188c0.039-0.045,0.083-0.06,0.116-0.113c0.036-0.061,0.057-0.088,0.12-0.121
	c0.04-0.021,0.114-0.06,0.118-0.108c0.006-0.067-0.092-0.042-0.077-0.104c-0.031,0-0.036,0.041-0.027,0.065
	c0.013,0.046,0.047,0.024,0.009,0.065c-0.022,0.022-0.055,0.031-0.076,0.058c-0.026,0.031-0.048,0.065-0.076,0.099
	c-0.061,0.067-0.162,0.076-0.221,0.14c-0.042,0.043-0.038,0.138-0.107,0.157l-0.016-0.01c0-0.136,0.009-0.269,0.016-0.402
	c0.002-0.055-0.001-0.115,0.009-0.168c0.009-0.051,0.05-0.086,0.001-0.127c-0.037-0.032-0.103-0.027-0.149-0.045
	c-0.055-0.02-0.11-0.047-0.15-0.094c-0.05-0.059-0.083-0.134-0.17-0.137c-0.053-0.001-0.1,0.029-0.154,0.021
	c-0.062-0.011-0.075-0.061-0.099-0.109C7.82,12.648,7.784,12.6,7.74,12.559l-0.03-0.033c-0.008-0.07-0.005-0.16-0.039-0.221
	c-0.032-0.058-0.055-0.128-0.029-0.193c0.016-0.043,0.072-0.066,0.065-0.106c-0.001-0.009-0.024-0.01-0.029-0.026
	c-0.003-0.014,0.004-0.033,0.008-0.045c0.019-0.069,0.074-0.168,0.123-0.221c0.046-0.052,0.117-0.05,0.184-0.053
	c0.006-0.064-0.163-0.047-0.093-0.145c0.024-0.031,0.067-0.022,0.08-0.062c0.009-0.026-0.008-0.06-0.005-0.087L7.96,11.361
	c-0.071,0.021-0.094,0.104-0.156,0.014c-0.022-0.033-0.021-0.046-0.058-0.062c-0.036-0.017-0.051,0.002-0.085-0.037
	c-0.035-0.036-0.05-0.084-0.087-0.121c-0.042-0.043-0.085-0.059-0.079-0.122c0.008-0.08,0.031-0.065,0.09-0.081
	c0.06-0.018,0.07-0.061,0.141-0.057c0.102,0.004,0.202-0.07,0.172-0.184c-0.039-0.145-0.166,0.039-0.228,0.061
	c-0.006-0.015-0.009-0.032-0.006-0.051v-0.005c-0.008-0.039-0.037-0.092-0.01-0.127c0.023-0.032,0.073-0.032,0.099-0.069
	c0.042-0.06,0.066-0.143,0.082-0.213c0.006-0.031,0.006-0.076,0.021-0.104c0.022-0.04,0.099-0.029,0.108-0.054
	c0.012-0.027-0.068-0.066-0.076-0.084c-0.021-0.045,0.016-0.051-0.046-0.072c-0.05-0.018-0.069-0.016-0.097-0.057
	c-0.02-0.032-0.021-0.056-0.071-0.049L7.649,9.881c-0.03-0.025-0.051-0.104-0.032-0.139C7.64,9.703,7.705,9.69,7.644,9.637
	c0.017-0.028,0.044-0.042,0.057-0.076c0.011-0.03,0.001-0.066,0.028-0.083C7.751,9.463,7.8,9.477,7.828,9.469
	C7.87,9.457,7.867,9.427,7.897,9.404C7.94,9.373,7.989,9.427,8.041,9.429C8.109,9.431,8.14,9.371,8.209,9.41
	c0.054,0.032,0.08,0.107,0.149,0.104c0.052-0.002,0.098-0.031,0.105-0.08c0.01-0.068-0.008-0.135-0.073-0.161
	C8.327,9.246,8.269,9.251,8.24,9.175c-0.019-0.053-0.002-0.11-0.025-0.164c-0.022-0.05-0.052-0.1-0.047-0.157l0.005-0.016
	C8.127,8.822,8.05,8.823,8.017,8.784C7.979,8.74,8.004,8.702,8.041,8.675c0.046-0.035,0.059-0.04,0.02-0.1
	c-0.034-0.054-0.083-0.1-0.14-0.131C7.87,8.417,7.811,8.427,7.762,8.4C7.704,8.369,7.726,8.327,7.727,8.275
	c0.002-0.106-0.176-0.171-0.159-0.293c0.008-0.053,0.065-0.063,0.107-0.086c0.052-0.028,0.1-0.071,0.138-0.114
	C7.977,7.869,7.91,8.17,8.088,8.232c0.069,0.024,0.184,0.01,0.258,0.006c0.047-0.002,0.068-0.01,0.085-0.056
	C8.445,8.148,8.442,8.09,8.493,8.085c-0.053,0-0.097,0.021-0.148,0.026C8.296,8.115,8.249,8.11,8.202,8.105
	C8.149,8.101,8.1,8.093,8.057,8.061C8.022,8.035,7.952,7.945,7.955,7.902V7.89C7.927,7.792,7.858,7.714,7.841,7.615
	c-0.016-0.096-0.122-0.209-0.087-0.31c0.014-0.043,0.048-0.084,0.064-0.131c0.022-0.064,0.046-0.105,0.1-0.15
	c0.091-0.073,0.191-0.146,0.288-0.218c-0.077,0.018-0.212,0.02-0.277-0.033C7.897,6.748,7.85,6.678,7.841,6.638
	C7.83,6.582,7.881,6.548,7.87,6.489l0.014,0.007c-0.013-0.054-0.047-0.341,0.02-0.333c0.055,0.006,0.032,0.128,0.08,0.107
	c0.03-0.014,0.003-0.09,0.026-0.119c0.06-0.079,0.211,0.011,0.252-0.105C8.278,6,8.253,5.979,8.264,5.94
	C8.278,5.886,8.31,5.875,8.305,5.808C8.289,5.858,8.238,5.98,8.169,5.944C8.127,5.921,8.125,5.813,8.13,5.774
	c0.014-0.126,0.22-0.129,0.19-0.285C8.309,5.428,8.226,5.396,8.249,5.326c0.014-0.042,0.166-0.115,0.126-0.168
	C8.347,5.12,8.117,5.325,8.081,5.355C7.998,5.425,7.983,5.4,7.955,5.321C7.952,5.314,7.93,5.31,7.925,5.294
	c-0.004-0.011,0.003-0.026,0-0.037C7.917,5.224,7.935,5.199,7.897,5.18c-0.04,0.031-0.012,0.083-0.022,0.125
	C7.866,5.342,7.837,5.367,7.82,5.399C7.776,5.482,7.77,5.545,7.688,5.595c-0.055,0.032-0.018,0.02-0.08-0.014
	c-0.023-0.014-0.06-0.056-0.083-0.004C7.497,5.639,7.623,5.698,7.606,5.763C7.54,5.761,7.487,5.646,7.471,5.588
	C7.453,5.519,7.462,5.46,7.49,5.402c0.026-0.059,0.095-0.12,0.105-0.18c0.01-0.063-0.043-0.144-0.077-0.19v0.035
	c0.026,0.091-0.021,0.16-0.094,0.191c-0.07,0.029-0.079,0.036-0.116-0.029c-0.021-0.038-0.029-0.083-0.051-0.12
	C7.21,5.029,7.168,5.008,7.165,4.912c-0.001-0.1-0.03-0.14-0.083-0.219c-0.044-0.066-0.09-0.138-0.128-0.205
	c-0.039-0.069-0.045-0.162-0.112-0.21c-0.03-0.021-0.08-0.008-0.086-0.063c-0.005-0.052,0.042-0.048,0.07-0.076
	c0.052-0.054,0.068-0.132,0.072-0.202c0.003-0.063-0.022-0.145-0.004-0.203c0.023-0.073,0.102-0.151,0.152-0.208l0.021-0.021
	C7.091,3.465,7.142,3.441,7.164,3.4C7.188,3.358,7.173,3.354,7.18,3.307c0.008-0.06,0.036-0.154,0.065-0.21
	C7.257,3.07,7.304,2.989,7.331,2.979c0.044-0.017,0.05,0.028,0.094,0.031c0.029,0.002,0.092-0.021,0.092-0.059
	c0-0.056-0.055-0.016-0.091-0.031c0.002-0.143,0.185-0.105,0.273-0.106C7.743,2.813,7.833,2.822,7.869,2.8
	C7.944,2.754,7.83,2.757,7.82,2.702l0.014-0.014c0.043-0.026,0.068-0.054,0.09-0.099C7.938,2.56,7.937,2.483,7.955,2.463
	c0.026-0.029,0.074-0.012,0.106-0.021c0.04-0.012,0.06-0.037,0.09-0.064c0.061-0.055,0.122-0.099,0.19-0.146
	c0.083-0.055,0.134-0.136,0.206-0.198c0.081-0.068,0.131-0.081,0.146-0.196c0.004-0.026-0.006-0.086,0.008-0.109
	c0.023-0.037,0.075-0.032,0.106-0.062c0.026-0.024,0.028-0.063,0.062-0.083c0.028-0.017,0.068-0.009,0.097-0.028
	c0.038-0.025,0.041-0.052,0.087-0.065c0.022-0.006,0.053,0,0.077,0C9.251,1.49,9.173,1.454,9.221,1.385
	c0.017-0.025,0.07-0.031,0.094-0.05C9.344,1.312,9.358,1.277,9.39,1.258l0.021-0.014c0.053-0.027,0.111-0.009,0.134-0.083
	C9.569,1.084,9.52,1.053,9.489,0.997C9.462,0.949,9.457,0.891,9.429,0.84C9.416,0.815,9.389,0.785,9.38,0.758
	c-0.008-0.025,0.003-0.05-0.004-0.075C9.363,0.628,9.292,0.601,9.331,0.55c0.026-0.034,0.097-0.027,0.13-0.064
	C9.49,0.453,9.515,0.397,9.541,0.36c0.033-0.046,0.053-0.102,0.083-0.151C9.638,0.187,9.647,0.16,9.67,0.146
	C9.696,0.13,9.732,0.145,9.752,0.132C9.791,0.106,9.776,0.048,9.777,0c0.06,0.035,0.104,0.134,0.146,0.19
	c0.036,0.048,0.129,0.112,0.122,0.182l0.014,0.021c0.059,0.023,0.096,0.093,0.143,0.105c0.023,0.007,0.05-0.024,0.082-0.008
	c0.027,0.014,0.044,0.066,0.053,0.092c0.025,0.084,0.01,0.054,0.088,0.084c0.049,0.019,0.072,0.054,0.102,0.1
	c0.039,0.063,0.041,0.104,0.049,0.171c0.006,0.051,0.053,0.088,0.057,0.132c0,0.025-0.031,0.041-0.029,0.074
	c0.004,0.03,0.023,0.035,0.035,0.06c0.033,0.061,0.032,0.068,0.006,0.128c-0.054,0.118-0.021,0.172,0.065,0.264l-0.007,0.042
	c-0.044,0.112,0.027,0.248,0.086,0.333c0.029,0.042,0.057,0.065,0.037,0.128c-0.022,0.069-0.073,0.063-0.033,0.13
	c0.066,0.105,0.17,0.153,0.197,0.282c0.014,0.065,0.004,0.1,0.047,0.151c0.035,0.043,0.072,0.062,0.088,0.117
	c0.021,0.074,0.025,0.197,0.021,0.274l-0.013,0.016c0.152,0.138,0.041,0.437,0.33,0.488c-0.022,0.121-0.043,0.118,0.039,0.208
	c-0.034,0.027-0.049,0.061-0.037,0.103c0.126,0.029,0.147-0.07,0.271,0.009c0.117,0.077,0.234,0.082,0.363,0.139
	c0.127,0.055,0.237,0.083,0.342,0.157c0.08,0.057,0.18,0.162,0.273,0.182l0.012,0.012c0.055,0.113,0.133,0.129,0.183,0.25
	c0.041,0.105,0.065,0.246,0.139,0.336c0.06,0.077,0.144,0.123,0.197,0.203c0.062,0.09,0.106,0.134,0.208,0.187
	c0.054,0.028,0.199,0.059,0.185,0.131c-0.01,0.044-0.177,0.057-0.217,0.134c-0.063,0.125,0.024,0.422,0.071,0.544
	c0.07,0.183,0.265,0.281,0.305,0.481L13.76,6.644c0.131,0.067,0.223,0.125,0.275,0.264c0.023,0.064,0.128,0.34-0.014,0.338
	c-0.029-0.258-0.215-0.119-0.377-0.18c-0.187-0.072-0.137-0.33-0.387-0.354C13.09,6.696,13,6.781,12.848,6.804
	c-0.07,0.01-0.438-0.079-0.353,0.079c0.045-0.014,0.112-0.021,0.159-0.011c0.059,0.011,0.093,0.069,0.139,0.08
	c0.083,0.02,0.191-0.111,0.296-0.126c0.24-0.034,0.274,0.188,0.447,0.296c0.181,0.113,0.31,0.299,0.496,0.396
	c0.11,0.057,0.129,0.049,0.155,0.176c0.022,0.105,0.051,0.197,0.111,0.288c0.108,0.162,0.295,0.333,0.27,0.553v0.011
	c0,0.113,0.018,0.24-0.051,0.314c-0.09,0.094-0.199,0.108-0.272,0.221c-0.06,0.094-0.084,0.21-0.131,0.296
	c-0.042,0.074-0.212,0.118-0.191,0.215c0.177,0.008,0.285,0,0.396,0.158c0.066,0.098,0.048,0.077,0.148,0.092
	c0.113,0.018,0.102,0.016,0.192,0.105l0.011-0.022c-0.023-0.116,0.105-0.118,0.139-0.187c0.034-0.08,0-0.205,0.037-0.296
	c0.086-0.223,0.225-0.168,0.428-0.179c-0.012-0.015-0.019-0.042-0.03-0.058c0.161,0.071,0.394,0.022,0.579,0.049
	c0.183,0.025,0.38,0.014,0.559,0.053c0.193,0.042,0.383,0.235,0.539,0.35c0.184,0.138,0.334,0.266,0.451,0.467
	c0.086,0.142,0.066,0.356,0.066,0.519l0.033,0.021c-0.006,0.074,0.028,0.128,0.022,0.199c-0.007,0.063-0.022,0.158-0.034,0.227
	c-0.027,0.153-0.175,0.249-0.193,0.393c-0.019,0.121-0.013,0.262-0.013,0.385c0,0.23-0.131,0.211-0.246,0.363
	c-0.094,0.133-0.085,0.259-0.254,0.348h-0.058c-0.021-0.02-0.034-0.034-0.063-0.034c0.015,0.128-0.222,0.256-0.164,0.327
	c0.037,0.011,0.166-0.03,0.183-0.02c0.061,0.049-0.088,0.154-0.123,0.182c-0.086,0.066-0.381,0.273-0.377,0.047
	c-0.076,0.036-0.125-0.034-0.205-0.027c-0.098,0.01-0.133,0.088-0.141,0.174c-0.018,0.002-0.021,0.004-0.041,0.002
	c0.037,0.183-0.289,0.019-0.33,0.117c-0.017,0.043,0.129,0.119,0.159,0.119c0.011,0,0.06-0.049,0.08-0.056
	c0.031-0.013,0.074,0,0.108-0.013c0.083-0.027,0.129-0.136,0.188-0.01c0.021,0.041-0.002,0.188-0.023,0.225
	c-0.065,0.107-0.24,0.041-0.357,0.051c0.127,0.077,0.26,0.056,0.393,0.1c-0.004,0.084-0.074,0.062-0.125,0.104
	c-0.062,0.05-0.051,0.11-0.144,0.126c-0.126,0.019-0.256-0.111-0.356,0.031l0.012,0.013c0.006,0.007,0.033,0.002,0.01,0.012
	c-0.16,0.044-0.443-0.005-0.534,0.17c0.091,0.017,0.128-0.036,0.205-0.067c0.083-0.031,0.16-0.02,0.252-0.01
	c0.04,0.004,0.212,0,0.236,0.034c0.047,0.068-0.058,0.144-0.125,0.077c-0.025,0.061-0.214,0.1-0.124,0.166
	c-0.002,0,0.121-0.006,0.126-0.007c0.03-0.009,0.067,0.038,0.081-0.042c0.012,0.005,0.023,0.009,0.033,0.016
	c0.021-0.025,0.043-0.064,0.059-0.099c0.075,0.037,0.096,0.171,0.167,0.229c0.073,0.057,0.175,0.051,0.263,0.03
	c0.075-0.019,0.146-0.065,0.23-0.079c0.072-0.01,0.148,0.01,0.222,0.002c0.166-0.019,0.31-0.123,0.479-0.113
	c0.089,0.002,0.123-0.002,0.14,0.093c0.021,0.131-0.06,0.116-0.159,0.127c-0.023,0.137,0.131,0.288,0.137,0.429
	c0.01,0.2-0.193,0.277-0.349,0.334c-0.157,0.062-0.414,0.031-0.515,0.197c-0.062,0.104-0.02,0.354,0.009,0.469l0.022-0.011
	c-0.148,0.011-0.297-0.062-0.441-0.05c-0.127,0.013-0.188,0.184-0.323,0.246c-0.127,0.058-0.267,0.041-0.396,0.09
	c-0.162,0.062-0.166,0.22-0.282,0.316c-0.131,0.111-0.201,0.004-0.324-0.055c-0.053-0.025-0.138-0.018-0.188-0.037
	c-0.062-0.023-0.125-0.052-0.187-0.08c-0.257-0.113-0.493-0.111-0.771-0.08c-0.247,0.028-0.485,0.229-0.741,0.206l-0.034,0.022
	c0.01,0.126-0.191,0.049-0.236-0.012c-0.07-0.092,0.088-0.131-0.035-0.211c-0.017,0.045-0.049,0.062-0.092,0.033
	c-0.023,0.065-0.074,0.141-0.146,0.098c0.021-0.043,0.073-0.166-0.024-0.146c-0.091,0.021-0.019,0.16-0.111,0.157
	c-0.09,0-0.015-0.111-0.058-0.146c-0.098-0.074-0.077,0.07-0.082,0.082c-0.022,0.051-0.001,0.108-0.092,0.086
	c-0.045-0.012-0.09-0.086-0.149-0.123c-0.144-0.089-0.246-0.215-0.41-0.273c0.084,0.119,0.207,0.191,0.297,0.306
	c-0.041,0.065-0.163,0.086-0.223,0.126c-0.066,0.043-0.142,0.057-0.203,0.098c-0.074,0.049-0.043,0.098-0.153,0.082
	c-0.074-0.011-0.12-0.043-0.197-0.043c-0.11-0.002-0.257,0.016-0.368,0.035c-0.061,0.008-0.104,0.045-0.166,0.037
	c-0.055-0.006-0.111-0.105-0.155-0.003c-0.036,0.085,0.055,0.101,0.097,0.134c0.05,0.043,0.062,0.062,0.106,0.114
	c-0.06,0.034-0.054,0.112-0.088,0.136c-0.027,0.02-0.114,0.014-0.148,0.02c-0.1,0.018-0.043,0.025-0.148-0.014
	c-0.051-0.021-0.094-0.031-0.148-0.026L9.528,17.104z"/>
<path fill="#FFFFFF" d="M10.074,12.648c0.037,0,0.062-0.012,0.096-0.023c0.047-0.018,0.041,0.002,0.061,0.042
	c0.019-0.005,0.026-0.026,0.033-0.042c0.014-0.027,0.006-0.023,0.035-0.034c0.014-0.005,0.028-0.008,0.04-0.019
	c0.015-0.014,0.017-0.041,0.032-0.053c0.014,0.018,0.006,0.061,0.031,0.059c0.027-0.001,0.01-0.037,0.037-0.033
	c0.017,0.002,0.037,0.031,0.055,0.037c0.021,0.008,0.047,0.011,0.07,0.014c0.022,0.004,0.045,0.008,0.065,0.021
	c0.022,0.014,0.022,0.031,0.042,0.045c0.02,0.016,0.049,0.004,0.049,0.033c-0.002,0.031-0.033,0.033-0.056,0.037
	c-0.062,0.011-0.076,0.043-0.089,0.1c-0.006,0.025-0.012,0.042-0.03,0.062c-0.024,0.023-0.037,0.019-0.065,0.021
	c-0.073,0.008-0.096,0.062-0.147-0.013c-0.019-0.023-0.039-0.045-0.063-0.062c-0.014-0.008-0.025-0.01-0.039-0.019
	c-0.01-0.01-0.018-0.026-0.028-0.032c-0.029-0.015-0.052-0.013-0.078-0.033c-0.035-0.026-0.043-0.019-0.078-0.002
	c-0.028,0.013-0.048,0.013-0.043-0.024c0.004-0.039,0.058-0.078,0.093-0.095L10.074,12.648z"/>
<path fill="#FFFFFF" d="M13.332,10.938c0.041,0.039,0.09,0.012,0.133,0.037c0.021,0.015,0.085,0.086,0.061,0.114
	c-0.015,0.019-0.098,0.005-0.117,0c-0.055-0.013-0.083-0.032-0.116-0.075c-0.011-0.017-0.035-0.041-0.022-0.061
	c0.004-0.006,0.032-0.021,0.039-0.025c0.014-0.006,0.019-0.013,0.028,0.004L13.332,10.938z"/>
<path d="M13.453,10.232c0.018-0.031,0.051-0.017,0.078-0.021c0.039-0.01,0.023-0.041-0.01-0.047
	c-0.025-0.004-0.062,0.006-0.082,0.021c-0.01,0.008-0.025,0.024-0.025,0.037c-0.002,0.019,0.009,0.014,0.025,0.014L13.453,10.232z"
	/>
</svg>
