<?xml version="1.0" encoding="utf-8"?>
<!-- Generator: Adobe Illustrator 16.0.0, SVG Export Plug-In . SVG Version: 6.00 Build 0)  -->
<!DOCTYPE svg PUBLIC "-//W3C//DTD SVG 1.1//EN" "http://www.w3.org/Graphics/SVG/1.1/DTD/svg11.dtd">
<svg version="1.1" id="Layer_1" xmlns="http://www.w3.org/2000/svg" xmlns:xlink="http://www.w3.org/1999/xlink" x="0px" y="0px"
	 width="19px" height="19px" viewBox="0 0 19 19" enable-background="new 0 0 19 19" xml:space="preserve">
<title>submarine</title>
<path fill="#49585F" d="M18.771,11.021c0.227-0.203,0.246-0.551,0.045-0.777c-0.015-0.018-0.029-0.031-0.045-0.046
	c0.147-0.417,0.219-0.858,0.203-1.3c0-0.854-0.197-1.548-0.439-1.548c-0.24,0-0.439,0.693-0.439,1.548
	c0,0.312,0.03,0.623,0.094,0.929c-0.082-0.104-0.172-0.204-0.267-0.297c-1.096-1.077-3.579-2.148-6.655-2.092H10.58l-1.238-2.34
	H8.048V3.586c0.03-0.496-0.163-0.979-0.526-1.318c-0.346-0.355-0.84-0.523-1.331-0.452L5.918,1.853l0.13,1.077l0.068,0.297
	l0.31-0.037c0.058,0.037,0.112,0.081,0.161,0.13c0.038,0.037,0.038,0.21,0.038,0.266V5.09H5.659l-0.78,2.347H4.562
	C3.492,7.437,0,7.666,0,10.879c0,2.359,2.291,3.436,4.562,3.436h6.5c3.405,0,6.006-1.075,7.039-2.32c0,0.13,0,0.267,0,0.408
	c0,0.88,0.205,1.598,0.459,1.598s0.457-0.712,0.457-1.598C19.032,11.93,18.947,11.459,18.771,11.021z M7.008,2.855
	C6.905,2.751,6.783,2.667,6.649,2.608V2.441C6.829,2.5,6.994,2.597,7.132,2.726c0.222,0.229,0.33,0.544,0.297,0.86V5.09H7.243V3.586
	c0.03-0.269-0.063-0.538-0.253-0.73L7.008,2.855L7.008,2.855z M11.082,13.695h-6.52c-0.402,0-3.943-0.08-3.943-2.816
	c0-2.544,2.761-2.817,3.943-2.817h0.762l0.78-2.353H8.97l1.238,2.34h1.06c2.922-0.043,5.207,0.929,6.19,1.913
	c0.271,0.222,0.444,0.534,0.494,0.879c0,0.997-2.353,2.854-6.892,2.854H11.082z"/>
<path fill="#49585F" d="M5.293,8.842c-0.766,0-1.387,0.621-1.387,1.387c0,0.767,0.621,1.387,1.387,1.387s1.387-0.62,1.387-1.387l0,0
	C6.68,9.463,6.059,8.842,5.293,8.842z M5.293,10.99c-0.424,0-0.768-0.344-0.768-0.768c0-0.425,0.344-0.769,0.768-0.769
	s0.768,0.344,0.768,0.769l0,0C6.061,10.646,5.717,10.99,5.293,10.99z"/>
<path fill="#49585F" d="M8.414,8.842c-0.766,0-1.387,0.621-1.387,1.387c0,0.767,0.621,1.387,1.387,1.387s1.387-0.62,1.387-1.387l0,0
	C9.8,9.463,9.179,8.842,8.414,8.842z M8.414,10.99c-0.424,0-0.768-0.344-0.768-0.768c0-0.425,0.343-0.769,0.768-0.769
	c0.424,0,0.768,0.344,0.768,0.769l0,0C9.181,10.646,8.837,10.99,8.414,10.99z"/>
<path fill="#49585F" d="M11.533,8.842c-0.766,0-1.387,0.621-1.387,1.387c0,0.767,0.621,1.387,1.387,1.387
	c0.767,0,1.387-0.62,1.387-1.387l0,0C12.92,9.463,12.3,8.842,11.533,8.842z M11.533,10.99c-0.424,0-0.768-0.344-0.768-0.768
	c0-0.425,0.344-0.769,0.768-0.769s0.768,0.344,0.768,0.769l0,0C12.301,10.646,11.957,10.99,11.533,10.99z"/>
<path fill="#49585F" d="M13.62,5.084c0.999,0,1.808-0.81,1.808-1.808s-0.809-1.808-1.808-1.808s-1.808,0.81-1.808,1.808l0,0
	C11.812,4.275,12.621,5.084,13.62,5.084z M13.62,2.094c0.655,0,1.188,0.532,1.188,1.188c0,0.657-0.533,1.189-1.188,1.189
	c-0.657,0-1.188-0.532-1.188-1.189C12.432,2.626,12.963,2.094,13.62,2.094L13.62,2.094z"/>
<path fill="#49585F" d="M13.775,2.837V2.218C13.148,2.204,12.63,2.7,12.617,3.326c0,0.013,0,0.025,0,0.038h0.619
	c-0.008-0.284,0.217-0.521,0.5-0.527C13.75,2.836,13.762,2.836,13.775,2.837z"/>
<path fill="#49585F" d="M14.857,5.852c0,0.513,0.416,0.929,0.93,0.929c0.513,0,0.928-0.416,0.928-0.929S16.3,4.923,15.787,4.923
	C15.273,4.923,14.857,5.339,14.857,5.852z M15.787,5.542c0.171,0,0.311,0.139,0.311,0.31s-0.14,0.31-0.311,0.31
	c-0.172,0-0.311-0.139-0.311-0.31c0-0.16,0.121-0.293,0.278-0.31H15.787z"/>
</svg>
