<?xml version="1.0" encoding="utf-8"?>
<!-- Generator: Adobe Illustrator 16.0.0, SVG Export Plug-In . SVG Version: 6.00 Build 0)  -->
<!DOCTYPE svg PUBLIC "-//W3C//DTD SVG 1.1//EN" "http://www.w3.org/Graphics/SVG/1.1/DTD/svg11.dtd">
<svg version="1.1" id="Layer_1" xmlns="http://www.w3.org/2000/svg" xmlns:xlink="http://www.w3.org/1999/xlink" x="0px" y="0px"
	 width="19px" height="19px" viewBox="0 0 19 19" enable-background="new 0 0 19 19" xml:space="preserve">
<g>
	<path fill="#49585F" d="M9.38,0.167c-5.165,0-9.371,4.207-9.371,9.372S4.216,18.91,9.38,18.91c5.166,0,9.372-4.206,9.372-9.371
		C18.752,4.375,14.546,0.167,9.38,0.167z M9.38,18.035c-4.686,0-8.497-3.811-8.497-8.496c0-4.685,3.812-8.497,8.497-8.497
		c4.687,0,8.497,3.811,8.497,8.497C17.877,14.225,14.066,18.035,9.38,18.035z"/>
	<path fill="#49585F" d="M13.982,3.979c0.084-0.146,0.062-0.333-0.021-0.5C13.879,3.292,13.713,3.125,13.505,3
		c-0.438-0.25-0.917-0.208-1.085,0.063c-0.083,0.145-0.083,0.333,0.021,0.5c0.041,0.083,0.104,0.167,0.188,0.25
		c0.083,0.083,0.166,0.146,0.271,0.208c0.209,0.125,0.438,0.188,0.646,0.167C13.732,4.208,13.9,4.125,13.982,3.979z"/>
	<path fill="#49585F" d="M6.985,5.229C7.09,5.354,7.256,5.437,7.444,5.437l0,0l0,0C7.423,5.833,7.59,6.187,7.882,6.354
		c0.083,0.062,0.187,0.083,0.291,0.104C8.465,6.5,8.798,6.396,9.069,6.146C9.277,6.104,9.486,6,9.611,5.834
		C9.757,5.667,9.84,5.459,9.84,5.23c0-0.271-0.125-0.521-0.312-0.687C9.485,4.458,9.442,4.375,9.38,4.291
		C9.318,4.229,9.255,4.166,9.172,4.104C9.068,4.042,8.963,4.02,8.839,4C8.735,3.979,8.61,4,8.484,4.02
		C8.256,4.083,8.027,4.229,7.839,4.437C7.777,4.375,7.715,4.333,7.652,4.312S7.506,4.271,7.423,4.271
		c-0.25,0-0.438,0.146-0.542,0.354C6.86,4.687,6.839,4.77,6.839,4.854c0,0.083,0.021,0.167,0.042,0.229
		C6.923,5.145,6.944,5.187,6.985,5.229z"/>
	<path fill="#49585F" d="M11.816,4.833c-0.084,0-0.168,0.021-0.25,0.042C11.4,4.916,11.255,5,11.131,5.103
		c-0.062,0.063-0.104,0.125-0.168,0.188c-0.646,0.042-1.166,0.583-1.166,1.25c0,0.521,0.312,0.958,0.77,1.166
		c0.021,0,0.041,0,0.041,0.021c0.043-0.145,0.168-0.271,0.336-0.271c0.166,0,0.312,0.125,0.332,0.312c0.521-0.104,0.938-0.5,1-1.021
		c0.312-0.167,0.52-0.5,0.52-0.874c0-0.271-0.104-0.542-0.292-0.708C12.337,4.958,12.089,4.833,11.816,4.833z"/>
	<path fill="#49585F" d="M15.232,5.499c-0.104-0.146-0.229-0.271-0.418-0.354c-0.125-0.042-0.248-0.083-0.396-0.083
		c-0.146,0-0.271,0.021-0.396,0.083c-0.248,0.104-0.437,0.292-0.541,0.542C13.439,5.812,13.4,5.936,13.4,6.082
		s0.021,0.271,0.082,0.396c0.104,0.25,0.293,0.437,0.541,0.541c0.125,0.042,0.252,0.084,0.396,0.084
		c0.271,0,0.543-0.104,0.709-0.292c0.188-0.187,0.292-0.438,0.292-0.708C15.441,5.853,15.355,5.666,15.232,5.499z"/>
	<path fill="#49585F" d="M13.775,8.311c-0.062,0-0.127,0.021-0.166,0.041c-0.147,0.063-0.271,0.229-0.271,0.396
		s0.102,0.333,0.271,0.395c0.039,0.021,0.104,0.042,0.166,0.042c0.229,0,0.436-0.188,0.436-0.438
		C14.211,8.498,14.023,8.311,13.775,8.311z"/>
	<circle fill="#49585F" cx="4.903" cy="3.875" r="0.437"/>
	<path fill="#49585F" d="M15.003,4.187c0.083,0,0.147-0.021,0.209-0.062c-0.188-0.208-0.375-0.396-0.583-0.562l0,0
		c-0.021,0.062-0.043,0.125-0.043,0.188c0,0.125,0.043,0.229,0.126,0.312C14.775,4.145,14.877,4.187,15.003,4.187z"/>
	<circle fill="#49585F" cx="11.316" cy="14.851" r="0.187"/>
	<path fill="#49585F" d="M7.756,7.373C7.652,7.457,7.589,7.561,7.589,7.665s0.062,0.208,0.167,0.292
		C7.86,8.04,7.985,8.082,8.131,8.082S8.423,8.04,8.506,7.957C8.61,7.873,8.672,7.769,8.672,7.665S8.61,7.457,8.505,7.373
		C8.402,7.29,8.276,7.249,8.131,7.249C7.985,7.27,7.86,7.311,7.756,7.373z"/>
	<path fill="#49585F" d="M8.901,12.247L8.901,12.247c-0.646,0-1.187,0.521-1.187,1.187c0,0.646,0.52,0.979,1.187,0.979l0,0
		c0.417,0,0.771-0.126,0.979-0.375c0.125-0.146,0.208-0.353,0.208-0.604c0-0.25-0.083-0.479-0.208-0.666
		C9.672,12.455,9.318,12.247,8.901,12.247z"/>
	<path fill="#49585F" d="M6.486,13.079c0.125,0.146,0.312,0.25,0.521,0.25c0.083,0,0.167-0.021,0.25-0.042
		c0.229-0.104,0.396-0.333,0.396-0.604c0-0.188-0.083-0.354-0.188-0.459c-0.062-0.062-0.125-0.104-0.208-0.146
		s-0.167-0.042-0.25-0.042c-0.271,0-0.5,0.166-0.604,0.396c-0.042-0.104-0.104-0.188-0.167-0.291
		c-0.062-0.084-0.145-0.168-0.208-0.229l0,0c0.833-0.146,1.458-0.896,1.458-1.771c0-1-0.812-1.792-1.791-1.792
		c-0.104,0-0.208,0-0.312,0.021C5.277,8.394,5.194,8.415,5.09,8.456c0.187-0.187,0.333-0.438,0.396-0.729
		C5.507,7.623,5.507,7.54,5.507,7.436c0-0.063,0-0.125-0.021-0.209c0.125-0.124,0.208-0.25,0.292-0.416
		c0.062-0.166,0.104-0.333,0.104-0.52C5.882,5.582,5.299,5,4.59,5C4.507,5,4.423,5,4.34,5.021C4.174,5.062,4.028,5.103,3.903,5.208
		C3.778,5.291,3.653,5.395,3.549,5.52C3.487,5.603,3.424,5.708,3.383,5.812C3.341,5.916,3.32,6.02,3.299,6.145l0,0
		c0.271,0.042,0.479,0.25,0.479,0.541c0,0.312-0.25,0.541-0.541,0.541c-0.229,0-0.438-0.145-0.521-0.354
		C2.654,7.04,2.591,7.227,2.591,7.415c0,0.291,0.083,0.562,0.229,0.77C2.695,8.311,2.55,8.311,2.425,8.228
		c-0.083-0.063-0.167-0.146-0.25-0.229C2.133,7.957,2.113,7.894,2.071,7.852c-0.063-0.104-0.125-0.188-0.146-0.27
		C1.842,7.415,1.821,7.207,1.779,7.103C1.571,7.769,1.425,8.477,1.404,9.206c0,0.104,0,0.208,0,0.333c0,0.104,0,0.188,0,0.292
		c0.333-0.104,0.708,0.188,0.854,0.624c0.146,0.458,0,0.896-0.333,1c-0.083,0.021-0.188,0.021-0.271,0
		c0,0.042,0.021,0.062,0.021,0.104c0.188,0.668,0.458,1.312,0.792,1.896c0.021-0.04,0.021-0.103,0.062-0.124
		c0.125-0.083,0.312-0.042,0.417,0.124c0.104,0.147,0.104,0.354,0,0.438l0,0l0,0c0.062,0.041,0.125,0.084,0.188,0.123
		c0.208,0.104,0.417,0.188,0.625,0.209c0.104,0.021,0.208,0.021,0.292,0c-0.104,0.062-0.167,0.188-0.167,0.313
		c0,0.209,0.167,0.374,0.375,0.374s0.375-0.165,0.375-0.374c0-0.166-0.104-0.292-0.25-0.354c0.083-0.021,0.146-0.021,0.229-0.063
		c0.083,0.043,0.167,0.063,0.25,0.083c0.083,0.021,0.188,0.021,0.271,0.021C5.84,14.246,6.402,13.746,6.486,13.079L6.486,13.079z
		 M4.257,12.329c-0.188,0-0.354-0.146-0.354-0.354c0-0.188,0.146-0.354,0.354-0.354c0.188,0,0.354,0.146,0.354,0.354
		C4.59,12.184,4.445,12.329,4.257,12.329z M5.382,11.122c-0.292,0-0.521-0.229-0.521-0.521c0-0.041,0.021-0.084,0.021-0.125
		c-0.083,0.062-0.167,0.125-0.271,0.146c-0.396,0.125-0.833-0.083-0.938-0.438C3.611,9.998,3.652,9.831,3.736,9.665
		c-0.063,0-0.125,0-0.188,0C3.424,9.373,3.216,9.123,2.925,8.956l0.458-0.292l0,0C3.487,8.707,3.591,8.748,3.695,8.79
		c0.104,0.02,0.229,0.041,0.354,0.041c0.146,0,0.271-0.021,0.416-0.062C4.278,8.935,4.153,9.143,4.049,9.373l0,0
		C4.091,9.352,4.153,9.31,4.195,9.289C4.59,9.164,5.028,9.373,5.132,9.727c0.042,0.146,0.021,0.292-0.042,0.438
		c0.083-0.042,0.167-0.084,0.271-0.084c0.292,0,0.521,0.229,0.521,0.521C5.902,10.893,5.673,11.122,5.382,11.122z"/>
	<path fill="#49585F" d="M7.485,15.244c0-0.271-0.167-0.479-0.375-0.58c-0.083-0.043-0.167-0.043-0.25-0.043
		c-0.354,0-0.687,0.291-0.625,0.623c0.042,0.252,0.375,0.292,0.625,0.521c0.042,0.021,0.063,0.043,0.104,0.062
		c0.042,0,0.062,0.021,0.104,0c0.042,0,0.062-0.02,0.104-0.041s0.063-0.042,0.104-0.062C7.381,15.602,7.485,15.413,7.485,15.244z"/>
	<path fill="#49585F" d="M8.214,17.059c-0.104-0.125-0.25-0.209-0.417-0.209c-0.083,0-0.167,0-0.25,0.02
		c-0.083,0.021-0.146,0.064-0.208,0.126c-0.062,0.043-0.125,0.104-0.167,0.188c0.375,0.104,0.792,0.188,1.188,0.252
		c0-0.043-0.021-0.086-0.021-0.147C8.297,17.203,8.256,17.12,8.214,17.059z"/>
</g>
</svg>
