<?xml version="1.0" encoding="utf-8"?>
<!-- Generator: Adobe Illustrator 16.0.0, SVG Export Plug-In . SVG Version: 6.00 Build 0)  -->
<!DOCTYPE svg PUBLIC "-//W3C//DTD SVG 1.1//EN" "http://www.w3.org/Graphics/SVG/1.1/DTD/svg11.dtd">
<svg version="1.1" id="Layer_1" xmlns="http://www.w3.org/2000/svg" xmlns:xlink="http://www.w3.org/1999/xlink" x="0px" y="0px"
	 width="19px" height="19px" viewBox="0 0 19 19" enable-background="new 0 0 19 19" xml:space="preserve">
<title>pisa</title>
<path fill="#49585F" d="M14.54,3.703L14.6,3.44l-1.012-0.229l0.415-1.825h-0.005l0.04-0.17h0.004l0.005-0.026h-0.002l0.036-0.159
	h0.003l0.007-0.026h-0.005l0.037-0.159l-0.042-0.01l0.047,0.011l0.005-0.026L10.539,0l-0.006,0.026l1.385,0.314l-0.081-0.018
	l-0.036,0.159L11.484,0.41l0.037-0.159l-0.117-0.027l-0.037,0.159l-0.315-0.072l0.036-0.159l-0.117-0.027l-0.037,0.16l-0.314-0.072
	l0.037-0.159l-0.119-0.027L10.5,0.187h-0.004L10.49,0.213h0.004l-0.037,0.159h-0.004l-0.006,0.026h0.004l-0.04,0.174l0.041,0.009
	l-0.044-0.01L9.994,2.397L9.096,2.194L9.035,2.456l0.301,0.068L8.894,4.471L8.595,4.403l-0.06,0.261l0.3,0.068L8.41,6.603
	L8.111,6.535L8.052,6.798l0.299,0.067L7.943,8.663L7.644,8.595l-0.06,0.262l0.299,0.068l-0.408,1.796l-0.299-0.068l-0.06,0.264
	l0.3,0.066L6.939,13.08l-0.401,0.381L6.36,14.248l0,0v0.001l0,0l0.104,0.931l-0.776,3.428H4.431v0.386h7.639v-0.386h-1.225
	l0.524-2.314l0,0l0.495-0.793l0,0v-0.003l0,0l0.178-0.785l-0.197-0.519l0.477-2.098l0.301,0.068l0.061-0.264l-0.303-0.066
	l0.408-1.797l0.3,0.066l0.06-0.261L12.85,9.775l0.407-1.797l0.3,0.068l0.061-0.262l-0.301-0.068l0.425-1.873l0.301,0.068l0.06-0.262
	l-0.301-0.068l0.442-1.947L14.54,3.703z M13.132,1.189l0.039-0.169l0.313,0.071l-0.039,0.17L13.132,1.189z M11.717,1.921
	c0.037-0.166,0.202-0.269,0.367-0.232c0.166,0.038,0.27,0.202,0.23,0.368L12.129,2.88l-0.598-0.136L11.717,1.921z M12.266,0.992
	l0.039-0.17l0.314,0.071l-0.039,0.17L12.266,0.992z M12.736,0.92l0.315,0.072l-0.038,0.169L12.698,1.09L12.736,0.92z M12.744,0.895
	l0.035-0.159l0.314,0.071l-0.035,0.159L12.744,0.895z M13.177,0.993l0.035-0.159l0.315,0.072l-0.035,0.159L13.177,0.993z
	 M13.221,0.805l0.035-0.159l0.314,0.072l-0.036,0.159L13.221,0.805z M13.1,0.778l-0.313-0.071l0.037-0.159l0.313,0.072L13.1,0.778z
	 M12.667,0.68l-0.313-0.072l0.035-0.159l0.316,0.072L12.667,0.68z M12.661,0.707l-0.037,0.159l-0.313-0.07l0.035-0.159L12.661,0.707
	z M12.191,0.771l-0.316-0.074l0.037-0.159l0.314,0.071L12.191,0.771z M12.186,0.797l-0.039,0.169l-0.314-0.071l0.039-0.169
	L12.186,0.797z M11.713,0.868l-0.314-0.073l0.037-0.169l0.315,0.071L11.713,0.868z M11.279,0.77l-0.315-0.071l0.039-0.17L11.316,0.6
	L11.279,0.77z M13.586,1.835l-0.297,1.31l-0.6-0.135l0.299-1.312c0.037-0.166,0.201-0.269,0.367-0.232
	c0.166,0.038,0.27,0.202,0.231,0.367L13.586,1.835z M13.881,1.36l-0.314-0.071l0.039-0.169l0.313,0.071L13.881,1.36z M13.925,1.164
	l-0.315-0.072l0.037-0.16l0.314,0.072L13.925,1.164z M13.968,0.977l-0.315-0.071l0.037-0.159l0.314,0.071L13.968,0.977z
	 M11.955,0.35l0.314,0.071L12.232,0.58l-0.313-0.072L11.955,0.35z M11.795,0.509l-0.037,0.159l-0.314-0.071l0.037-0.159
	L11.795,0.509z M11.359,0.411L11.323,0.57l-0.314-0.071l0.036-0.159L11.359,0.411z M10.611,0.241l0.314,0.071l-0.035,0.159
	l-0.316-0.072L10.611,0.241z M10.568,0.428L10.884,0.5l-0.038,0.17l0.047,0.01l-0.363-0.083L10.568,0.428z M10.666,1.171
	c0.038-0.166,0.201-0.269,0.367-0.232c0.166,0.038,0.27,0.202,0.23,0.368l0,0l-0.298,1.31l-0.598-0.135L10.666,1.171z
	 M11.738,12.761l-0.188,0.83l-0.061-0.015l-0.183,0.336l-0.205-0.046l-0.02-0.382l-0.059-0.014l0.188-0.828l0.074,0.017
	c-0.105-0.134-0.083-0.325,0.05-0.431c0.133-0.106,0.326-0.084,0.433,0.049c0.104,0.134,0.082,0.326-0.052,0.432
	c-0.017,0.014-0.034,0.025-0.056,0.036L11.738,12.761z M7.49,12.669l-0.059-0.013l0.188-0.83l0.074,0.017
	c-0.105-0.133-0.083-0.325,0.05-0.431c0.133-0.105,0.326-0.083,0.431,0.05c0.105,0.134,0.083,0.326-0.05,0.433
	c-0.017,0.013-0.036,0.024-0.056,0.035l0.074,0.016l-0.188,0.83l-0.059-0.015l-0.184,0.337L7.51,13.051L7.49,12.669z M8.388,12.873
	L8.33,12.859l0.188-0.83l0.075,0.018c-0.105-0.133-0.083-0.326,0.05-0.432c0.133-0.104,0.327-0.082,0.431,0.051
	c0.105,0.133,0.083,0.326-0.05,0.432c-0.017,0.014-0.036,0.024-0.056,0.034l0.075,0.019l-0.189,0.83l-0.059-0.015L8.61,13.303
	l-0.203-0.047L8.388,12.873z M9.287,13.077l0.204,0.046l-0.263-0.061l0.188-0.828l0.075,0.017c-0.105-0.133-0.083-0.326,0.05-0.431
	c0.133-0.105,0.326-0.084,0.431,0.05c0.106,0.133,0.083,0.325-0.05,0.431c-0.017,0.014-0.036,0.025-0.056,0.035l0.074,0.018
	l-0.188,0.83l-0.059-0.016l-0.184,0.338L9.308,13.46L9.287,13.077z M10.188,13.279l0.201,0.048l-0.262-0.062l0.188-0.828
	l0.076,0.019c-0.105-0.134-0.082-0.327,0.049-0.433c0.135-0.104,0.326-0.082,0.433,0.051c0.104,0.133,0.083,0.326-0.05,0.432
	c-0.02,0.014-0.036,0.025-0.057,0.035l0.073,0.018l-0.188,0.828l-0.059-0.014l-0.186,0.338l-0.202-0.046L10.188,13.279z
	 M6.301,18.215l0.43,0.098l-0.555-0.127l0.328-1.443l0.155,0.035c-0.076-0.135-0.098-0.293-0.063-0.441
	c0.073-0.322,0.381-0.531,0.688-0.462c0.307,0.069,0.495,0.39,0.422,0.714c-0.034,0.148-0.121,0.282-0.247,0.371l0.155,0.034
	l-0.327,1.444L7.162,18.41L7.04,18.607H6.344L6.301,18.215z M8.138,16.686c0.073-0.324,0.382-0.529,0.688-0.461
	c0.307,0.069,0.496,0.391,0.422,0.713c-0.033,0.15-0.121,0.283-0.247,0.373l0.155,0.033L8.87,18.607H8.033l-0.315-0.07l0.328-1.444
	l0.155,0.035C8.126,16.993,8.104,16.836,8.138,16.686z M7.843,18.564l0.19,0.043H7.847L7.843,18.564z M9.323,18.607l0.265-1.166
	l0.155,0.035c-0.076-0.134-0.099-0.291-0.063-0.44c0.073-0.324,0.382-0.532,0.688-0.461c0.308,0.067,0.495,0.388,0.422,0.712
	c-0.033,0.15-0.122,0.283-0.246,0.371l0.153,0.035l-0.207,0.916L9.323,18.607z M11.414,10.197c-0.021,0.092-0.081,0.168-0.165,0.207
	l0.074,0.019l-0.188,0.829l-0.263-0.061l0.204,0.047l-0.146,0.268l-0.244-0.057l-0.017-0.303l-0.06-0.015l0.188-0.829l0.074,0.018
	c-0.104-0.133-0.082-0.326,0.052-0.431c0.133-0.105,0.325-0.082,0.432,0.051C11.412,10.014,11.434,10.107,11.414,10.197
	L11.414,10.197z M9.787,11.248l-0.016-0.305l-0.06-0.014L9.9,10.102l0.074,0.018C9.87,9.986,9.891,9.793,10.023,9.688
	c0.134-0.105,0.326-0.083,0.433,0.05c0.106,0.133,0.083,0.325-0.05,0.431c-0.018,0.015-0.037,0.026-0.057,0.035l0.075,0.019
	l-0.188,0.828l-0.06-0.014l-0.146,0.268L9.787,11.248z M8.889,11.044L8.872,10.74l0.203,0.044l-0.262-0.06l0.188-0.83l0.074,0.017
	C8.97,9.78,8.993,9.586,9.126,9.481s0.326-0.083,0.432,0.05C9.662,9.664,9.64,9.857,9.507,9.962
	C9.489,9.976,9.471,9.988,9.451,9.998l0.074,0.018l-0.188,0.828l-0.06-0.014l-0.146,0.268L8.889,11.044z M7.916,10.521l0.188-0.829
	L8.178,9.71c-0.105-0.133-0.083-0.327,0.05-0.432s0.326-0.083,0.431,0.05c0.105,0.133,0.083,0.326-0.051,0.431
	C8.591,9.774,8.573,9.787,8.553,9.795l0.074,0.017l-0.188,0.829l-0.426-0.097l0.367,0.084l-0.145,0.267L7.99,10.84l-0.016-0.304
	L7.916,10.521z M11.585,11.654l-0.019-0.303l0.205,0.045l-0.264-0.06l0.188-0.829l0.076,0.018c-0.106-0.133-0.084-0.326,0.049-0.432
	c0.134-0.104,0.326-0.083,0.432,0.051c0.105,0.133,0.083,0.326-0.05,0.432c-0.019,0.014-0.035,0.025-0.056,0.033l0.074,0.019
	l-0.188,0.828l-0.06-0.015l-0.145,0.268L11.585,11.654z M12.706,8.494l-0.188,0.827l-0.523-0.119l0.188-0.829l0.074,0.016
	c-0.105-0.133-0.083-0.326,0.051-0.431c0.133-0.105,0.325-0.083,0.43,0.05c0.106,0.133,0.084,0.326-0.049,0.431
	c-0.017,0.014-0.035,0.025-0.056,0.035L12.706,8.494z M11.175,9.396l-0.021-0.382l0.203,0.046L11.098,9l0.188-0.829l0.072,0.017
	c-0.104-0.133-0.082-0.326,0.053-0.431c0.132-0.105,0.324-0.083,0.431,0.05c0.104,0.133,0.083,0.326-0.05,0.432
	c-0.018,0.013-0.037,0.025-0.057,0.035l0.074,0.017l-0.188,0.828l-0.061-0.013l-0.185,0.337L11.175,9.396z M10.275,9.192
	l-0.02-0.382l-0.059-0.013l0.188-0.829l0.075,0.017c-0.104-0.133-0.083-0.326,0.05-0.431s0.325-0.083,0.432,0.05
	c0.104,0.133,0.082,0.326-0.049,0.431c-0.02,0.014-0.037,0.025-0.058,0.035l0.073,0.017l-0.188,0.83l-0.06-0.014L10.479,9.24
	L10.275,9.192z M9.377,8.988l-0.02-0.382L9.299,8.593l0.188-0.831l0.074,0.017C9.455,7.646,9.477,7.454,9.609,7.348
	c0.132-0.106,0.325-0.084,0.431,0.048c0.106,0.133,0.085,0.326-0.049,0.432C9.974,7.842,9.955,7.854,9.935,7.864l0.074,0.017
	L9.821,8.71L9.364,8.606l0.396,0.09L9.58,9.035L9.377,8.988z M8.603,7.317C8.64,7.151,8.805,7.048,8.97,7.085
	c0.166,0.038,0.269,0.202,0.231,0.368C9.181,7.544,9.12,7.62,9.037,7.661l0.075,0.016l-0.189,0.83L8.399,8.388l0.188-0.83
	l0.074,0.017C8.604,7.503,8.583,7.408,8.603,7.317z M8.458,8.401l0.406,0.092L8.681,8.831L8.479,8.784L8.458,8.401z M12.072,9.6
	l-0.021-0.382l0.405,0.092l-0.184,0.337L12.072,9.6z M13.189,6.358l-0.188,0.83l-0.059-0.013l-0.187,0.339l-0.202-0.045
	l-0.021-0.386l-0.06-0.013l0.188-0.83l0.073,0.017c-0.104-0.133-0.082-0.326,0.051-0.431s0.326-0.083,0.432,0.05
	s0.083,0.327-0.051,0.432c-0.018,0.014-0.035,0.025-0.057,0.035L13.189,6.358z M12.291,6.155l-0.188,0.83l-0.06-0.014L11.859,7.31
	l-0.201-0.045l-0.02-0.387L11.58,6.865l0.188-0.83l0.073,0.017c-0.104-0.133-0.083-0.326,0.052-0.431
	c0.131-0.106,0.324-0.083,0.432,0.05c0.104,0.133,0.083,0.326-0.051,0.431c-0.018,0.014-0.037,0.026-0.057,0.036L12.291,6.155z
	 M11.393,5.949l-0.188,0.829l-0.462-0.105l0.401,0.091l-0.185,0.34l-0.2-0.045l-0.02-0.386L10.68,6.66l0.188-0.829l0.073,0.017
	c-0.104-0.132-0.082-0.326,0.053-0.431c0.132-0.106,0.324-0.083,0.43,0.05c0.105,0.132,0.083,0.326-0.049,0.431
	c-0.018,0.014-0.037,0.025-0.057,0.035L11.393,5.949z M10.494,5.745l-0.188,0.829l-0.06-0.013l-0.187,0.342L9.86,6.858L9.84,6.472
	L9.78,6.459l0.188-0.83l0.075,0.017C9.938,5.513,9.96,5.32,10.093,5.214c0.134-0.106,0.327-0.083,0.433,0.05
	c0.104,0.133,0.082,0.326-0.051,0.431c-0.019,0.014-0.037,0.026-0.057,0.036L10.494,5.745z M9.596,5.541l-0.188,0.83l-0.06-0.014
	L9.164,6.696L8.962,6.651l-0.02-0.384L8.883,6.253l0.188-0.829l0.074,0.017C9.04,5.309,9.063,5.115,9.195,5.01
	c0.133-0.106,0.326-0.083,0.432,0.05c0.106,0.133,0.083,0.326-0.05,0.431C9.56,5.505,9.541,5.517,9.521,5.526L9.596,5.541z
	 M13.674,4.222l-0.188,0.83l-0.06-0.014L13.243,5.38l-0.201-0.046L13.02,4.948l-0.059-0.013l0.189-0.831l0.074,0.017
	c-0.105-0.132-0.084-0.325,0.049-0.431c0.045-0.036,0.1-0.059,0.158-0.065l0.061,0.014l0.003-0.014
	c0.169,0.017,0.291,0.167,0.274,0.336c-0.012,0.105-0.074,0.198-0.17,0.245L13.674,4.222z M12.866,3.793
	C12.846,3.884,12.785,3.96,12.7,4.001l0.075,0.017l-0.188,0.829l-0.442-0.1l0.385,0.088l-0.187,0.339l-0.2-0.044l-0.021-0.386
	l-0.06-0.014L12.25,3.9l0.075,0.017c-0.104-0.132-0.084-0.326,0.049-0.431c0.046-0.036,0.101-0.059,0.157-0.065l0.195,0.044
	c0.11,0.069,0.168,0.202,0.139,0.33L12.866,3.793L12.866,3.793z M11.968,3.592c-0.022,0.091-0.082,0.167-0.166,0.208l0.076,0.017
	l-0.188,0.828l-0.06-0.013L11.445,4.97l-0.202-0.045l-0.021-0.386l-0.059-0.013l0.188-0.829l0.074,0.016
	c-0.105-0.132-0.084-0.325,0.049-0.431c0.047-0.036,0.102-0.059,0.158-0.064l0.195,0.044C11.939,3.331,11.997,3.463,11.968,3.592z
	 M11.068,3.388c-0.021,0.091-0.082,0.167-0.166,0.208l0.076,0.017l-0.188,0.83l-0.524-0.119l0.188-0.83l0.075,0.017
	c-0.105-0.132-0.084-0.326,0.049-0.431c0.046-0.036,0.1-0.059,0.158-0.064l0.195,0.044C11.043,3.128,11.098,3.26,11.068,3.388
	L11.068,3.388z M10.73,4.429l-0.186,0.339l-0.201-0.045l-0.02-0.386L10.73,4.429z M10.169,3.184
	c-0.021,0.091-0.08,0.167-0.164,0.208l0.074,0.017l-0.188,0.83L9.833,4.225l-0.185,0.34L9.447,4.517L9.426,4.133l-0.06-0.014
	L9.555,3.29l0.074,0.017C9.523,3.174,9.545,2.981,9.678,2.876C9.74,2.826,9.82,2.803,9.9,2.811L9.896,2.825l0.136,0.032
	C10.143,2.925,10.198,3.057,10.169,3.184L10.169,3.184z"/>
<polygon points="11.029,3.671 11.191,3.708 11.191,3.708 "/>
<polygon points="8.042,10.176 8.205,10.213 8.205,10.213 "/>
<polygon points="8.267,8.432 8.267,8.432 8.298,8.438 "/>
<polygon points="12.305,3.96 12.305,3.96 12.469,3.997 "/>
<polygon points="10.029,8.832 9.705,8.758 9.705,8.758 "/>
<polygon points="10.756,10.792 10.756,10.792 11.081,10.865 11.081,10.865 "/>
<polygon points="9.761,5.179 9.761,5.179 9.923,5.216 "/>
<path d="M10.48,5.342h0.002H10.48z"/>
<polygon points="11.199,5.505 11.199,5.505 11.523,5.579 11.523,5.579 "/>
</svg>
