<?xml version="1.0" encoding="utf-8"?>
<!-- Generator: Adobe Illustrator 16.0.0, SVG Export Plug-In . SVG Version: 6.00 Build 0)  -->
<!DOCTYPE svg PUBLIC "-//W3C//DTD SVG 1.1//EN" "http://www.w3.org/Graphics/SVG/1.1/DTD/svg11.dtd">
<svg version="1.1" id="Layer_1" xmlns="http://www.w3.org/2000/svg" xmlns:xlink="http://www.w3.org/1999/xlink" x="0px" y="0px"
	 width="19px" height="19px" viewBox="0 0 19 19" enable-background="new 0 0 19 19" xml:space="preserve">
<g>
	<path fill="#49585F" d="M3.021,12.861c0.007,0,0.088,0,0.225,0c-0.217-0.383-0.342-0.824-0.342-1.295
		c0-1.306,0.931-2.385,2.204-2.605C5.379,7.56,6.607,6.532,8.057,6.532c0.303,0,0.599,0.043,0.881,0.13
		C8.95,6.648,8.962,6.633,8.975,6.618c0.533-0.624,1.513-1.764,3.552-1.839c-0.59-0.416-1.275-0.687-2.033-0.727
		C7.967,3.918,6.984,5.438,6.48,5.985C6.177,5.867,5.847,5.804,5.502,5.804c-1.387,0-2.528,1.049-2.676,2.396
		c-1.212,0.099-2.165,1.089-2.165,2.325C0.661,11.829,1.718,12.861,3.021,12.861z"/>
	<path fill="#49585F" d="M17.035,9.687l-0.178-0.069l-0.02-0.19c-0.189-1.816-1.566-3.75-3.57-3.995
		c-0.08-0.01-0.158-0.021-0.238-0.026c-2.1-0.11-3.034,0.98-3.58,1.619C9.38,7.105,9.319,7.178,9.263,7.239L9.118,7.396L8.919,7.318
		c-0.272-0.107-0.563-0.16-0.864-0.16c-1.215,0-2.232,0.91-2.365,2.118L5.663,9.532L5.405,9.553
		c-1.07,0.087-1.878,0.953-1.878,2.015c0,0.49,0.179,0.941,0.475,1.293c0.375,0.445,0.94,0.729,1.571,0.729h10.721
		c1.127,0,2.044-0.905,2.044-2.021C18.339,10.734,17.826,9.995,17.035,9.687z"/>
</g>
</svg>
